<svg width="414" height="896" viewBox="0 0 414 896" fill="none" xmlns="http://www.w3.org/2000/svg">
<rect width="414" height="896" fill="white"/>
<path d="M159.228 522.97L161.776 512.203H163.2L163.525 513.996L160.81 525H159.28L159.228 522.97ZM157.918 512.203L160.027 522.97L159.852 525H158.146L155.308 512.203H157.918ZM165.767 522.926L167.85 512.203H170.46L167.63 525H165.925L165.767 522.926ZM164 512.203L166.566 523.014L166.496 525H164.967L162.233 513.987L162.585 512.203H164ZM175.83 525.176C175.092 525.176 174.43 525.059 173.844 524.824C173.258 524.584 172.76 524.253 172.35 523.831C171.945 523.409 171.635 522.92 171.418 522.363C171.201 521.801 171.093 521.203 171.093 520.57V520.219C171.093 519.498 171.195 518.839 171.4 518.241C171.605 517.644 171.898 517.125 172.279 516.686C172.666 516.246 173.135 515.909 173.686 515.675C174.236 515.435 174.857 515.314 175.549 515.314C176.223 515.314 176.82 515.426 177.342 515.648C177.863 515.871 178.3 516.188 178.651 516.598C179.009 517.008 179.278 517.5 179.46 518.074C179.642 518.643 179.732 519.275 179.732 519.973V521.027H172.174V519.34H177.245V519.146C177.245 518.795 177.181 518.481 177.052 518.206C176.929 517.925 176.741 517.702 176.489 517.538C176.237 517.374 175.915 517.292 175.522 517.292C175.188 517.292 174.901 517.365 174.661 517.512C174.421 517.658 174.225 517.863 174.072 518.127C173.926 518.391 173.814 518.701 173.738 519.059C173.668 519.41 173.633 519.797 173.633 520.219V520.57C173.633 520.951 173.686 521.303 173.791 521.625C173.902 521.947 174.058 522.226 174.257 522.46C174.462 522.694 174.708 522.876 174.995 523.005C175.288 523.134 175.619 523.198 175.988 523.198C176.445 523.198 176.87 523.11 177.263 522.935C177.661 522.753 178.004 522.48 178.291 522.117L179.521 523.453C179.322 523.74 179.05 524.016 178.704 524.279C178.364 524.543 177.954 524.76 177.474 524.93C176.993 525.094 176.445 525.176 175.83 525.176ZM183.846 511.5V525H181.306V511.5H183.846ZM189.866 523.198C190.177 523.198 190.452 523.14 190.692 523.022C190.933 522.899 191.12 522.729 191.255 522.513C191.396 522.29 191.469 522.029 191.475 521.73H193.856C193.851 522.398 193.672 522.993 193.32 523.515C192.969 524.03 192.497 524.438 191.905 524.736C191.313 525.029 190.651 525.176 189.919 525.176C189.181 525.176 188.536 525.053 187.985 524.807C187.44 524.561 186.986 524.221 186.623 523.787C186.26 523.348 185.987 522.838 185.806 522.258C185.624 521.672 185.533 521.045 185.533 520.377V520.122C185.533 519.448 185.624 518.821 185.806 518.241C185.987 517.655 186.26 517.146 186.623 516.712C186.986 516.272 187.44 515.93 187.985 515.684C188.53 515.438 189.169 515.314 189.901 515.314C190.681 515.314 191.363 515.464 191.949 515.763C192.541 516.062 193.004 516.489 193.338 517.046C193.678 517.597 193.851 518.25 193.856 519.006H191.475C191.469 518.689 191.401 518.402 191.272 518.145C191.149 517.887 190.968 517.682 190.728 517.529C190.493 517.371 190.203 517.292 189.857 517.292C189.488 517.292 189.187 517.371 188.952 517.529C188.718 517.682 188.536 517.893 188.407 518.162C188.278 518.426 188.188 518.728 188.135 519.067C188.088 519.401 188.064 519.753 188.064 520.122V520.377C188.064 520.746 188.088 521.101 188.135 521.44C188.182 521.78 188.27 522.082 188.398 522.346C188.533 522.609 188.718 522.817 188.952 522.97C189.187 523.122 189.491 523.198 189.866 523.198ZM194.92 520.342V520.157C194.92 519.46 195.02 518.818 195.219 518.232C195.418 517.641 195.708 517.128 196.089 516.694C196.47 516.261 196.938 515.924 197.495 515.684C198.052 515.438 198.69 515.314 199.411 515.314C200.132 515.314 200.773 515.438 201.336 515.684C201.898 515.924 202.37 516.261 202.751 516.694C203.138 517.128 203.431 517.641 203.63 518.232C203.829 518.818 203.929 519.46 203.929 520.157V520.342C203.929 521.033 203.829 521.675 203.63 522.267C203.431 522.853 203.138 523.365 202.751 523.805C202.37 524.238 201.901 524.575 201.345 524.815C200.788 525.056 200.149 525.176 199.429 525.176C198.708 525.176 198.066 525.056 197.504 524.815C196.947 524.575 196.476 524.238 196.089 523.805C195.708 523.365 195.418 522.853 195.219 522.267C195.02 521.675 194.92 521.033 194.92 520.342ZM197.451 520.157V520.342C197.451 520.74 197.486 521.112 197.557 521.458C197.627 521.804 197.738 522.108 197.891 522.372C198.049 522.63 198.254 522.832 198.506 522.979C198.758 523.125 199.065 523.198 199.429 523.198C199.78 523.198 200.082 523.125 200.334 522.979C200.586 522.832 200.788 522.63 200.94 522.372C201.093 522.108 201.204 521.804 201.274 521.458C201.351 521.112 201.389 520.74 201.389 520.342V520.157C201.389 519.771 201.351 519.407 201.274 519.067C201.204 518.722 201.09 518.417 200.932 518.153C200.779 517.884 200.577 517.673 200.325 517.521C200.073 517.368 199.769 517.292 199.411 517.292C199.054 517.292 198.749 517.368 198.497 517.521C198.251 517.673 198.049 517.884 197.891 518.153C197.738 518.417 197.627 518.722 197.557 519.067C197.486 519.407 197.451 519.771 197.451 520.157ZM208.016 517.459V525H205.476V515.49H207.857L208.016 517.459ZM207.664 519.911H206.961C206.961 519.249 207.04 518.64 207.198 518.083C207.362 517.521 207.6 517.034 207.91 516.624C208.227 516.208 208.616 515.886 209.079 515.657C209.542 515.429 210.078 515.314 210.688 515.314C211.109 515.314 211.496 515.379 211.848 515.508C212.199 515.631 212.501 515.827 212.753 516.097C213.011 516.36 213.21 516.706 213.351 517.134C213.491 517.556 213.562 518.062 213.562 518.654V525H211.03V518.936C211.03 518.502 210.972 518.168 210.854 517.934C210.737 517.699 210.57 517.535 210.354 517.441C210.143 517.348 209.888 517.301 209.589 517.301C209.261 517.301 208.974 517.368 208.728 517.503C208.487 517.638 208.288 517.825 208.13 518.065C207.972 518.3 207.854 518.575 207.778 518.892C207.702 519.208 207.664 519.548 207.664 519.911ZM213.324 519.621L212.419 519.735C212.419 519.114 212.495 518.537 212.647 518.004C212.806 517.471 213.037 517.002 213.342 516.598C213.652 516.193 214.036 515.88 214.493 515.657C214.95 515.429 215.478 515.314 216.075 515.314C216.532 515.314 216.948 515.382 217.323 515.517C217.698 515.646 218.018 515.854 218.281 516.141C218.551 516.422 218.756 516.791 218.896 517.248C219.043 517.705 219.116 518.265 219.116 518.927V525H216.576V518.927C216.576 518.487 216.518 518.153 216.4 517.925C216.289 517.69 216.125 517.529 215.908 517.441C215.697 517.348 215.445 517.301 215.152 517.301C214.848 517.301 214.581 517.362 214.353 517.485C214.124 517.603 213.934 517.767 213.781 517.978C213.629 518.188 213.515 518.435 213.438 518.716C213.362 518.991 213.324 519.293 213.324 519.621ZM225.453 525.176C224.715 525.176 224.053 525.059 223.467 524.824C222.881 524.584 222.383 524.253 221.973 523.831C221.568 523.409 221.258 522.92 221.041 522.363C220.824 521.801 220.716 521.203 220.716 520.57V520.219C220.716 519.498 220.818 518.839 221.023 518.241C221.229 517.644 221.521 517.125 221.902 516.686C222.289 516.246 222.758 515.909 223.309 515.675C223.859 515.435 224.48 515.314 225.172 515.314C225.846 515.314 226.443 515.426 226.965 515.648C227.486 515.871 227.923 516.188 228.274 516.598C228.632 517.008 228.901 517.5 229.083 518.074C229.265 518.643 229.355 519.275 229.355 519.973V521.027H221.797V519.34H226.868V519.146C226.868 518.795 226.804 518.481 226.675 518.206C226.552 517.925 226.364 517.702 226.112 517.538C225.86 517.374 225.538 517.292 225.146 517.292C224.812 517.292 224.524 517.365 224.284 517.512C224.044 517.658 223.848 517.863 223.695 518.127C223.549 518.391 223.438 518.701 223.361 519.059C223.291 519.41 223.256 519.797 223.256 520.219V520.57C223.256 520.951 223.309 521.303 223.414 521.625C223.525 521.947 223.681 522.226 223.88 522.46C224.085 522.694 224.331 522.876 224.618 523.005C224.911 523.134 225.242 523.198 225.611 523.198C226.068 523.198 226.493 523.11 226.886 522.935C227.284 522.753 227.627 522.48 227.914 522.117L229.145 523.453C228.945 523.74 228.673 524.016 228.327 524.279C227.987 524.543 227.577 524.76 227.097 524.93C226.616 525.094 226.068 525.176 225.453 525.176Z" fill="black"/>
<path d="M81.792 561.398L84.2041 556.758H85.5879L82.4014 562.553V566H81.1826V562.553L77.9961 556.758H79.3926L81.792 561.398ZM85.8672 562.502C85.8672 561.83 85.9984 561.224 86.2607 560.687C86.5273 560.15 86.8955 559.735 87.3652 559.443C87.8392 559.151 88.3787 559.005 88.9839 559.005C89.9191 559.005 90.6745 559.329 91.25 559.976C91.8298 560.624 92.1196 561.485 92.1196 562.56V562.642C92.1196 563.311 91.9906 563.912 91.7324 564.445C91.4785 564.974 91.1125 565.386 90.6343 565.683C90.1603 565.979 89.6144 566.127 88.9966 566.127C88.0656 566.127 87.3102 565.803 86.7305 565.156C86.1549 564.508 85.8672 563.651 85.8672 562.585V562.502ZM87.0479 562.642C87.0479 563.404 87.2235 564.015 87.5747 564.477C87.9302 564.938 88.4041 565.168 88.9966 565.168C89.5933 565.168 90.0672 564.936 90.4185 564.47C90.7697 564 90.9453 563.345 90.9453 562.502C90.9453 561.749 90.7655 561.14 90.4058 560.674C90.0503 560.205 89.5763 559.97 88.9839 559.97C88.4041 559.97 87.9365 560.2 87.5811 560.662C87.2256 561.123 87.0479 561.783 87.0479 562.642ZM97.8325 565.321C97.3755 565.858 96.7048 566.127 95.8203 566.127C95.0882 566.127 94.5296 565.915 94.1445 565.492C93.7637 565.065 93.5711 564.434 93.5669 563.601V559.132H94.7412V563.569C94.7412 564.61 95.1644 565.13 96.0107 565.13C96.9079 565.13 97.5046 564.796 97.8008 564.127V559.132H98.9751V566H97.8579L97.8325 565.321ZM108.23 566C108.162 565.865 108.107 565.623 108.065 565.276C107.519 565.843 106.867 566.127 106.11 566.127C105.433 566.127 104.876 565.937 104.44 565.556C104.009 565.171 103.793 564.684 103.793 564.096C103.793 563.381 104.064 562.826 104.605 562.433C105.151 562.035 105.917 561.836 106.903 561.836H108.046V561.296C108.046 560.886 107.923 560.56 107.678 560.319C107.432 560.073 107.07 559.951 106.592 559.951C106.173 559.951 105.822 560.056 105.539 560.268C105.255 560.48 105.113 560.736 105.113 561.036H103.933C103.933 560.693 104.053 560.363 104.294 560.046C104.54 559.724 104.87 559.47 105.285 559.284C105.704 559.098 106.163 559.005 106.662 559.005C107.453 559.005 108.073 559.204 108.522 559.602C108.971 559.995 109.203 560.539 109.22 561.233V564.394C109.22 565.025 109.301 565.526 109.461 565.898V566H108.23ZM106.281 565.105C106.649 565.105 106.999 565.01 107.329 564.819C107.659 564.629 107.898 564.381 108.046 564.077V562.667H107.125C105.687 562.667 104.967 563.089 104.967 563.931C104.967 564.299 105.09 564.587 105.335 564.794C105.581 565.001 105.896 565.105 106.281 565.105ZM114.381 560.186C114.203 560.156 114.011 560.141 113.803 560.141C113.033 560.141 112.51 560.469 112.235 561.125V566H111.061V559.132H112.204L112.223 559.925C112.608 559.312 113.154 559.005 113.86 559.005C114.089 559.005 114.262 559.035 114.381 559.094V560.186ZM118.189 566.127C117.258 566.127 116.501 565.822 115.917 565.213C115.333 564.599 115.041 563.78 115.041 562.756V562.541C115.041 561.859 115.17 561.252 115.428 560.719C115.691 560.181 116.055 559.762 116.52 559.462C116.99 559.157 117.498 559.005 118.043 559.005C118.936 559.005 119.63 559.299 120.125 559.887C120.621 560.475 120.868 561.318 120.868 562.414V562.902H116.215C116.232 563.579 116.429 564.127 116.806 564.546C117.187 564.961 117.669 565.168 118.253 565.168C118.668 565.168 119.019 565.084 119.307 564.915C119.594 564.745 119.846 564.521 120.062 564.242L120.779 564.8C120.204 565.685 119.34 566.127 118.189 566.127ZM118.043 559.97C117.569 559.97 117.172 560.143 116.85 560.49C116.528 560.833 116.33 561.315 116.253 561.938H119.694V561.849C119.66 561.252 119.499 560.791 119.211 560.465C118.924 560.135 118.534 559.97 118.043 559.97ZM129.698 566C129.63 565.865 129.575 565.623 129.533 565.276C128.987 565.843 128.335 566.127 127.578 566.127C126.901 566.127 126.344 565.937 125.908 565.556C125.477 565.171 125.261 564.684 125.261 564.096C125.261 563.381 125.532 562.826 126.073 562.433C126.619 562.035 127.385 561.836 128.371 561.836H129.514V561.296C129.514 560.886 129.391 560.56 129.146 560.319C128.9 560.073 128.538 559.951 128.06 559.951C127.641 559.951 127.29 560.056 127.006 560.268C126.723 560.48 126.581 560.736 126.581 561.036H125.4C125.4 560.693 125.521 560.363 125.762 560.046C126.008 559.724 126.338 559.47 126.752 559.284C127.171 559.098 127.631 559.005 128.13 559.005C128.921 559.005 129.541 559.204 129.99 559.602C130.438 559.995 130.671 560.539 130.688 561.233V564.394C130.688 565.025 130.768 565.526 130.929 565.898V566H129.698ZM127.749 565.105C128.117 565.105 128.466 565.01 128.796 564.819C129.126 564.629 129.366 564.381 129.514 564.077V562.667H128.593C127.154 562.667 126.435 563.089 126.435 563.931C126.435 564.299 126.558 564.587 126.803 564.794C127.049 565.001 127.364 565.105 127.749 565.105ZM138.343 562.642C138.343 563.692 138.102 564.536 137.62 565.175C137.137 565.81 136.49 566.127 135.677 566.127C134.81 566.127 134.139 565.82 133.665 565.207L133.608 566H132.529V556.25H133.703V559.887C134.177 559.299 134.831 559.005 135.665 559.005C136.498 559.005 137.152 559.32 137.626 559.951C138.104 560.581 138.343 561.444 138.343 562.541V562.642ZM137.169 562.509C137.169 561.709 137.014 561.091 136.706 560.655C136.397 560.219 135.952 560.001 135.373 560.001C134.598 560.001 134.042 560.361 133.703 561.081V564.051C134.063 564.771 134.624 565.13 135.385 565.13C135.948 565.13 136.386 564.912 136.699 564.477C137.012 564.041 137.169 563.385 137.169 562.509ZM139.518 562.502C139.518 561.83 139.649 561.224 139.911 560.687C140.178 560.15 140.546 559.735 141.016 559.443C141.49 559.151 142.029 559.005 142.634 559.005C143.569 559.005 144.325 559.329 144.9 559.976C145.48 560.624 145.77 561.485 145.77 562.56V562.642C145.77 563.311 145.641 563.912 145.383 564.445C145.129 564.974 144.763 565.386 144.285 565.683C143.811 565.979 143.265 566.127 142.647 566.127C141.716 566.127 140.961 565.803 140.381 565.156C139.805 564.508 139.518 563.651 139.518 562.585V562.502ZM140.698 562.642C140.698 563.404 140.874 564.015 141.225 564.477C141.581 564.938 142.055 565.168 142.647 565.168C143.244 565.168 143.718 564.936 144.069 564.47C144.42 564 144.596 563.345 144.596 562.502C144.596 561.749 144.416 561.14 144.056 560.674C143.701 560.205 143.227 559.97 142.634 559.97C142.055 559.97 141.587 560.2 141.231 560.662C140.876 561.123 140.698 561.783 140.698 562.642ZM151.483 565.321C151.026 565.858 150.355 566.127 149.471 566.127C148.739 566.127 148.18 565.915 147.795 565.492C147.414 565.065 147.222 564.434 147.217 563.601V559.132H148.392V563.569C148.392 564.61 148.815 565.13 149.661 565.13C150.558 565.13 151.155 564.796 151.451 564.127V559.132H152.625V566H151.508L151.483 565.321ZM156.009 557.469V559.132H157.291V560.04H156.009V564.299C156.009 564.574 156.066 564.781 156.18 564.921C156.294 565.056 156.489 565.124 156.764 565.124C156.9 565.124 157.086 565.099 157.323 565.048V566C157.014 566.085 156.713 566.127 156.421 566.127C155.897 566.127 155.501 565.968 155.234 565.651C154.968 565.333 154.834 564.883 154.834 564.299V560.04H153.584V559.132H154.834V557.469H156.009ZM163.486 557.469V559.132H164.769V560.04H163.486V564.299C163.486 564.574 163.543 564.781 163.658 564.921C163.772 565.056 163.967 565.124 164.242 565.124C164.377 565.124 164.563 565.099 164.8 565.048V566C164.491 566.085 164.191 566.127 163.899 566.127C163.374 566.127 162.979 565.968 162.712 565.651C162.445 565.333 162.312 564.883 162.312 564.299V560.04H161.062V559.132H162.312V557.469H163.486ZM165.708 562.502C165.708 561.83 165.839 561.224 166.102 560.687C166.368 560.15 166.736 559.735 167.206 559.443C167.68 559.151 168.22 559.005 168.825 559.005C169.76 559.005 170.515 559.329 171.091 559.976C171.671 560.624 171.96 561.485 171.96 562.56V562.642C171.96 563.311 171.831 563.912 171.573 564.445C171.319 564.974 170.953 565.386 170.475 565.683C170.001 565.979 169.455 566.127 168.837 566.127C167.906 566.127 167.151 565.803 166.571 565.156C165.996 564.508 165.708 563.651 165.708 562.585V562.502ZM166.889 562.642C166.889 563.404 167.064 564.015 167.416 564.477C167.771 564.938 168.245 565.168 168.837 565.168C169.434 565.168 169.908 564.936 170.259 564.47C170.611 564 170.786 563.345 170.786 562.502C170.786 561.749 170.606 561.14 170.247 560.674C169.891 560.205 169.417 559.97 168.825 559.97C168.245 559.97 167.777 560.2 167.422 560.662C167.066 561.123 166.889 561.783 166.889 562.642ZM179.508 566.127C178.577 566.127 177.819 565.822 177.235 565.213C176.651 564.599 176.359 563.78 176.359 562.756V562.541C176.359 561.859 176.488 561.252 176.747 560.719C177.009 560.181 177.373 559.762 177.838 559.462C178.308 559.157 178.816 559.005 179.362 559.005C180.255 559.005 180.949 559.299 181.444 559.887C181.939 560.475 182.187 561.318 182.187 562.414V562.902H177.534C177.551 563.579 177.747 564.127 178.124 564.546C178.505 564.961 178.987 565.168 179.571 565.168C179.986 565.168 180.337 565.084 180.625 564.915C180.913 564.745 181.165 564.521 181.38 564.242L182.098 564.8C181.522 565.685 180.659 566.127 179.508 566.127ZM179.362 559.97C178.888 559.97 178.49 560.143 178.168 560.49C177.847 560.833 177.648 561.315 177.572 561.938H181.012V561.849C180.978 561.252 180.818 560.791 180.53 560.465C180.242 560.135 179.853 559.97 179.362 559.97ZM184.662 559.132L184.7 559.995C185.225 559.335 185.91 559.005 186.757 559.005C188.208 559.005 188.94 559.824 188.953 561.461V566H187.779V561.455C187.775 560.96 187.66 560.594 187.436 560.357C187.216 560.12 186.871 560.001 186.401 560.001C186.021 560.001 185.686 560.103 185.398 560.306C185.111 560.509 184.886 560.776 184.726 561.106V566H183.551V559.132H184.662ZM192.317 557.469V559.132H193.6V560.04H192.317V564.299C192.317 564.574 192.375 564.781 192.489 564.921C192.603 565.056 192.798 565.124 193.073 565.124C193.208 565.124 193.394 565.099 193.631 565.048V566C193.322 566.085 193.022 566.127 192.73 566.127C192.205 566.127 191.81 565.968 191.543 565.651C191.276 565.333 191.143 564.883 191.143 564.299V560.04H189.893V559.132H191.143V557.469H192.317ZM197.827 566.127C196.896 566.127 196.139 565.822 195.555 565.213C194.971 564.599 194.679 563.78 194.679 562.756V562.541C194.679 561.859 194.808 561.252 195.066 560.719C195.328 560.181 195.692 559.762 196.158 559.462C196.627 559.157 197.135 559.005 197.681 559.005C198.574 559.005 199.268 559.299 199.763 559.887C200.258 560.475 200.506 561.318 200.506 562.414V562.902H195.853C195.87 563.579 196.067 564.127 196.443 564.546C196.824 564.961 197.307 565.168 197.891 565.168C198.305 565.168 198.657 565.084 198.944 564.915C199.232 564.745 199.484 564.521 199.7 564.242L200.417 564.8C199.841 565.685 198.978 566.127 197.827 566.127ZM197.681 559.97C197.207 559.97 196.809 560.143 196.488 560.49C196.166 560.833 195.967 561.315 195.891 561.938H199.332V561.849C199.298 561.252 199.137 560.791 198.849 560.465C198.561 560.135 198.172 559.97 197.681 559.97ZM205.19 560.186C205.013 560.156 204.82 560.141 204.613 560.141C203.843 560.141 203.32 560.469 203.045 561.125V566H201.871V559.132H203.013L203.032 559.925C203.417 559.312 203.963 559.005 204.67 559.005C204.898 559.005 205.072 559.035 205.19 559.094V560.186ZM213.741 566C213.673 565.865 213.618 565.623 213.576 565.276C213.03 565.843 212.378 566.127 211.621 566.127C210.944 566.127 210.387 565.937 209.951 565.556C209.52 565.171 209.304 564.684 209.304 564.096C209.304 563.381 209.575 562.826 210.116 562.433C210.662 562.035 211.428 561.836 212.414 561.836H213.557V561.296C213.557 560.886 213.434 560.56 213.188 560.319C212.943 560.073 212.581 559.951 212.103 559.951C211.684 559.951 211.333 560.056 211.049 560.268C210.766 560.48 210.624 560.736 210.624 561.036H209.443C209.443 560.693 209.564 560.363 209.805 560.046C210.051 559.724 210.381 559.47 210.795 559.284C211.214 559.098 211.674 559.005 212.173 559.005C212.964 559.005 213.584 559.204 214.033 559.602C214.481 559.995 214.714 560.539 214.731 561.233V564.394C214.731 565.025 214.811 565.526 214.972 565.898V566H213.741ZM211.792 565.105C212.16 565.105 212.509 565.01 212.839 564.819C213.169 564.629 213.409 564.381 213.557 564.077V562.667H212.636C211.197 562.667 210.478 563.089 210.478 563.931C210.478 564.299 210.601 564.587 210.846 564.794C211.092 565.001 211.407 565.105 211.792 565.105ZM225.611 562.642C225.611 563.692 225.37 564.536 224.887 565.175C224.405 565.81 223.757 566.127 222.945 566.127C222.077 566.127 221.407 565.82 220.933 565.207L220.875 566H219.796V556.25H220.971V559.887C221.445 559.299 222.098 559.005 222.932 559.005C223.766 559.005 224.42 559.32 224.894 559.951C225.372 560.581 225.611 561.444 225.611 562.541V562.642ZM224.437 562.509C224.437 561.709 224.282 561.091 223.973 560.655C223.664 560.219 223.22 560.001 222.64 560.001C221.866 560.001 221.309 560.361 220.971 561.081V564.051C221.33 564.771 221.891 565.13 222.653 565.13C223.216 565.13 223.654 564.912 223.967 564.477C224.28 564.041 224.437 563.385 224.437 562.509ZM230.416 560.186C230.238 560.156 230.046 560.141 229.838 560.141C229.068 560.141 228.546 560.469 228.271 561.125V566H227.096V559.132H228.239L228.258 559.925C228.643 559.312 229.189 559.005 229.896 559.005C230.124 559.005 230.298 559.035 230.416 559.094V560.186ZM235.488 566C235.42 565.865 235.365 565.623 235.323 565.276C234.777 565.843 234.125 566.127 233.368 566.127C232.691 566.127 232.134 565.937 231.698 565.556C231.267 565.171 231.051 564.684 231.051 564.096C231.051 563.381 231.322 562.826 231.863 562.433C232.409 562.035 233.175 561.836 234.161 561.836H235.304V561.296C235.304 560.886 235.181 560.56 234.936 560.319C234.69 560.073 234.328 559.951 233.85 559.951C233.431 559.951 233.08 560.056 232.796 560.268C232.513 560.48 232.371 560.736 232.371 561.036H231.19C231.19 560.693 231.311 560.363 231.552 560.046C231.798 559.724 232.128 559.47 232.542 559.284C232.961 559.098 233.421 559.005 233.92 559.005C234.711 559.005 235.331 559.204 235.78 559.602C236.228 559.995 236.461 560.539 236.478 561.233V564.394C236.478 565.025 236.558 565.526 236.719 565.898V566H235.488ZM233.539 565.105C233.907 565.105 234.256 565.01 234.586 564.819C234.917 564.629 235.156 564.381 235.304 564.077V562.667H234.383C232.944 562.667 232.225 563.089 232.225 563.931C232.225 564.299 232.348 564.587 232.593 564.794C232.839 565.001 233.154 565.105 233.539 565.105ZM239.43 559.132L239.468 559.995C239.993 559.335 240.678 559.005 241.524 559.005C242.976 559.005 243.708 559.824 243.721 561.461V566H242.546V561.455C242.542 560.96 242.428 560.594 242.204 560.357C241.984 560.12 241.639 560.001 241.169 560.001C240.788 560.001 240.454 560.103 240.166 560.306C239.878 560.509 239.654 560.776 239.493 561.106V566H238.319V559.132H239.43ZM245.206 562.509C245.206 561.455 245.456 560.609 245.955 559.97C246.454 559.326 247.108 559.005 247.917 559.005C248.721 559.005 249.357 559.28 249.827 559.83V556.25H251.001V566H249.922L249.865 565.264C249.396 565.839 248.742 566.127 247.904 566.127C247.108 566.127 246.459 565.801 245.955 565.149C245.456 564.498 245.206 563.647 245.206 562.598V562.509ZM246.38 562.642C246.38 563.421 246.541 564.03 246.863 564.47C247.184 564.91 247.629 565.13 248.196 565.13C248.941 565.13 249.484 564.796 249.827 564.127V560.973C249.476 560.325 248.936 560.001 248.208 560.001C247.633 560.001 247.184 560.224 246.863 560.668C246.541 561.112 246.38 561.77 246.38 562.642ZM257.165 559.132L257.203 559.995C257.728 559.335 258.413 559.005 259.26 559.005C260.711 559.005 261.443 559.824 261.456 561.461V566H260.282V561.455C260.278 560.96 260.163 560.594 259.939 560.357C259.719 560.12 259.374 560.001 258.904 560.001C258.523 560.001 258.189 560.103 257.901 560.306C257.614 560.509 257.389 560.776 257.229 561.106V566H256.054V559.132H257.165ZM266.077 566.127C265.146 566.127 264.389 565.822 263.805 565.213C263.221 564.599 262.929 563.78 262.929 562.756V562.541C262.929 561.859 263.058 561.252 263.316 560.719C263.578 560.181 263.942 559.762 264.408 559.462C264.877 559.157 265.385 559.005 265.931 559.005C266.824 559.005 267.518 559.299 268.013 559.887C268.508 560.475 268.756 561.318 268.756 562.414V562.902H264.103C264.12 563.579 264.317 564.127 264.693 564.546C265.074 564.961 265.557 565.168 266.141 565.168C266.555 565.168 266.907 565.084 267.194 564.915C267.482 564.745 267.734 564.521 267.95 564.242L268.667 564.8C268.091 565.685 267.228 566.127 266.077 566.127ZM265.931 559.97C265.457 559.97 265.059 560.143 264.738 560.49C264.416 560.833 264.217 561.315 264.141 561.938H267.582V561.849C267.548 561.252 267.387 560.791 267.099 560.465C266.811 560.135 266.422 559.97 265.931 559.97ZM276.202 564.381L277.522 559.132H278.696L276.697 566H275.745L274.075 560.795L272.45 566H271.498L269.505 559.132H270.673L272.025 564.273L273.625 559.132H274.57L276.202 564.381ZM285.971 566.127C285.04 566.127 284.282 565.822 283.698 565.213C283.114 564.599 282.822 563.78 282.822 562.756V562.541C282.822 561.859 282.951 561.252 283.209 560.719C283.472 560.181 283.836 559.762 284.301 559.462C284.771 559.157 285.279 559.005 285.825 559.005C286.718 559.005 287.412 559.299 287.907 559.887C288.402 560.475 288.649 561.318 288.649 562.414V562.902H283.997C284.014 563.579 284.21 564.127 284.587 564.546C284.968 564.961 285.45 565.168 286.034 565.168C286.449 565.168 286.8 565.084 287.088 564.915C287.376 564.745 287.627 564.521 287.843 564.242L288.561 564.8C287.985 565.685 287.122 566.127 285.971 566.127ZM285.825 559.97C285.351 559.97 284.953 560.143 284.631 560.49C284.31 560.833 284.111 561.315 284.035 561.938H287.475V561.849C287.441 561.252 287.28 560.791 286.993 560.465C286.705 560.135 286.316 559.97 285.825 559.97ZM292.318 561.639L293.842 559.132H295.213L292.966 562.528L295.283 566H293.924L292.337 563.429L290.75 566H289.386L291.703 562.528L289.456 559.132H290.814L292.318 561.639ZM302.265 562.642C302.265 563.687 302.026 564.529 301.548 565.168C301.07 565.807 300.422 566.127 299.605 566.127C298.772 566.127 298.116 565.862 297.638 565.333V568.641H296.463V559.132H297.536L297.593 559.894C298.071 559.301 298.736 559.005 299.586 559.005C300.412 559.005 301.063 559.316 301.542 559.938C302.024 560.56 302.265 561.425 302.265 562.534V562.642ZM301.091 562.509C301.091 561.734 300.926 561.123 300.596 560.674C300.266 560.226 299.813 560.001 299.237 560.001C298.526 560.001 297.993 560.317 297.638 560.947V564.229C297.989 564.855 298.526 565.168 299.25 565.168C299.813 565.168 300.259 564.946 300.589 564.502C300.924 564.053 301.091 563.389 301.091 562.509ZM306.613 566.127C305.682 566.127 304.925 565.822 304.341 565.213C303.757 564.599 303.465 563.78 303.465 562.756V562.541C303.465 561.859 303.594 561.252 303.852 560.719C304.114 560.181 304.478 559.762 304.944 559.462C305.414 559.157 305.921 559.005 306.467 559.005C307.36 559.005 308.054 559.299 308.549 559.887C309.044 560.475 309.292 561.318 309.292 562.414V562.902H304.639C304.656 563.579 304.853 564.127 305.229 564.546C305.61 564.961 306.093 565.168 306.677 565.168C307.091 565.168 307.443 565.084 307.73 564.915C308.018 564.745 308.27 564.521 308.486 564.242L309.203 564.8C308.628 565.685 307.764 566.127 306.613 566.127ZM306.467 559.97C305.993 559.97 305.596 560.143 305.274 560.49C304.952 560.833 304.753 561.315 304.677 561.938H308.118V561.849C308.084 561.252 307.923 560.791 307.635 560.465C307.347 560.135 306.958 559.97 306.467 559.97ZM313.977 560.186C313.799 560.156 313.606 560.141 313.399 560.141C312.629 560.141 312.106 560.469 311.831 561.125V566H310.657V559.132H311.799L311.818 559.925C312.203 559.312 312.749 559.005 313.456 559.005C313.685 559.005 313.858 559.035 313.977 559.094V560.186ZM316.338 566H315.164V559.132H316.338V566ZM315.068 557.31C315.068 557.12 315.125 556.959 315.24 556.828C315.358 556.696 315.532 556.631 315.76 556.631C315.989 556.631 316.162 556.696 316.281 556.828C316.399 556.959 316.458 557.12 316.458 557.31C316.458 557.5 316.399 557.659 316.281 557.786C316.162 557.913 315.989 557.977 315.76 557.977C315.532 557.977 315.358 557.913 315.24 557.786C315.125 557.659 315.068 557.5 315.068 557.31ZM321.073 566.127C320.142 566.127 319.385 565.822 318.801 565.213C318.217 564.599 317.925 563.78 317.925 562.756V562.541C317.925 561.859 318.054 561.252 318.312 560.719C318.574 560.181 318.938 559.762 319.404 559.462C319.874 559.157 320.381 559.005 320.927 559.005C321.82 559.005 322.514 559.299 323.009 559.887C323.504 560.475 323.752 561.318 323.752 562.414V562.902H319.099C319.116 563.579 319.313 564.127 319.689 564.546C320.07 564.961 320.553 565.168 321.137 565.168C321.551 565.168 321.903 565.084 322.19 564.915C322.478 564.745 322.73 564.521 322.946 564.242L323.663 564.8C323.088 565.685 322.224 566.127 321.073 566.127ZM320.927 559.97C320.453 559.97 320.056 560.143 319.734 560.49C319.412 560.833 319.213 561.315 319.137 561.938H322.578V561.849C322.544 561.252 322.383 560.791 322.095 560.465C321.807 560.135 321.418 559.97 320.927 559.97ZM326.228 559.132L326.266 559.995C326.79 559.335 327.476 559.005 328.322 559.005C329.774 559.005 330.506 559.824 330.519 561.461V566H329.344V561.455C329.34 560.96 329.226 560.594 329.001 560.357C328.781 560.12 328.437 560.001 327.967 560.001C327.586 560.001 327.252 560.103 326.964 560.306C326.676 560.509 326.452 560.776 326.291 561.106V566H325.117V559.132H326.228ZM335.044 565.168C335.463 565.168 335.829 565.042 336.143 564.788C336.456 564.534 336.629 564.216 336.663 563.835H337.774C337.753 564.229 337.617 564.604 337.368 564.959C337.118 565.314 336.784 565.598 336.365 565.81C335.95 566.021 335.51 566.127 335.044 566.127C334.109 566.127 333.364 565.816 332.81 565.194C332.26 564.568 331.985 563.713 331.985 562.629V562.433C331.985 561.764 332.108 561.169 332.353 560.649C332.598 560.128 332.95 559.724 333.407 559.437C333.868 559.149 334.412 559.005 335.038 559.005C335.808 559.005 336.447 559.236 336.955 559.697C337.467 560.158 337.74 560.757 337.774 561.493H336.663C336.629 561.049 336.46 560.685 336.155 560.401C335.855 560.114 335.482 559.97 335.038 559.97C334.441 559.97 333.978 560.186 333.648 560.617C333.322 561.045 333.159 561.665 333.159 562.477V562.699C333.159 563.491 333.322 564.1 333.648 564.527C333.974 564.955 334.439 565.168 335.044 565.168ZM341.944 566.127C341.013 566.127 340.256 565.822 339.672 565.213C339.088 564.599 338.796 563.78 338.796 562.756V562.541C338.796 561.859 338.925 561.252 339.183 560.719C339.445 560.181 339.809 559.762 340.275 559.462C340.745 559.157 341.252 559.005 341.798 559.005C342.691 559.005 343.385 559.299 343.88 559.887C344.375 560.475 344.623 561.318 344.623 562.414V562.902H339.97C339.987 563.579 340.184 564.127 340.561 564.546C340.941 564.961 341.424 565.168 342.008 565.168C342.423 565.168 342.774 565.084 343.062 564.915C343.349 564.745 343.601 564.521 343.817 564.242L344.534 564.8C343.959 565.685 343.095 566.127 341.944 566.127ZM341.798 559.97C341.324 559.97 340.927 560.143 340.605 560.49C340.283 560.833 340.084 561.315 340.008 561.938H343.449V561.849C343.415 561.252 343.254 560.791 342.966 560.465C342.679 560.135 342.289 559.97 341.798 559.97Z" fill="#716969"/>
<rect x="60" y="629" width="295" height="74" rx="9" fill="#001AFF"/>
<g clip-path="url(#clip0_2_2)">
<path d="M344.906 153.365H342.938V97.395C342.938 88.8033 339.651 80.5635 333.799 74.4883C327.948 68.413 320.012 65 311.737 65H197.523C193.426 65 189.369 65.8379 185.583 67.4659C181.798 69.0939 178.358 71.4801 175.461 74.4883C172.564 77.4964 170.265 81.0676 168.697 84.998C167.129 88.9283 166.322 93.1409 166.322 97.395V404.455C166.322 413.046 169.609 421.286 175.461 427.361C181.312 433.437 189.248 436.85 197.523 436.85H311.737C320.012 436.85 327.948 433.436 333.799 427.361C339.65 421.286 342.938 413.046 342.938 404.455V193.205H344.905L344.906 153.365Z" fill="#E6E6E6"/>
<path d="M312.996 73.4249H298.088C298.774 75.1702 299.036 77.0638 298.85 78.9388C298.665 80.8139 298.038 82.6128 297.026 84.1772C296.013 85.7415 294.645 87.0233 293.043 87.9095C291.441 88.7958 289.653 89.2593 287.838 89.2592H222.406C220.591 89.2591 218.803 88.7955 217.201 87.9092C215.599 87.0229 214.232 85.7411 213.219 84.1768C212.206 82.6124 211.58 80.8135 211.395 78.9386C211.209 77.0636 211.471 75.1701 212.157 73.4249H198.232C192.052 73.4249 186.126 75.9737 181.756 80.5107C177.386 85.0476 174.931 91.201 174.931 97.6172V404.231C174.931 410.647 177.386 416.801 181.756 421.337C186.126 425.874 192.052 428.423 198.232 428.423H312.996C319.176 428.423 325.102 425.874 329.472 421.337C333.842 416.801 336.297 410.647 336.297 404.231V97.6167C336.296 91.2006 333.841 85.0473 329.472 80.5105C325.102 75.9737 319.175 73.4249 312.996 73.4249Z" fill="white"/>
<path d="M220.9 144.943C220.278 144.949 219.662 144.818 219.092 144.561C218.522 144.303 218.01 143.924 217.59 143.447C217.092 142.849 216.719 142.15 216.494 141.395C216.268 140.64 216.196 139.844 216.281 139.059C216.399 137.562 217.003 136.152 217.994 135.058C218.47 134.524 219.046 134.096 219.687 133.802C220.328 133.507 221.02 133.351 221.72 133.344C222.372 133.341 223.017 133.48 223.613 133.753C224.209 134.026 224.744 134.426 225.181 134.928C225.678 135.51 226.052 136.193 226.282 136.933C226.511 137.673 226.59 138.455 226.514 139.228C226.422 140.816 225.762 142.311 224.664 143.42C223.643 144.408 222.296 144.953 220.9 144.943ZM221.72 135.277C219.898 135.277 218.323 137.013 218.135 139.228C218.073 139.747 218.115 140.273 218.257 140.774C218.4 141.276 218.64 141.741 218.964 142.141C219.208 142.421 219.508 142.643 219.841 142.793C220.175 142.942 220.536 143.016 220.9 143.01C222.604 143.01 224.427 141.788 224.659 139.058C224.713 138.552 224.665 138.04 224.518 137.553C224.372 137.067 224.13 136.618 223.808 136.233C223.544 135.931 223.222 135.689 222.862 135.524C222.503 135.36 222.113 135.275 221.72 135.277Z" fill="#3F3D56"/>
<path d="M220.96 150.743C219.52 150.767 218.091 150.473 216.769 149.88C215.446 149.288 214.26 148.41 213.29 147.305C212.319 146.2 211.585 144.893 211.138 143.472C210.691 142.05 210.54 140.546 210.695 139.059C211 135.938 212.397 133.042 214.622 130.92C216.847 128.797 219.745 127.596 222.765 127.544C226.117 127.544 228.875 128.662 230.741 130.778C232.51 132.784 233.338 135.607 233.073 138.729C232.823 141.686 231.614 143.226 230.645 143.997C230.217 144.359 229.722 144.627 229.191 144.785C228.661 144.943 228.104 144.988 227.556 144.916C226.024 144.634 224.329 143.189 224.595 140.043L225.089 134.229C225.112 133.974 225.231 133.74 225.42 133.576C225.609 133.412 225.852 133.333 226.098 133.355C226.343 133.378 226.569 133.5 226.728 133.696C226.886 133.891 226.964 134.144 226.944 134.398L226.45 140.213C226.318 141.777 226.853 142.823 227.881 143.013C228.474 143.06 229.06 142.862 229.513 142.462C230.185 141.927 231.027 140.816 231.219 138.559C231.44 135.947 230.8 133.708 229.368 132.083C227.864 130.379 225.581 129.478 222.765 129.478C220.21 129.528 217.76 130.547 215.878 132.343C213.997 134.139 212.813 136.588 212.55 139.228C212.417 140.448 212.537 141.683 212.901 142.85C213.266 144.018 213.866 145.092 214.662 145.999C215.459 146.906 216.433 147.626 217.519 148.111C218.605 148.596 219.778 148.834 220.96 148.809C222.419 148.891 223.875 148.617 225.213 148.009C225.44 147.911 225.696 147.91 225.924 148.007C226.151 148.105 226.333 148.291 226.428 148.527C226.524 148.763 226.525 149.028 226.433 149.265C226.34 149.502 226.161 149.691 225.934 149.791C224.368 150.499 222.667 150.824 220.96 150.743Z" fill="#3F3D56"/>
<path d="M211.131 288.905C210.947 288.905 210.767 288.848 210.614 288.742C210.461 288.636 210.341 288.485 210.271 288.308C210.2 288.131 210.182 287.937 210.218 287.75C210.254 287.562 210.342 287.39 210.473 287.255L216.524 280.972C216.699 280.793 216.935 280.693 217.181 280.694C217.426 280.695 217.662 280.796 217.836 280.977C218.009 281.157 218.107 281.402 218.108 281.657C218.109 281.912 218.013 282.157 217.84 282.339L211.789 288.622C211.703 288.711 211.6 288.783 211.487 288.831C211.374 288.88 211.253 288.905 211.131 288.905ZM226.492 286.488C226.308 286.488 226.128 286.431 225.975 286.325C225.822 286.219 225.702 286.068 225.632 285.891C225.561 285.715 225.543 285.521 225.579 285.333C225.615 285.146 225.703 284.973 225.834 284.838L230.954 279.522C231.129 279.343 231.365 279.243 231.611 279.244C231.856 279.245 232.092 279.346 232.266 279.527C232.439 279.707 232.537 279.952 232.538 280.207C232.539 280.462 232.443 280.707 232.27 280.889L227.15 286.205C227.064 286.295 226.961 286.366 226.848 286.415C226.735 286.463 226.614 286.488 226.492 286.488ZM223.699 286.488C223.577 286.488 223.456 286.463 223.343 286.415C223.23 286.366 223.127 286.295 223.041 286.205L219.317 282.339C219.229 282.249 219.16 282.143 219.112 282.025C219.065 281.907 219.04 281.781 219.039 281.654C219.039 281.526 219.063 281.4 219.11 281.282C219.156 281.164 219.225 281.057 219.312 280.967C219.399 280.877 219.502 280.805 219.616 280.757C219.729 280.708 219.851 280.683 219.974 280.684C220.097 280.684 220.218 280.71 220.331 280.759C220.444 280.809 220.547 280.881 220.633 280.972L224.357 284.838C224.487 284.973 224.576 285.146 224.612 285.333C224.648 285.521 224.629 285.715 224.559 285.891C224.489 286.068 224.369 286.219 224.216 286.325C224.063 286.431 223.883 286.488 223.699 286.488Z" fill="#3F3D56"/>
<path d="M233.009 281.172C232.548 281.172 232.098 281.03 231.716 280.765C231.333 280.499 231.035 280.122 230.858 279.68C230.682 279.239 230.636 278.753 230.726 278.284C230.816 277.815 231.037 277.385 231.363 277.047C231.688 276.709 232.103 276.479 232.555 276.385C233.006 276.292 233.474 276.34 233.899 276.523C234.325 276.706 234.688 277.016 234.944 277.413C235.2 277.81 235.336 278.278 235.336 278.755C235.335 279.396 235.09 280.01 234.654 280.463C234.217 280.916 233.626 281.171 233.009 281.172ZM233.009 278.272C232.917 278.272 232.827 278.301 232.75 278.354C232.673 278.407 232.614 278.482 232.579 278.571C232.543 278.659 232.534 278.756 232.552 278.85C232.57 278.944 232.614 279.03 232.679 279.097C232.745 279.165 232.828 279.211 232.918 279.229C233.008 279.248 233.102 279.239 233.187 279.202C233.272 279.165 233.345 279.103 233.396 279.024C233.447 278.944 233.474 278.851 233.474 278.755C233.474 278.627 233.425 278.504 233.338 278.414C233.25 278.323 233.132 278.272 233.009 278.272Z" fill="#3F3D56"/>
<path d="M225.095 289.388C224.635 289.388 224.185 289.246 223.802 288.981C223.42 288.715 223.121 288.338 222.945 287.896C222.769 287.455 222.723 286.969 222.813 286.5C222.902 286.031 223.124 285.601 223.45 285.263C223.775 284.925 224.19 284.695 224.641 284.601C225.093 284.508 225.561 284.556 225.986 284.739C226.411 284.922 226.775 285.232 227.031 285.629C227.286 286.026 227.423 286.494 227.423 286.971C227.422 287.612 227.177 288.226 226.74 288.679C226.304 289.132 225.712 289.387 225.095 289.388ZM225.095 286.488C225.003 286.488 224.913 286.517 224.837 286.57C224.76 286.623 224.701 286.698 224.665 286.787C224.63 286.875 224.621 286.972 224.639 287.066C224.657 287.16 224.701 287.246 224.766 287.313C224.831 287.381 224.914 287.427 225.005 287.445C225.095 287.464 225.188 287.455 225.274 287.418C225.359 287.381 225.431 287.319 225.482 287.24C225.534 287.161 225.561 287.067 225.561 286.971C225.561 286.843 225.512 286.721 225.424 286.63C225.337 286.539 225.219 286.488 225.095 286.488Z" fill="#3F3D56"/>
<path d="M218.579 282.622C218.118 282.622 217.668 282.48 217.286 282.215C216.903 281.949 216.604 281.572 216.428 281.13C216.252 280.689 216.206 280.203 216.296 279.734C216.386 279.265 216.607 278.835 216.933 278.497C217.258 278.159 217.673 277.929 218.125 277.835C218.576 277.742 219.044 277.79 219.469 277.973C219.895 278.156 220.258 278.465 220.514 278.863C220.77 279.26 220.906 279.727 220.906 280.205C220.905 280.846 220.66 281.46 220.224 281.913C219.787 282.366 219.196 282.621 218.579 282.622ZM218.579 279.722C218.487 279.722 218.397 279.75 218.32 279.803C218.243 279.857 218.184 279.932 218.149 280.02C218.113 280.109 218.104 280.206 218.122 280.3C218.14 280.393 218.184 280.479 218.249 280.547C218.315 280.615 218.397 280.661 218.488 280.679C218.578 280.698 218.672 280.688 218.757 280.652C218.842 280.615 218.914 280.553 218.966 280.474C219.017 280.394 219.044 280.301 219.044 280.205C219.044 280.077 218.995 279.954 218.908 279.864C218.82 279.773 218.702 279.722 218.579 279.722Z" fill="#3F3D56"/>
<path d="M209.734 291.804C209.274 291.804 208.824 291.663 208.441 291.397C208.059 291.132 207.76 290.754 207.584 290.313C207.408 289.871 207.362 289.385 207.452 288.917C207.541 288.448 207.763 288.017 208.089 287.679C208.414 287.341 208.829 287.111 209.28 287.018C209.732 286.925 210.2 286.973 210.625 287.155C211.05 287.338 211.414 287.648 211.67 288.045C211.925 288.443 212.062 288.91 212.062 289.388C212.061 290.029 211.816 290.643 211.379 291.096C210.943 291.549 210.351 291.804 209.734 291.804ZM209.734 288.905C209.642 288.905 209.552 288.933 209.476 288.986C209.399 289.039 209.34 289.115 209.304 289.203C209.269 289.291 209.26 289.388 209.278 289.482C209.296 289.576 209.34 289.662 209.405 289.73C209.47 289.797 209.553 289.843 209.644 289.862C209.734 289.881 209.827 289.871 209.912 289.834C209.998 289.798 210.07 289.736 210.121 289.656C210.173 289.577 210.2 289.484 210.2 289.388C210.2 289.26 210.151 289.137 210.063 289.046C209.976 288.956 209.858 288.905 209.734 288.905Z" fill="#3F3D56"/>
<path d="M298.087 366.344H278.537C277.673 366.343 276.844 365.986 276.234 365.352C275.623 364.718 275.279 363.858 275.278 362.961V348.462C275.279 347.565 275.623 346.705 276.234 346.071C276.844 345.437 277.673 345.08 278.537 345.079H298.087C298.951 345.08 299.779 345.437 300.39 346.071C301.001 346.705 301.344 347.565 301.345 348.462V362.961C301.344 363.858 301.001 364.718 300.39 365.352C299.779 365.986 298.951 366.343 298.087 366.344ZM278.537 347.012C278.166 347.013 277.811 347.166 277.55 347.438C277.288 347.709 277.14 348.078 277.14 348.462V362.961C277.14 363.346 277.288 363.714 277.55 363.986C277.811 364.258 278.166 364.411 278.537 364.411H298.087C298.457 364.411 298.812 364.258 299.074 363.986C299.336 363.714 299.483 363.346 299.483 362.961V348.462C299.483 348.078 299.336 347.709 299.074 347.438C298.812 347.166 298.457 347.013 298.087 347.012L278.537 347.012Z" fill="#3F3D56"/>
<path d="M288.312 357.645C288.105 357.645 287.904 357.573 287.74 357.441L279.362 350.675C279.265 350.597 279.184 350.5 279.124 350.39C279.063 350.28 279.024 350.158 279.009 350.032C278.994 349.906 279.003 349.778 279.035 349.656C279.068 349.533 279.123 349.419 279.198 349.319C279.273 349.219 279.367 349.135 279.473 349.072C279.579 349.009 279.696 348.969 279.818 348.953C279.939 348.937 280.062 348.947 280.18 348.98C280.298 349.014 280.408 349.071 280.505 349.149L288.312 355.454L296.119 349.149C296.215 349.071 296.326 349.014 296.444 348.98C296.562 348.947 296.685 348.937 296.806 348.953C296.927 348.969 297.044 349.009 297.151 349.072C297.257 349.135 297.35 349.219 297.425 349.319C297.5 349.419 297.556 349.533 297.588 349.656C297.621 349.778 297.629 349.906 297.614 350.032C297.599 350.158 297.56 350.28 297.5 350.39C297.439 350.5 297.359 350.597 297.262 350.675L288.883 357.441C288.72 357.573 288.519 357.645 288.312 357.645Z" fill="#3F3D56"/>
<path d="M393.318 379.726L285.626 379.77C285.489 379.77 285.358 379.714 285.262 379.613C285.165 379.513 285.111 379.377 285.111 379.235C285.111 379.094 285.165 378.958 285.262 378.857C285.358 378.757 285.489 378.701 285.626 378.701L393.318 378.656C393.454 378.656 393.585 378.713 393.682 378.813C393.779 378.913 393.833 379.049 393.833 379.191C393.833 379.333 393.779 379.469 393.682 379.569C393.585 379.669 393.454 379.726 393.318 379.726Z" fill="#CCCCCC"/>
<path d="M391.885 386.676C395.866 386.676 399.094 383.325 399.094 379.191C399.094 375.057 395.866 371.706 391.885 371.706C387.903 371.706 384.676 375.057 384.676 379.191C384.676 383.325 387.903 386.676 391.885 386.676Z" fill="#001AFF"/>
<path d="M390.743 236.446L282.021 236.49C281.885 236.49 281.754 236.434 281.657 236.333C281.561 236.233 281.506 236.097 281.506 235.955C281.506 235.813 281.561 235.677 281.657 235.577C281.754 235.477 281.885 235.421 282.021 235.421L390.743 235.376C390.88 235.376 391.011 235.433 391.107 235.533C391.204 235.633 391.258 235.769 391.258 235.911C391.258 236.053 391.204 236.189 391.107 236.289C391.011 236.389 390.88 236.446 390.743 236.446Z" fill="#CCCCCC"/>
<path d="M391.885 243.93C395.866 243.93 399.094 240.579 399.094 236.446C399.094 232.312 395.866 228.961 391.885 228.961C387.903 228.961 384.676 232.312 384.676 236.446C384.676 240.579 387.903 243.93 391.885 243.93Z" fill="#001AFF"/>
<path d="M112.392 163.202L221.114 163.246C221.25 163.246 221.381 163.19 221.478 163.089C221.574 162.989 221.628 162.853 221.628 162.711C221.628 162.57 221.574 162.434 221.478 162.333C221.381 162.233 221.25 162.177 221.114 162.177L112.392 162.132C112.255 162.132 112.124 162.189 112.027 162.289C111.931 162.389 111.877 162.525 111.877 162.667C111.877 162.809 111.931 162.945 112.027 163.045C112.124 163.145 112.255 163.202 112.392 163.202Z" fill="#CCCCCC"/>
<path d="M111.25 170.686C115.232 170.686 118.459 167.335 118.459 163.202C118.459 159.068 115.232 155.717 111.25 155.717C107.269 155.717 104.041 159.068 104.041 163.202C104.041 167.335 107.269 170.686 111.25 170.686Z" fill="#001AFF"/>
<path d="M112.392 308.086L221.114 308.13C221.25 308.13 221.381 308.074 221.478 307.973C221.574 307.873 221.628 307.737 221.628 307.595C221.628 307.454 221.574 307.318 221.478 307.217C221.381 307.117 221.25 307.061 221.114 307.061L112.392 307.016C112.255 307.016 112.124 307.073 112.027 307.173C111.931 307.273 111.877 307.409 111.877 307.551C111.877 307.693 111.931 307.829 112.027 307.929C112.124 308.029 112.255 308.086 112.392 308.086Z" fill="#CCCCCC"/>
<path d="M111.25 315.57C115.232 315.57 118.459 312.219 118.459 308.086C118.459 303.952 115.232 300.601 111.25 300.601C107.269 300.601 104.041 303.952 104.041 308.086C104.041 312.219 107.269 315.57 111.25 315.57Z" fill="#001AFF"/>
<path d="M288.312 379.77C283.729 379.77 279.249 378.359 275.438 375.715C271.628 373.072 268.658 369.314 266.904 364.918C265.15 360.522 264.691 355.685 265.585 351.018C266.479 346.351 268.686 342.065 271.927 338.7C275.168 335.335 279.296 333.044 283.791 332.116C288.286 331.188 292.945 331.664 297.179 333.485C301.413 335.306 305.032 338.389 307.578 342.346C310.124 346.302 311.483 350.953 311.483 355.712C311.476 362.09 309.033 368.205 304.689 372.715C300.345 377.226 294.455 379.763 288.312 379.77ZM288.312 332.723C283.933 332.723 279.652 334.071 276.01 336.597C272.369 339.123 269.531 342.714 267.855 346.914C266.18 351.115 265.741 355.737 266.595 360.197C267.45 364.656 269.559 368.752 272.655 371.967C275.752 375.182 279.697 377.372 283.992 378.259C288.287 379.146 292.739 378.691 296.785 376.951C300.831 375.211 304.289 372.264 306.722 368.484C309.155 364.703 310.454 360.259 310.454 355.712C310.447 349.617 308.112 343.773 303.961 339.464C299.81 335.154 294.182 332.73 288.312 332.723Z" fill="#CCCCCC"/>
<path d="M221.371 308.13C216.789 308.13 212.309 306.719 208.498 304.075C204.687 301.432 201.717 297.674 199.964 293.278C198.21 288.882 197.751 284.045 198.645 279.378C199.539 274.711 201.746 270.425 204.987 267.06C208.227 263.695 212.356 261.404 216.851 260.476C221.346 259.547 226.005 260.024 230.239 261.845C234.473 263.666 238.092 266.749 240.638 270.706C243.184 274.662 244.543 279.313 244.543 284.072C244.536 290.45 242.093 296.565 237.749 301.075C233.405 305.586 227.515 308.123 221.371 308.13ZM221.371 261.083C216.992 261.083 212.711 262.431 209.07 264.957C205.429 267.483 202.591 271.074 200.915 275.274C199.239 279.475 198.801 284.097 199.655 288.557C200.509 293.016 202.618 297.112 205.715 300.327C208.811 303.542 212.757 305.732 217.052 306.619C221.347 307.506 225.799 307.051 229.845 305.311C233.891 303.571 237.349 300.624 239.782 296.844C242.215 293.063 243.513 288.618 243.513 284.072C243.507 277.977 241.172 272.133 237.021 267.824C232.87 263.514 227.242 261.09 221.371 261.083Z" fill="#CCCCCC"/>
<path d="M283.677 236.49C279.095 236.49 274.615 235.079 270.804 232.435C266.993 229.792 264.023 226.034 262.27 221.638C260.516 217.242 260.057 212.405 260.951 207.738C261.845 203.071 264.052 198.785 267.293 195.42C270.533 192.055 274.662 189.764 279.157 188.836C283.652 187.907 288.311 188.384 292.545 190.205C296.779 192.026 300.398 195.109 302.944 199.066C305.49 203.022 306.849 207.673 306.849 212.432C306.842 218.81 304.399 224.925 300.055 229.435C295.711 233.946 289.821 236.483 283.677 236.49ZM283.677 189.443C279.298 189.443 275.017 190.791 271.376 193.317C267.735 195.843 264.897 199.433 263.221 203.634C261.545 207.835 261.107 212.457 261.961 216.917C262.815 221.376 264.924 225.472 268.021 228.687C271.117 231.902 275.063 234.092 279.358 234.979C283.653 235.866 288.105 235.411 292.151 233.671C296.197 231.931 299.655 228.984 302.088 225.204C304.521 221.423 305.819 216.978 305.819 212.432C305.813 206.337 303.478 200.493 299.327 196.184C295.176 191.874 289.548 189.45 283.677 189.443Z" fill="#CCCCCC"/>
<path d="M221.886 163.202C217.303 163.202 212.823 161.791 209.013 159.147C205.202 156.504 202.232 152.746 200.479 148.35C198.725 143.954 198.266 139.117 199.16 134.45C200.054 129.783 202.261 125.496 205.502 122.132C208.742 118.767 212.871 116.476 217.366 115.547C221.861 114.619 226.52 115.096 230.754 116.917C234.988 118.737 238.607 121.821 241.153 125.777C243.699 129.734 245.058 134.385 245.058 139.143C245.051 145.522 242.608 151.637 238.264 156.147C233.92 160.657 228.03 163.194 221.886 163.202ZM221.886 116.154C217.507 116.154 213.226 117.503 209.585 120.029C205.944 122.555 203.106 126.145 201.43 130.346C199.754 134.547 199.316 139.169 200.17 143.628C201.024 148.088 203.133 152.184 206.23 155.399C209.326 158.614 213.272 160.804 217.567 161.691C221.862 162.578 226.314 162.122 230.36 160.382C234.406 158.642 237.864 155.696 240.297 151.915C242.73 148.135 244.028 143.69 244.028 139.143C244.022 133.048 241.687 127.205 237.536 122.895C233.385 118.586 227.757 116.161 221.886 116.154Z" fill="#CCCCCC"/>
<path d="M76.4676 326.208C75.8342 325.706 75.3096 325.072 74.9279 324.346C74.5463 323.62 74.3161 322.819 74.2524 321.994C74.2383 321.802 74.2339 321.61 74.2393 321.417L50.2602 304.65C49.4754 304.096 48.8842 303.293 48.5746 302.361C48.265 301.43 48.2536 300.419 48.5421 299.48L60.0027 269.917C60.4959 268.645 61.4546 267.627 62.669 267.087C63.8834 266.547 65.2545 266.528 66.4821 267.035C67.7097 267.542 68.6937 268.534 69.2188 269.792C69.7438 271.051 69.767 272.475 69.2834 273.751L60.0303 298.179L78.7022 315.787C78.9486 315.729 79.1986 315.688 79.4504 315.667C80.8925 315.548 82.3238 316.006 83.4508 316.948C84.5778 317.889 85.3151 319.243 85.5116 320.731C85.7081 322.219 85.3488 323.728 84.5074 324.95C83.666 326.172 82.4063 327.013 80.9866 327.302C80.6223 327.374 80.2522 327.411 79.8812 327.412C78.6466 327.413 77.4463 326.989 76.4676 326.208Z" fill="#A0616A"/>
<path d="M50.27 287.325C50.1297 286.984 50.0617 286.617 50.0707 286.247C50.0797 285.877 50.1655 285.513 50.3222 285.181L55.7931 273.571C56.3451 271.766 57.5638 270.263 59.1819 269.39C60.8001 268.517 62.6857 268.346 64.4252 268.914C66.1648 269.482 67.6164 270.743 68.4617 272.421C69.3071 274.098 69.4772 276.055 68.9348 277.863L66.9374 290.663C66.8804 291.028 66.7482 291.377 66.5499 291.684C66.3516 291.992 66.0917 292.251 65.7881 292.445C65.4844 292.639 65.1441 292.762 64.7903 292.807C64.4365 292.852 64.0776 292.818 63.7379 292.705L51.7992 288.766C51.4594 288.654 51.1469 288.468 50.883 288.219C50.6191 287.97 50.41 287.665 50.27 287.325Z" fill="#001AFF"/>
<path d="M88.0049 430.658H94.3179L97.3209 405.377L88.0038 405.377L88.0049 430.658Z" fill="#A0616A"/>
<path d="M86.3945 428.518L98.8267 428.518H98.8272C99.8677 428.518 100.898 428.731 101.859 429.144C102.82 429.557 103.694 430.163 104.43 430.927C105.165 431.691 105.749 432.598 106.147 433.596C106.545 434.594 106.75 435.664 106.75 436.744V437.011L86.3949 437.012L86.3945 428.518Z" fill="#2F2E41"/>
<path d="M26.2741 426.014L32.3883 427.646L41.3583 403.936L32.3342 401.529L26.2741 426.014Z" fill="#A0616A"/>
<path d="M25.2275 423.525L37.2685 426.738L37.269 426.738C38.2767 427.007 39.2235 427.48 40.0554 428.128C40.8873 428.777 41.5879 429.59 42.1173 430.52C42.6468 431.45 42.9946 432.479 43.1409 433.548C43.2872 434.618 43.2293 435.707 42.9702 436.753L42.9061 437.012L23.1915 431.752L25.2275 423.525Z" fill="#2F2E41"/>
<path d="M70.5524 257.221C77.5372 257.221 83.1995 251.342 83.1995 244.09C83.1995 236.837 77.5372 230.959 70.5524 230.959C63.5676 230.959 57.9053 236.837 57.9053 244.09C57.9053 251.342 63.5676 257.221 70.5524 257.221Z" fill="#A0616A"/>
<path d="M64.1558 298.707C61.1468 295.492 58.5921 291.85 56.5678 287.89C55.4912 285.718 54.8644 283.337 54.7278 280.899C54.5912 278.461 54.9478 276.021 55.7747 273.734C56.619 271.397 57.9253 269.27 59.6095 267.488C61.2937 265.707 63.3185 264.312 65.5535 263.392C69.473 261.741 73.8461 261.672 77.8117 263.201C81.7774 264.729 85.0483 267.743 86.9807 271.65C90.1453 278.08 91.3855 284.367 90.6669 290.337C89.293 301.749 88.4886 307.647 88.2763 307.868L88.2057 307.941L64.679 309.027L64.1558 298.707Z" fill="#001AFF"/>
<path d="M65.5531 305.868L86.6069 304.78C87.1385 304.753 87.6597 304.94 88.0613 305.303C88.4628 305.666 88.7135 306.176 88.7608 306.726L98.4458 419.443C98.4716 419.742 98.4362 420.044 98.342 420.328C98.2478 420.613 98.0969 420.873 97.8992 421.093C97.7014 421.312 97.4613 421.486 97.1945 421.603C96.9276 421.72 96.64 421.777 96.3505 421.771L88.1251 421.589C87.6728 421.579 87.2362 421.415 86.8828 421.121C86.5294 420.828 86.2789 420.422 86.1699 419.966L70.4563 354.227C70.3535 353.797 70.1246 353.411 69.8011 353.122C69.4777 352.832 69.0757 352.655 68.6508 352.613C68.2259 352.571 67.799 352.668 67.4292 352.889C67.0594 353.11 66.7648 353.445 66.5863 353.848L36.8083 420.996C36.6061 421.453 36.2557 421.82 35.8186 422.035C35.3814 422.25 34.8855 422.298 34.4175 422.171L26.1397 419.929C25.6274 419.791 25.186 419.453 24.9074 418.986C24.6288 418.519 24.5344 417.958 24.6439 417.42C27.3675 404.072 43.6816 327.627 64.2219 306.467C64.5793 306.104 65.0534 305.891 65.5531 305.868Z" fill="#2F2E41"/>
<path d="M105.422 318.524C104.661 318.28 103.958 317.873 103.358 317.328C102.759 316.784 102.276 316.114 101.943 315.363C101.866 315.188 101.797 315.009 101.738 314.826L73.6589 307.682C72.738 307.443 71.9162 306.901 71.3159 306.137C70.7157 305.374 70.3691 304.43 70.3279 303.445L71.2571 271.593C71.2971 270.222 71.8586 268.923 72.8187 267.981C73.7789 267.039 75.0594 266.53 76.38 266.566C77.7006 266.602 78.9537 267.18 79.865 268.173C80.7762 269.166 81.2713 270.494 81.242 271.865L80.6774 298.107L104.055 307.942C104.267 307.8 104.489 307.672 104.717 307.561H104.717C105.552 307.159 106.469 306.975 107.388 307.023C108.307 307.071 109.201 307.351 109.993 307.838C110.784 308.325 111.45 309.005 111.932 309.819C112.414 310.633 112.697 311.556 112.759 312.51C112.82 313.463 112.657 314.417 112.283 315.291C111.91 316.164 111.337 316.93 110.615 317.522C109.893 318.114 109.043 318.515 108.138 318.689C107.233 318.864 106.301 318.807 105.422 318.524V318.524Z" fill="#A0616A"/>
<path d="M68.2622 287.464C68.0199 287.193 67.8368 286.87 67.7254 286.519C67.6141 286.167 67.5771 285.795 67.617 285.427L69.0087 272.583C68.9442 270.691 69.6049 268.85 70.846 267.462C72.0871 266.075 73.8074 265.256 75.6296 265.183C77.4518 265.111 79.2273 265.792 80.5668 267.077C81.9063 268.361 82.7006 270.145 82.7753 272.037L85.0403 284.789C85.1049 285.153 85.0932 285.527 85.006 285.886C84.9188 286.244 84.7582 286.579 84.535 286.868C84.3118 287.156 84.0313 287.392 83.7127 287.558C83.3941 287.723 83.0448 287.816 82.6886 287.829L70.1694 288.288C69.8131 288.301 69.4583 288.234 69.1292 288.092C68.8 287.95 68.5043 287.736 68.2622 287.464Z" fill="#001AFF"/>
<path d="M52.4302 261.426L53.7516 256.991L54.6553 261.968L62.0769 261.764L62.0427 256.857L64.864 261.699L71.5893 260.156C70.1525 258.168 68.6987 256.15 67.7798 253.807C66.8609 251.464 66.5264 248.716 67.3849 246.344C69.5076 240.48 77.5555 242.121 81.9573 242.071C83.2414 242.057 84.6912 241.961 85.5322 240.871C86.1654 240.05 86.2692 238.876 86.2371 237.79C86.0718 232.201 82.8398 226.868 78.2705 224.646C76.0339 223.577 73.5404 223.226 71.1104 223.639C69.8429 223.847 68.6123 224.25 67.4588 224.834C66.4304 225.355 65.3503 226.597 64.243 226.564C63.3125 226.535 62.0806 225.529 61.0681 225.357C59.8482 225.162 58.6037 225.207 57.4 225.49C54.9809 226.05 52.8002 227.405 51.1816 229.354C47.7417 233.503 46.7197 239.619 47.3192 245.248C47.9187 250.878 49.9472 256.173 51.9531 261.376" fill="#2F2E41"/>
<path d="M413.485 438H0.514925C0.378359 438 0.247385 437.944 0.150818 437.843C0.0542505 437.743 0 437.607 0 437.465C0 437.324 0.0542505 437.188 0.150818 437.087C0.247385 436.987 0.378359 436.931 0.514925 436.931H413.485C413.622 436.931 413.753 436.987 413.849 437.087C413.946 437.188 414 437.324 414 437.465C414 437.607 413.946 437.743 413.849 437.843C413.753 437.944 413.622 438 413.485 438Z" fill="#E6E6E6"/>
<path d="M406.518 431.374C408.09 430.051 409.235 428.261 409.801 426.244C410.22 424.202 409.382 421.805 407.51 421.015C405.407 420.172 403.158 421.69 401.457 423.217C399.756 424.743 397.798 426.492 395.567 426.164C396.71 425.082 397.563 423.711 398.044 422.185C398.525 420.659 398.617 419.03 398.311 417.456C398.219 416.801 397.952 416.187 397.542 415.681C396.379 414.385 394.259 414.944 392.857 415.965C388.411 419.214 387.171 425.48 387.154 431.126C386.701 429.084 387.077 426.963 387.069 424.912C387.06 422.862 386.505 420.474 384.812 419.391C383.762 418.806 382.583 418.515 381.392 418.548C379.392 418.477 377.169 418.681 375.801 420.199C374.091 422.081 374.544 425.25 376.023 427.3C377.502 429.35 379.742 430.673 381.803 432.111C383.462 433.132 384.877 434.532 385.94 436.203C386.066 436.434 386.17 436.678 386.248 436.931H398.773C401.585 435.451 404.19 433.582 406.518 431.374Z" fill="#F2F2F2"/>
<path d="M276.209 226.565C275.976 226.564 275.747 226.503 275.543 226.387C275.339 226.271 275.166 226.104 275.039 225.901C274.913 225.697 274.837 225.465 274.82 225.224C274.802 224.983 274.842 224.741 274.937 224.52L276.548 220.788C274.328 218.741 272.914 215.914 272.577 212.851C272.24 209.788 273.004 206.703 274.723 204.189C276.441 201.675 278.993 199.908 281.89 199.227C284.786 198.546 287.822 198.999 290.416 200.499C293.011 201.999 294.98 204.441 295.947 207.356C296.914 210.271 296.811 213.454 295.657 216.295C294.503 219.136 292.38 221.434 289.694 222.75C287.009 224.065 283.95 224.305 281.104 223.423L276.993 226.313C276.761 226.477 276.488 226.565 276.209 226.565ZM284.523 200.761C282.381 200.759 280.291 201.45 278.544 202.737C276.797 204.023 275.479 205.843 274.772 207.942C274.066 210.042 274.006 212.317 274.601 214.454C275.195 216.59 276.416 218.482 278.092 219.866L278.6 220.286L276.866 224.302L280.845 221.506L281.237 221.643C282.656 222.138 284.162 222.306 285.65 222.137C287.138 221.968 288.573 221.465 289.855 220.662C291.137 219.86 292.236 218.778 293.075 217.491C293.915 216.204 294.474 214.743 294.716 213.209C294.957 211.675 294.874 210.105 294.473 208.608C294.072 207.11 293.362 205.721 292.392 204.537C291.422 203.353 290.216 202.402 288.858 201.75C287.499 201.098 286.02 200.76 284.523 200.761Z" fill="#3F3D56"/>
<path d="M284.523 212.643C285.448 212.643 286.197 211.864 286.197 210.904C286.197 209.944 285.448 209.165 284.523 209.165C283.598 209.165 282.848 209.944 282.848 210.904C282.848 211.864 283.598 212.643 284.523 212.643Z" fill="#3F3D56"/>
<path d="M279.777 212.643C280.702 212.643 281.452 211.864 281.452 210.904C281.452 209.944 280.702 209.165 279.777 209.165C278.852 209.165 278.102 209.944 278.102 210.904C278.102 211.864 278.852 212.643 279.777 212.643Z" fill="#3F3D56"/>
<path d="M289.268 212.643C290.193 212.643 290.943 211.864 290.943 210.904C290.943 209.944 290.193 209.165 289.268 209.165C288.343 209.165 287.593 209.944 287.593 210.904C287.593 211.864 288.343 212.643 289.268 212.643Z" fill="#3F3D56"/>
<path d="M340.636 328H168.364C166.412 327.997 164.54 327.033 163.159 325.319C161.779 323.605 161.002 321.281 161 318.857V250.143C161.002 247.719 161.779 245.395 163.159 243.681C164.54 241.967 166.412 241.003 168.364 241H340.636C342.588 241.003 344.46 241.967 345.841 243.681C347.221 245.395 347.998 247.719 348 250.143V318.857C347.998 321.281 347.221 323.605 345.841 325.319C344.46 327.033 342.588 327.997 340.636 328Z" fill="white"/>
<path d="M208 267C204.287 267 200.726 268.844 198.101 272.126C195.475 275.407 194 279.859 194 284.5C194 289.141 195.475 293.592 198.1 296.874C200.726 300.156 204.287 302 208 302H208C211.713 302 215.274 300.156 217.899 296.874C220.525 293.592 222 289.141 222 284.5C222 279.859 220.525 275.408 217.899 272.126C215.274 268.844 211.713 267 208 267Z" fill="#001AFF"/>
<path d="M311.435 300H236.565C235.62 300 234.713 299.526 234.044 298.682C233.376 297.838 233 296.693 233 295.5C233 294.307 233.376 293.162 234.044 292.318C234.713 291.474 235.62 291 236.565 291H311.435C312.38 291 313.287 291.474 313.956 292.318C314.624 293.162 315 294.307 315 295.5C315 296.693 314.624 297.838 313.956 298.682C313.287 299.526 312.38 300 311.435 300Z" fill="#CCCCCC"/>
<path d="M260.406 281H236.594C235.641 281 234.727 280.526 234.053 279.682C233.379 278.838 233 277.693 233 276.5C233 275.307 233.379 274.162 234.053 273.318C234.727 272.474 235.641 272 236.594 272H260.406C261.359 272 262.273 272.474 262.947 273.318C263.621 274.162 264 275.307 264 276.5C264 277.693 263.621 278.838 262.947 279.682C262.273 280.526 261.359 281 260.406 281Z" fill="#CCCCCC"/>
<path d="M340.636 328H168.364C166.412 327.997 164.54 327.033 163.159 325.319C161.779 323.605 161.002 321.281 161 318.857V250.143C161.002 247.719 161.779 245.395 163.159 243.681C164.54 241.967 166.412 241.003 168.364 241H340.636C342.588 241.003 344.46 241.967 345.841 243.681C347.221 245.395 347.998 247.719 348 250.143V318.857C347.998 321.281 347.221 323.605 345.841 325.319C344.46 327.033 342.588 327.997 340.636 328ZM168.364 241.554C166.53 241.557 164.772 242.462 163.475 244.073C162.178 245.683 161.448 247.866 161.446 250.143V318.857C161.448 321.134 162.178 323.317 163.475 324.927C164.772 326.538 166.53 327.443 168.364 327.446H340.636C342.47 327.443 344.228 326.538 345.525 324.927C346.822 323.317 347.552 321.134 347.554 318.857V250.143C347.552 247.866 346.822 245.683 345.525 244.073C344.228 242.462 342.47 241.557 340.636 241.554H168.364Z" fill="#3F3D56"/>
<path d="M206.479 292C206.116 292.001 205.762 291.848 205.471 291.564L205.453 291.546L201.659 287.764C201.305 287.409 201.073 286.886 201.014 286.308C200.956 285.731 201.076 285.147 201.348 284.685C201.62 284.223 202.022 283.92 202.465 283.844C202.908 283.767 203.356 283.923 203.711 284.277L206.169 286.732L211.976 276.86C212.111 276.631 212.279 276.439 212.47 276.295C212.662 276.15 212.874 276.057 213.093 276.019C213.313 275.981 213.536 276 213.749 276.075C213.963 276.149 214.164 276.278 214.339 276.453L214.34 276.454L214.304 276.519L214.341 276.454C214.695 276.809 214.927 277.332 214.986 277.91C215.044 278.487 214.924 279.071 214.653 279.534L207.821 291.141C207.663 291.408 207.46 291.624 207.228 291.773C206.995 291.922 206.739 291.998 206.48 291.997L206.479 292Z" fill="white"/>
</g>
<rect x="197" y="750" width="11" height="10" rx="5" fill="#DDDDDD"/>
<rect x="177" y="750" width="12" height="10" rx="5" fill="#001AFF"/>
<rect x="215" y="750" width="11" height="10" rx="5" fill="#DDDDDD"/>
<rect x="233" y="750" width="12" height="10" rx="5" fill="#DDDDDD"/>
<path d="M184.676 664.609H186.082C186.009 665.283 185.816 665.886 185.503 666.418C185.191 666.95 184.749 667.373 184.178 667.685C183.606 667.993 182.894 668.146 182.039 668.146C181.414 668.146 180.845 668.029 180.333 667.795C179.825 667.561 179.388 667.229 179.021 666.799C178.655 666.364 178.372 665.844 178.172 665.239C177.977 664.628 177.879 663.95 177.879 663.203V662.141C177.879 661.394 177.977 660.717 178.172 660.112C178.372 659.501 178.658 658.979 179.029 658.544C179.405 658.11 179.856 657.775 180.384 657.541C180.911 657.307 181.504 657.189 182.164 657.189C182.969 657.189 183.65 657.341 184.207 657.644C184.764 657.946 185.196 658.366 185.503 658.903C185.816 659.436 186.009 660.053 186.082 660.756H184.676C184.607 660.258 184.48 659.831 184.295 659.475C184.109 659.113 183.846 658.835 183.504 658.64C183.162 658.444 182.715 658.347 182.164 658.347C181.69 658.347 181.272 658.437 180.911 658.618C180.555 658.798 180.254 659.055 180.01 659.387C179.771 659.719 179.59 660.117 179.468 660.581C179.346 661.044 179.285 661.56 179.285 662.126V663.203C179.285 663.725 179.339 664.216 179.446 664.675C179.559 665.134 179.727 665.537 179.952 665.883C180.176 666.23 180.462 666.503 180.809 666.704C181.155 666.899 181.565 666.997 182.039 666.997C182.64 666.997 183.118 666.901 183.475 666.711C183.831 666.521 184.1 666.247 184.28 665.891C184.466 665.534 184.598 665.107 184.676 664.609ZM187.444 664.125V663.957C187.444 663.386 187.527 662.856 187.693 662.368C187.859 661.875 188.099 661.447 188.411 661.086C188.724 660.72 189.102 660.437 189.546 660.236C189.991 660.031 190.489 659.929 191.041 659.929C191.597 659.929 192.098 660.031 192.542 660.236C192.991 660.437 193.372 660.72 193.685 661.086C194.002 661.447 194.244 661.875 194.41 662.368C194.576 662.856 194.659 663.386 194.659 663.957V664.125C194.659 664.697 194.576 665.227 194.41 665.715C194.244 666.203 194.002 666.63 193.685 666.997C193.372 667.358 192.994 667.641 192.549 667.846C192.11 668.046 191.612 668.146 191.055 668.146C190.499 668.146 189.998 668.046 189.554 667.846C189.109 667.641 188.729 667.358 188.411 666.997C188.099 666.63 187.859 666.203 187.693 665.715C187.527 665.227 187.444 664.697 187.444 664.125ZM188.799 663.957V664.125C188.799 664.521 188.846 664.895 188.938 665.246C189.031 665.593 189.17 665.9 189.356 666.169C189.546 666.438 189.783 666.65 190.066 666.806C190.35 666.958 190.679 667.033 191.055 667.033C191.426 667.033 191.751 666.958 192.029 666.806C192.312 666.65 192.547 666.438 192.732 666.169C192.918 665.9 193.057 665.593 193.15 665.246C193.248 664.895 193.296 664.521 193.296 664.125V663.957C193.296 663.566 193.248 663.198 193.15 662.851C193.057 662.5 192.916 662.189 192.725 661.921C192.54 661.647 192.305 661.433 192.022 661.276C191.744 661.12 191.417 661.042 191.041 661.042C190.669 661.042 190.342 661.12 190.059 661.276C189.781 661.433 189.546 661.647 189.356 661.921C189.17 662.189 189.031 662.5 188.938 662.851C188.846 663.198 188.799 663.566 188.799 663.957ZM197.713 661.767V668H196.358V660.075H197.64L197.713 661.767ZM197.391 663.737L196.827 663.715C196.832 663.173 196.912 662.673 197.068 662.214C197.225 661.75 197.444 661.347 197.728 661.005C198.011 660.664 198.348 660.4 198.738 660.214C199.134 660.024 199.571 659.929 200.049 659.929C200.44 659.929 200.792 659.982 201.104 660.09C201.417 660.192 201.683 660.358 201.902 660.588C202.127 660.817 202.298 661.115 202.415 661.481C202.532 661.843 202.591 662.285 202.591 662.807V668H201.229V662.792C201.229 662.377 201.167 662.045 201.045 661.796C200.923 661.542 200.745 661.359 200.511 661.247C200.276 661.13 199.988 661.071 199.646 661.071C199.31 661.071 199.002 661.142 198.724 661.284C198.45 661.425 198.213 661.621 198.013 661.87C197.818 662.119 197.664 662.404 197.552 662.727C197.444 663.044 197.391 663.381 197.391 663.737ZM207.967 660.075V661.115H203.682V660.075H207.967ZM205.132 658.149H206.487V666.037C206.487 666.306 206.529 666.508 206.612 666.645C206.695 666.782 206.802 666.872 206.934 666.916C207.066 666.96 207.208 666.982 207.359 666.982C207.471 666.982 207.588 666.972 207.71 666.953C207.837 666.928 207.933 666.909 207.996 666.894L208.003 668C207.896 668.034 207.754 668.066 207.579 668.095C207.408 668.129 207.2 668.146 206.956 668.146C206.624 668.146 206.319 668.081 206.041 667.949C205.762 667.817 205.54 667.597 205.374 667.29C205.213 666.977 205.132 666.557 205.132 666.03V658.149ZM211.028 660.075V668H209.666V660.075H211.028ZM209.563 657.973C209.563 657.753 209.629 657.568 209.761 657.417C209.898 657.265 210.098 657.189 210.362 657.189C210.621 657.189 210.818 657.265 210.955 657.417C211.097 657.568 211.167 657.753 211.167 657.973C211.167 658.183 211.097 658.364 210.955 658.515C210.818 658.662 210.621 658.735 210.362 658.735C210.098 658.735 209.898 658.662 209.761 658.515C209.629 658.364 209.563 658.183 209.563 657.973ZM214.559 661.767V668H213.204V660.075H214.485L214.559 661.767ZM214.236 663.737L213.672 663.715C213.677 663.173 213.758 662.673 213.914 662.214C214.07 661.75 214.29 661.347 214.573 661.005C214.856 660.664 215.193 660.4 215.584 660.214C215.979 660.024 216.417 659.929 216.895 659.929C217.286 659.929 217.637 659.982 217.95 660.09C218.262 660.192 218.528 660.358 218.748 660.588C218.973 660.817 219.144 661.115 219.261 661.481C219.378 661.843 219.437 662.285 219.437 662.807V668H218.074V662.792C218.074 662.377 218.013 662.045 217.891 661.796C217.769 661.542 217.591 661.359 217.356 661.247C217.122 661.13 216.834 661.071 216.492 661.071C216.155 661.071 215.848 661.142 215.569 661.284C215.296 661.425 215.059 661.621 214.859 661.87C214.664 662.119 214.51 662.404 214.397 662.727C214.29 663.044 214.236 663.381 214.236 663.737ZM226.343 666.169V660.075H227.706V668H226.409L226.343 666.169ZM226.6 664.499L227.164 664.484C227.164 665.012 227.107 665.5 226.995 665.949C226.888 666.394 226.712 666.779 226.468 667.106C226.224 667.434 225.904 667.69 225.508 667.875C225.113 668.056 224.632 668.146 224.065 668.146C223.68 668.146 223.326 668.09 223.003 667.978C222.686 667.866 222.413 667.692 222.183 667.458C221.954 667.224 221.775 666.918 221.648 666.542C221.526 666.167 221.465 665.715 221.465 665.188V660.075H222.82V665.202C222.82 665.559 222.859 665.854 222.938 666.088C223.021 666.318 223.13 666.501 223.267 666.638C223.409 666.77 223.565 666.862 223.736 666.916C223.912 666.97 224.092 666.997 224.278 666.997C224.854 666.997 225.311 666.887 225.647 666.667C225.984 666.442 226.226 666.142 226.373 665.766C226.524 665.385 226.6 664.963 226.6 664.499ZM233.06 668.146C232.508 668.146 232.007 668.054 231.558 667.868C231.114 667.678 230.73 667.412 230.408 667.07C230.091 666.728 229.847 666.323 229.676 665.854C229.505 665.385 229.419 664.873 229.419 664.316V664.008C229.419 663.364 229.515 662.79 229.705 662.287C229.896 661.779 230.154 661.35 230.481 660.998C230.809 660.646 231.18 660.38 231.595 660.2C232.01 660.019 232.439 659.929 232.884 659.929C233.45 659.929 233.938 660.026 234.349 660.222C234.764 660.417 235.103 660.69 235.367 661.042C235.63 661.389 235.826 661.799 235.953 662.272C236.08 662.741 236.143 663.254 236.143 663.811V664.418H230.225V663.312H234.788V663.21C234.769 662.858 234.695 662.517 234.568 662.185C234.446 661.853 234.251 661.579 233.982 661.364C233.714 661.149 233.348 661.042 232.884 661.042C232.576 661.042 232.293 661.108 232.034 661.24C231.775 661.367 231.553 661.557 231.368 661.811C231.182 662.065 231.038 662.375 230.936 662.741C230.833 663.107 230.782 663.53 230.782 664.008V664.316C230.782 664.692 230.833 665.046 230.936 665.378C231.043 665.705 231.197 665.993 231.397 666.242C231.602 666.491 231.849 666.687 232.137 666.828C232.43 666.97 232.762 667.041 233.133 667.041C233.611 667.041 234.017 666.943 234.349 666.748C234.681 666.552 234.971 666.291 235.22 665.964L236.041 666.616C235.87 666.875 235.652 667.121 235.389 667.355C235.125 667.59 234.8 667.78 234.415 667.927C234.034 668.073 233.582 668.146 233.06 668.146Z" fill="white"/>
<defs>
<clipPath id="clip0_2_2">
<rect width="414" height="373" fill="white" transform="translate(0 65)"/>
</clipPath>
</defs>
</svg>
