<svg width="414" height="896" viewBox="0 0 414 896" fill="none" xmlns="http://www.w3.org/2000/svg">
<rect width="414" height="896" fill="white"/>
<path d="M182.228 518.97L184.776 508.203H186.2L186.525 509.996L183.81 521H182.28L182.228 518.97ZM180.918 508.203L183.027 518.97L182.852 521H181.146L178.308 508.203H180.918ZM188.767 518.926L190.85 508.203H193.46L190.63 521H188.925L188.767 518.926ZM187 508.203L189.566 519.014L189.496 521H187.967L185.233 509.987L185.585 508.203H187ZM198.83 521.176C198.092 521.176 197.43 521.059 196.844 520.824C196.258 520.584 195.76 520.253 195.35 519.831C194.945 519.409 194.635 518.92 194.418 518.363C194.201 517.801 194.093 517.203 194.093 516.57V516.219C194.093 515.498 194.195 514.839 194.4 514.241C194.605 513.644 194.898 513.125 195.279 512.686C195.666 512.246 196.135 511.909 196.686 511.675C197.236 511.435 197.857 511.314 198.549 511.314C199.223 511.314 199.82 511.426 200.342 511.648C200.863 511.871 201.3 512.188 201.651 512.598C202.009 513.008 202.278 513.5 202.46 514.074C202.642 514.643 202.732 515.275 202.732 515.973V517.027H195.174V515.34H200.245V515.146C200.245 514.795 200.181 514.481 200.052 514.206C199.929 513.925 199.741 513.702 199.489 513.538C199.237 513.374 198.915 513.292 198.522 513.292C198.188 513.292 197.901 513.365 197.661 513.512C197.421 513.658 197.225 513.863 197.072 514.127C196.926 514.391 196.814 514.701 196.738 515.059C196.668 515.41 196.633 515.797 196.633 516.219V516.57C196.633 516.951 196.686 517.303 196.791 517.625C196.902 517.947 197.058 518.226 197.257 518.46C197.462 518.694 197.708 518.876 197.995 519.005C198.288 519.134 198.619 519.198 198.988 519.198C199.445 519.198 199.87 519.11 200.263 518.935C200.661 518.753 201.004 518.48 201.291 518.117L202.521 519.453C202.322 519.74 202.05 520.016 201.704 520.279C201.364 520.543 200.954 520.76 200.474 520.93C199.993 521.094 199.445 521.176 198.83 521.176ZM206.846 507.5V521H204.306V507.5H206.846ZM212.866 519.198C213.177 519.198 213.452 519.14 213.692 519.022C213.933 518.899 214.12 518.729 214.255 518.513C214.396 518.29 214.469 518.029 214.475 517.73H216.856C216.851 518.398 216.672 518.993 216.32 519.515C215.969 520.03 215.497 520.438 214.905 520.736C214.313 521.029 213.651 521.176 212.919 521.176C212.181 521.176 211.536 521.053 210.985 520.807C210.44 520.561 209.986 520.221 209.623 519.787C209.26 519.348 208.987 518.838 208.806 518.258C208.624 517.672 208.533 517.045 208.533 516.377V516.122C208.533 515.448 208.624 514.821 208.806 514.241C208.987 513.655 209.26 513.146 209.623 512.712C209.986 512.272 210.44 511.93 210.985 511.684C211.53 511.438 212.169 511.314 212.901 511.314C213.681 511.314 214.363 511.464 214.949 511.763C215.541 512.062 216.004 512.489 216.338 513.046C216.678 513.597 216.851 514.25 216.856 515.006H214.475C214.469 514.689 214.401 514.402 214.272 514.145C214.149 513.887 213.968 513.682 213.728 513.529C213.493 513.371 213.203 513.292 212.857 513.292C212.488 513.292 212.187 513.371 211.952 513.529C211.718 513.682 211.536 513.893 211.407 514.162C211.278 514.426 211.188 514.728 211.135 515.067C211.088 515.401 211.064 515.753 211.064 516.122V516.377C211.064 516.746 211.088 517.101 211.135 517.44C211.182 517.78 211.27 518.082 211.398 518.346C211.533 518.609 211.718 518.817 211.952 518.97C212.187 519.122 212.491 519.198 212.866 519.198ZM217.92 516.342V516.157C217.92 515.46 218.02 514.818 218.219 514.232C218.418 513.641 218.708 513.128 219.089 512.694C219.47 512.261 219.938 511.924 220.495 511.684C221.052 511.438 221.69 511.314 222.411 511.314C223.132 511.314 223.773 511.438 224.336 511.684C224.898 511.924 225.37 512.261 225.751 512.694C226.138 513.128 226.431 513.641 226.63 514.232C226.829 514.818 226.929 515.46 226.929 516.157V516.342C226.929 517.033 226.829 517.675 226.63 518.267C226.431 518.853 226.138 519.365 225.751 519.805C225.37 520.238 224.901 520.575 224.345 520.815C223.788 521.056 223.149 521.176 222.429 521.176C221.708 521.176 221.066 521.056 220.504 520.815C219.947 520.575 219.476 520.238 219.089 519.805C218.708 519.365 218.418 518.853 218.219 518.267C218.02 517.675 217.92 517.033 217.92 516.342ZM220.451 516.157V516.342C220.451 516.74 220.486 517.112 220.557 517.458C220.627 517.804 220.738 518.108 220.891 518.372C221.049 518.63 221.254 518.832 221.506 518.979C221.758 519.125 222.065 519.198 222.429 519.198C222.78 519.198 223.082 519.125 223.334 518.979C223.586 518.832 223.788 518.63 223.94 518.372C224.093 518.108 224.204 517.804 224.274 517.458C224.351 517.112 224.389 516.74 224.389 516.342V516.157C224.389 515.771 224.351 515.407 224.274 515.067C224.204 514.722 224.09 514.417 223.932 514.153C223.779 513.884 223.577 513.673 223.325 513.521C223.073 513.368 222.769 513.292 222.411 513.292C222.054 513.292 221.749 513.368 221.497 513.521C221.251 513.673 221.049 513.884 220.891 514.153C220.738 514.417 220.627 514.722 220.557 515.067C220.486 515.407 220.451 515.771 220.451 516.157ZM231.016 513.459V521H228.476V511.49H230.857L231.016 513.459ZM230.664 515.911H229.961C229.961 515.249 230.04 514.64 230.198 514.083C230.362 513.521 230.6 513.034 230.91 512.624C231.227 512.208 231.616 511.886 232.079 511.657C232.542 511.429 233.078 511.314 233.688 511.314C234.109 511.314 234.496 511.379 234.848 511.508C235.199 511.631 235.501 511.827 235.753 512.097C236.011 512.36 236.21 512.706 236.351 513.134C236.491 513.556 236.562 514.062 236.562 514.654V521H234.03V514.936C234.03 514.502 233.972 514.168 233.854 513.934C233.737 513.699 233.57 513.535 233.354 513.441C233.143 513.348 232.888 513.301 232.589 513.301C232.261 513.301 231.974 513.368 231.728 513.503C231.487 513.638 231.288 513.825 231.13 514.065C230.972 514.3 230.854 514.575 230.778 514.892C230.702 515.208 230.664 515.548 230.664 515.911ZM236.324 515.621L235.419 515.735C235.419 515.114 235.495 514.537 235.647 514.004C235.806 513.471 236.037 513.002 236.342 512.598C236.652 512.193 237.036 511.88 237.493 511.657C237.95 511.429 238.478 511.314 239.075 511.314C239.532 511.314 239.948 511.382 240.323 511.517C240.698 511.646 241.018 511.854 241.281 512.141C241.551 512.422 241.756 512.791 241.896 513.248C242.043 513.705 242.116 514.265 242.116 514.927V521H239.576V514.927C239.576 514.487 239.518 514.153 239.4 513.925C239.289 513.69 239.125 513.529 238.908 513.441C238.697 513.348 238.445 513.301 238.152 513.301C237.848 513.301 237.581 513.362 237.353 513.485C237.124 513.603 236.934 513.767 236.781 513.978C236.629 514.188 236.515 514.435 236.438 514.716C236.362 514.991 236.324 515.293 236.324 515.621ZM248.453 521.176C247.715 521.176 247.053 521.059 246.467 520.824C245.881 520.584 245.383 520.253 244.973 519.831C244.568 519.409 244.258 518.92 244.041 518.363C243.824 517.801 243.716 517.203 243.716 516.57V516.219C243.716 515.498 243.818 514.839 244.023 514.241C244.229 513.644 244.521 513.125 244.902 512.686C245.289 512.246 245.758 511.909 246.309 511.675C246.859 511.435 247.48 511.314 248.172 511.314C248.846 511.314 249.443 511.426 249.965 511.648C250.486 511.871 250.923 512.188 251.274 512.598C251.632 513.008 251.901 513.5 252.083 514.074C252.265 514.643 252.355 515.275 252.355 515.973V517.027H244.797V515.34H249.868V515.146C249.868 514.795 249.804 514.481 249.675 514.206C249.552 513.925 249.364 513.702 249.112 513.538C248.86 513.374 248.538 513.292 248.146 513.292C247.812 513.292 247.524 513.365 247.284 513.512C247.044 513.658 246.848 513.863 246.695 514.127C246.549 514.391 246.438 514.701 246.361 515.059C246.291 515.41 246.256 515.797 246.256 516.219V516.57C246.256 516.951 246.309 517.303 246.414 517.625C246.525 517.947 246.681 518.226 246.88 518.46C247.085 518.694 247.331 518.876 247.618 519.005C247.911 519.134 248.242 519.198 248.611 519.198C249.068 519.198 249.493 519.11 249.886 518.935C250.284 518.753 250.627 518.48 250.914 518.117L252.145 519.453C251.945 519.74 251.673 520.016 251.327 520.279C250.987 520.543 250.577 520.76 250.097 520.93C249.616 521.094 249.068 521.176 248.453 521.176Z" fill="black"/>
<path d="M73.3735 556.758L75.7729 561.398L78.1787 556.758H79.5688L76.3823 562.547V566H75.1572V562.547L71.9707 556.758H73.3735ZM79.8481 562.642V562.496C79.8481 562.001 79.9201 561.542 80.064 561.119C80.2078 560.691 80.4152 560.321 80.686 560.008C80.9569 559.69 81.2848 559.445 81.6699 559.271C82.055 559.094 82.4867 559.005 82.9648 559.005C83.4473 559.005 83.881 559.094 84.2661 559.271C84.6554 559.445 84.9855 559.69 85.2563 560.008C85.5314 560.321 85.7409 560.691 85.8848 561.119C86.0286 561.542 86.1006 562.001 86.1006 562.496V562.642C86.1006 563.137 86.0286 563.596 85.8848 564.02C85.7409 564.443 85.5314 564.813 85.2563 565.13C84.9855 565.444 84.6576 565.689 84.2725 565.867C83.8916 566.04 83.46 566.127 82.9775 566.127C82.4951 566.127 82.0614 566.04 81.6763 565.867C81.2912 565.689 80.9611 565.444 80.686 565.13C80.4152 564.813 80.2078 564.443 80.064 564.02C79.9201 563.596 79.8481 563.137 79.8481 562.642ZM81.0225 562.496V562.642C81.0225 562.985 81.0627 563.309 81.1431 563.613C81.2235 563.914 81.3441 564.18 81.5049 564.413C81.6699 564.646 81.8752 564.83 82.1206 564.965C82.366 565.097 82.6517 565.162 82.9775 565.162C83.2992 565.162 83.5806 565.097 83.8218 564.965C84.0672 564.83 84.2703 564.646 84.4312 564.413C84.592 564.18 84.7126 563.914 84.793 563.613C84.8776 563.309 84.9199 562.985 84.9199 562.642V562.496C84.9199 562.158 84.8776 561.838 84.793 561.538C84.7126 561.233 84.5898 560.964 84.4248 560.731C84.264 560.494 84.0609 560.308 83.8154 560.173C83.5742 560.037 83.2907 559.97 82.9648 559.97C82.6432 559.97 82.3597 560.037 82.1143 560.173C81.873 560.308 81.6699 560.494 81.5049 560.731C81.3441 560.964 81.2235 561.233 81.1431 561.538C81.0627 561.838 81.0225 562.158 81.0225 562.496ZM91.7754 564.413V559.132H92.9561V566H91.8325L91.7754 564.413ZM91.9976 562.966L92.4863 562.953C92.4863 563.41 92.4377 563.833 92.3403 564.223C92.2472 564.608 92.0949 564.942 91.8833 565.226C91.6717 565.509 91.3945 565.731 91.0518 565.892C90.709 566.049 90.2922 566.127 89.8013 566.127C89.467 566.127 89.1602 566.078 88.8809 565.981C88.6058 565.884 88.3688 565.733 88.1699 565.53C87.971 565.327 87.8166 565.063 87.7065 564.737C87.6007 564.411 87.5479 564.02 87.5479 563.562V559.132H88.7222V563.575C88.7222 563.884 88.756 564.14 88.8237 564.343C88.8957 564.542 88.9909 564.701 89.1094 564.819C89.2321 564.934 89.3675 565.014 89.5156 565.061C89.668 565.107 89.8245 565.13 89.9854 565.13C90.4847 565.13 90.8804 565.035 91.1724 564.845C91.4644 564.65 91.6738 564.39 91.8008 564.064C91.932 563.734 91.9976 563.368 91.9976 562.966ZM102.021 564.826V561.29C102.021 561.019 101.965 560.784 101.855 560.585C101.75 560.382 101.589 560.226 101.373 560.116C101.157 560.006 100.891 559.951 100.573 559.951C100.277 559.951 100.017 560.001 99.7925 560.103C99.5724 560.205 99.3989 560.338 99.272 560.503C99.1493 560.668 99.0879 560.846 99.0879 561.036H97.9136C97.9136 560.791 97.9771 560.547 98.104 560.306C98.231 560.065 98.4129 559.847 98.6499 559.652C98.8911 559.453 99.1789 559.297 99.5132 559.183C99.8517 559.064 100.228 559.005 100.643 559.005C101.142 559.005 101.583 559.09 101.963 559.259C102.348 559.428 102.649 559.684 102.865 560.027C103.085 560.365 103.195 560.791 103.195 561.303V564.502C103.195 564.73 103.214 564.974 103.252 565.232C103.294 565.49 103.356 565.712 103.436 565.898V566H102.211C102.152 565.865 102.105 565.685 102.071 565.46C102.037 565.232 102.021 565.02 102.021 564.826ZM102.224 561.836L102.236 562.661H101.049C100.715 562.661 100.417 562.689 100.154 562.744C99.8919 562.794 99.6719 562.873 99.4941 562.979C99.3164 563.084 99.181 563.218 99.0879 563.378C98.9948 563.535 98.9482 563.719 98.9482 563.931C98.9482 564.146 98.9969 564.343 99.0942 564.521C99.1916 564.699 99.3376 564.84 99.5322 564.946C99.7311 565.048 99.9744 565.099 100.262 565.099C100.622 565.099 100.939 565.022 101.214 564.87C101.489 564.718 101.707 564.532 101.868 564.312C102.033 564.091 102.122 563.878 102.135 563.67L102.636 564.235C102.607 564.413 102.526 564.61 102.395 564.826C102.264 565.042 102.088 565.249 101.868 565.448C101.652 565.642 101.394 565.805 101.094 565.937C100.798 566.063 100.463 566.127 100.091 566.127C99.6253 566.127 99.217 566.036 98.8657 565.854C98.5187 565.672 98.2479 565.429 98.0532 565.124C97.8628 564.815 97.7676 564.47 97.7676 564.089C97.7676 563.721 97.8395 563.397 97.9834 563.118C98.1273 562.835 98.3346 562.6 98.6055 562.414C98.8763 562.223 99.2021 562.079 99.583 561.982C99.9639 561.885 100.389 561.836 100.859 561.836H102.224ZM106.216 560.211V566H105.042V559.132H106.185L106.216 560.211ZM108.362 559.094L108.355 560.186C108.258 560.164 108.165 560.152 108.076 560.147C107.992 560.139 107.894 560.135 107.784 560.135C107.513 560.135 107.274 560.177 107.067 560.262C106.86 560.346 106.684 560.465 106.54 560.617C106.396 560.77 106.282 560.951 106.197 561.163C106.117 561.37 106.064 561.599 106.039 561.849L105.708 562.039C105.708 561.624 105.749 561.235 105.829 560.871C105.914 560.507 106.043 560.186 106.216 559.906C106.39 559.623 106.61 559.403 106.876 559.246C107.147 559.085 107.469 559.005 107.841 559.005C107.926 559.005 108.023 559.015 108.133 559.037C108.243 559.054 108.319 559.073 108.362 559.094ZM112.17 566.127C111.692 566.127 111.258 566.047 110.869 565.886C110.484 565.721 110.152 565.49 109.873 565.194C109.597 564.898 109.386 564.546 109.238 564.14C109.09 563.734 109.016 563.29 109.016 562.807V562.541C109.016 561.982 109.098 561.485 109.263 561.049C109.428 560.609 109.653 560.236 109.936 559.932C110.22 559.627 110.541 559.396 110.901 559.24C111.261 559.083 111.633 559.005 112.018 559.005C112.509 559.005 112.932 559.09 113.288 559.259C113.647 559.428 113.941 559.665 114.17 559.97C114.398 560.27 114.568 560.626 114.678 561.036C114.788 561.442 114.843 561.887 114.843 562.369V562.896H109.714V561.938H113.668V561.849C113.652 561.544 113.588 561.248 113.478 560.96C113.372 560.672 113.203 560.435 112.97 560.249C112.737 560.063 112.42 559.97 112.018 559.97C111.751 559.97 111.506 560.027 111.282 560.141C111.057 560.251 110.865 560.416 110.704 560.636C110.543 560.856 110.418 561.125 110.33 561.442C110.241 561.76 110.196 562.126 110.196 562.541V562.807C110.196 563.133 110.241 563.44 110.33 563.728C110.423 564.011 110.556 564.261 110.729 564.477C110.907 564.692 111.121 564.862 111.371 564.984C111.625 565.107 111.912 565.168 112.234 565.168C112.649 565.168 113 565.084 113.288 564.915C113.575 564.745 113.827 564.519 114.043 564.235L114.754 564.8C114.606 565.025 114.417 565.238 114.189 565.441C113.96 565.645 113.679 565.81 113.345 565.937C113.015 566.063 112.623 566.127 112.17 566.127ZM123.488 564.826V561.29C123.488 561.019 123.433 560.784 123.323 560.585C123.217 560.382 123.057 560.226 122.841 560.116C122.625 560.006 122.358 559.951 122.041 559.951C121.745 559.951 121.485 560.001 121.26 560.103C121.04 560.205 120.867 560.338 120.74 560.503C120.617 560.668 120.556 560.846 120.556 561.036H119.381C119.381 560.791 119.445 560.547 119.572 560.306C119.699 560.065 119.881 559.847 120.118 559.652C120.359 559.453 120.647 559.297 120.981 559.183C121.319 559.064 121.696 559.005 122.111 559.005C122.61 559.005 123.05 559.09 123.431 559.259C123.816 559.428 124.117 559.684 124.333 560.027C124.553 560.365 124.663 560.791 124.663 561.303V564.502C124.663 564.73 124.682 564.974 124.72 565.232C124.762 565.49 124.823 565.712 124.904 565.898V566H123.679C123.619 565.865 123.573 565.685 123.539 565.46C123.505 565.232 123.488 565.02 123.488 564.826ZM123.691 561.836L123.704 562.661H122.517C122.183 562.661 121.884 562.689 121.622 562.744C121.36 562.794 121.14 562.873 120.962 562.979C120.784 563.084 120.649 563.218 120.556 563.378C120.463 563.535 120.416 563.719 120.416 563.931C120.416 564.146 120.465 564.343 120.562 564.521C120.659 564.699 120.805 564.84 121 564.946C121.199 565.048 121.442 565.099 121.73 565.099C122.09 565.099 122.407 565.022 122.682 564.87C122.957 564.718 123.175 564.532 123.336 564.312C123.501 564.091 123.59 563.878 123.603 563.67L124.104 564.235C124.074 564.413 123.994 564.61 123.863 564.826C123.732 565.042 123.556 565.249 123.336 565.448C123.12 565.642 122.862 565.805 122.562 565.937C122.265 566.063 121.931 566.127 121.559 566.127C121.093 566.127 120.685 566.036 120.333 565.854C119.986 565.672 119.716 565.429 119.521 565.124C119.331 564.815 119.235 564.47 119.235 564.089C119.235 563.721 119.307 563.397 119.451 563.118C119.595 562.835 119.802 562.6 120.073 562.414C120.344 562.223 120.67 562.079 121.051 561.982C121.432 561.885 121.857 561.836 122.327 561.836H123.691ZM126.503 556.25H127.684V564.667L127.583 566H126.503V556.25ZM132.324 562.509V562.642C132.324 563.141 132.265 563.605 132.146 564.032C132.028 564.455 131.854 564.824 131.626 565.137C131.397 565.45 131.118 565.693 130.788 565.867C130.458 566.04 130.079 566.127 129.652 566.127C129.216 566.127 128.833 566.053 128.503 565.905C128.177 565.752 127.902 565.535 127.678 565.251C127.453 564.967 127.274 564.625 127.138 564.223C127.007 563.821 126.916 563.368 126.865 562.864V562.28C126.916 561.772 127.007 561.318 127.138 560.916C127.274 560.514 127.453 560.171 127.678 559.887C127.902 559.599 128.177 559.382 128.503 559.233C128.829 559.081 129.208 559.005 129.639 559.005C130.071 559.005 130.454 559.09 130.788 559.259C131.122 559.424 131.402 559.661 131.626 559.97C131.854 560.279 132.028 560.649 132.146 561.081C132.265 561.508 132.324 561.984 132.324 562.509ZM131.144 562.642V562.509C131.144 562.166 131.112 561.844 131.048 561.544C130.985 561.239 130.883 560.973 130.744 560.744C130.604 560.511 130.42 560.329 130.191 560.198C129.963 560.063 129.681 559.995 129.347 559.995C129.051 559.995 128.793 560.046 128.573 560.147C128.357 560.249 128.173 560.387 128.021 560.56C127.868 560.729 127.743 560.924 127.646 561.144C127.553 561.36 127.483 561.584 127.437 561.817V563.347C127.504 563.643 127.614 563.929 127.767 564.204C127.923 564.474 128.131 564.697 128.389 564.87C128.651 565.044 128.975 565.13 129.36 565.13C129.677 565.13 129.948 565.067 130.172 564.94C130.401 564.809 130.585 564.629 130.725 564.4C130.868 564.172 130.974 563.907 131.042 563.607C131.11 563.306 131.144 562.985 131.144 562.642ZM133.499 562.642V562.496C133.499 562.001 133.57 561.542 133.714 561.119C133.858 560.691 134.066 560.321 134.336 560.008C134.607 559.69 134.935 559.445 135.32 559.271C135.705 559.094 136.137 559.005 136.615 559.005C137.098 559.005 137.531 559.094 137.917 559.271C138.306 559.445 138.636 559.69 138.907 560.008C139.182 560.321 139.391 560.691 139.535 561.119C139.679 561.542 139.751 562.001 139.751 562.496V562.642C139.751 563.137 139.679 563.596 139.535 564.02C139.391 564.443 139.182 564.813 138.907 565.13C138.636 565.444 138.308 565.689 137.923 565.867C137.542 566.04 137.11 566.127 136.628 566.127C136.146 566.127 135.712 566.04 135.327 565.867C134.942 565.689 134.611 565.444 134.336 565.13C134.066 564.813 133.858 564.443 133.714 564.02C133.57 563.596 133.499 563.137 133.499 562.642ZM134.673 562.496V562.642C134.673 562.985 134.713 563.309 134.793 563.613C134.874 563.914 134.994 564.18 135.155 564.413C135.32 564.646 135.526 564.83 135.771 564.965C136.016 565.097 136.302 565.162 136.628 565.162C136.95 565.162 137.231 565.097 137.472 564.965C137.718 564.83 137.921 564.646 138.082 564.413C138.242 564.18 138.363 563.914 138.443 563.613C138.528 563.309 138.57 562.985 138.57 562.642V562.496C138.57 562.158 138.528 561.838 138.443 561.538C138.363 561.233 138.24 560.964 138.075 560.731C137.914 560.494 137.711 560.308 137.466 560.173C137.225 560.037 136.941 559.97 136.615 559.97C136.294 559.97 136.01 560.037 135.765 560.173C135.523 560.308 135.32 560.494 135.155 560.731C134.994 560.964 134.874 561.233 134.793 561.538C134.713 561.838 134.673 562.158 134.673 562.496ZM145.426 564.413V559.132H146.606V566H145.483L145.426 564.413ZM145.648 562.966L146.137 562.953C146.137 563.41 146.088 563.833 145.991 564.223C145.898 564.608 145.745 564.942 145.534 565.226C145.322 565.509 145.045 565.731 144.702 565.892C144.359 566.049 143.943 566.127 143.452 566.127C143.117 566.127 142.811 566.078 142.531 565.981C142.256 565.884 142.019 565.733 141.82 565.53C141.621 565.327 141.467 565.063 141.357 564.737C141.251 564.411 141.198 564.02 141.198 563.562V559.132H142.373V563.575C142.373 563.884 142.406 564.14 142.474 564.343C142.546 564.542 142.641 564.701 142.76 564.819C142.882 564.934 143.018 565.014 143.166 565.061C143.318 565.107 143.475 565.13 143.636 565.13C144.135 565.13 144.531 565.035 144.823 564.845C145.115 564.65 145.324 564.39 145.451 564.064C145.582 563.734 145.648 563.368 145.648 562.966ZM151.272 559.132V560.033H147.559V559.132H151.272ZM148.815 557.462H149.99V564.299C149.99 564.532 150.026 564.707 150.098 564.826C150.17 564.944 150.263 565.022 150.377 565.061C150.491 565.099 150.614 565.118 150.745 565.118C150.842 565.118 150.944 565.109 151.05 565.092C151.16 565.071 151.242 565.054 151.297 565.042L151.304 566C151.211 566.03 151.088 566.057 150.936 566.083C150.787 566.112 150.608 566.127 150.396 566.127C150.108 566.127 149.844 566.07 149.603 565.956C149.361 565.841 149.169 565.651 149.025 565.384C148.885 565.113 148.815 564.75 148.815 564.292V557.462ZM158.75 559.132V560.033H155.036V559.132H158.75ZM156.293 557.462H157.467V564.299C157.467 564.532 157.503 564.707 157.575 564.826C157.647 564.944 157.74 565.022 157.854 565.061C157.969 565.099 158.091 565.118 158.223 565.118C158.32 565.118 158.422 565.109 158.527 565.092C158.637 565.071 158.72 565.054 158.775 565.042L158.781 566C158.688 566.03 158.565 566.057 158.413 566.083C158.265 566.112 158.085 566.127 157.874 566.127C157.586 566.127 157.321 566.07 157.08 565.956C156.839 565.841 156.646 565.651 156.502 565.384C156.363 565.113 156.293 564.75 156.293 564.292V557.462ZM159.689 562.642V562.496C159.689 562.001 159.761 561.542 159.905 561.119C160.049 560.691 160.256 560.321 160.527 560.008C160.798 559.69 161.126 559.445 161.511 559.271C161.896 559.094 162.327 559.005 162.806 559.005C163.288 559.005 163.722 559.094 164.107 559.271C164.496 559.445 164.826 559.69 165.097 560.008C165.372 560.321 165.582 560.691 165.726 561.119C165.869 561.542 165.941 562.001 165.941 562.496V562.642C165.941 563.137 165.869 563.596 165.726 564.02C165.582 564.443 165.372 564.813 165.097 565.13C164.826 565.444 164.498 565.689 164.113 565.867C163.732 566.04 163.301 566.127 162.818 566.127C162.336 566.127 161.902 566.04 161.517 565.867C161.132 565.689 160.802 565.444 160.527 565.13C160.256 564.813 160.049 564.443 159.905 564.02C159.761 563.596 159.689 563.137 159.689 562.642ZM160.863 562.496V562.642C160.863 562.985 160.903 563.309 160.984 563.613C161.064 563.914 161.185 564.18 161.346 564.413C161.511 564.646 161.716 564.83 161.961 564.965C162.207 565.097 162.493 565.162 162.818 565.162C163.14 565.162 163.421 565.097 163.663 564.965C163.908 564.83 164.111 564.646 164.272 564.413C164.433 564.18 164.553 563.914 164.634 563.613C164.718 563.309 164.761 562.985 164.761 562.642V562.496C164.761 562.158 164.718 561.838 164.634 561.538C164.553 561.233 164.431 560.964 164.266 560.731C164.105 560.494 163.902 560.308 163.656 560.173C163.415 560.037 163.132 559.97 162.806 559.97C162.484 559.97 162.201 560.037 161.955 560.173C161.714 560.308 161.511 560.494 161.346 560.731C161.185 560.964 161.064 561.233 160.984 561.538C160.903 561.838 160.863 562.158 160.863 562.496ZM173.489 566.127C173.011 566.127 172.577 566.047 172.188 565.886C171.802 565.721 171.47 565.49 171.191 565.194C170.916 564.898 170.704 564.546 170.556 564.14C170.408 563.734 170.334 563.29 170.334 562.807V562.541C170.334 561.982 170.417 561.485 170.582 561.049C170.747 560.609 170.971 560.236 171.254 559.932C171.538 559.627 171.86 559.396 172.219 559.24C172.579 559.083 172.951 559.005 173.336 559.005C173.827 559.005 174.25 559.09 174.606 559.259C174.966 559.428 175.26 559.665 175.488 559.97C175.717 560.27 175.886 560.626 175.996 561.036C176.106 561.442 176.161 561.887 176.161 562.369V562.896H171.032V561.938H174.987V561.849C174.97 561.544 174.906 561.248 174.796 560.96C174.691 560.672 174.521 560.435 174.289 560.249C174.056 560.063 173.738 559.97 173.336 559.97C173.07 559.97 172.824 560.027 172.6 560.141C172.376 560.251 172.183 560.416 172.022 560.636C171.862 560.856 171.737 561.125 171.648 561.442C171.559 561.76 171.515 562.126 171.515 562.541V562.807C171.515 563.133 171.559 563.44 171.648 563.728C171.741 564.011 171.874 564.261 172.048 564.477C172.226 564.692 172.439 564.862 172.689 564.984C172.943 565.107 173.231 565.168 173.552 565.168C173.967 565.168 174.318 565.084 174.606 564.915C174.894 564.745 175.146 564.519 175.361 564.235L176.072 564.8C175.924 565.025 175.736 565.238 175.507 565.441C175.279 565.645 174.997 565.81 174.663 565.937C174.333 566.063 173.942 566.127 173.489 566.127ZM178.707 560.598V566H177.532V559.132H178.643L178.707 560.598ZM178.427 562.306L177.938 562.287C177.943 561.817 178.013 561.383 178.148 560.985C178.283 560.583 178.474 560.234 178.719 559.938C178.965 559.642 179.257 559.413 179.595 559.252C179.938 559.087 180.317 559.005 180.731 559.005C181.07 559.005 181.375 559.051 181.646 559.145C181.916 559.233 182.147 559.377 182.337 559.576C182.532 559.775 182.68 560.033 182.782 560.351C182.883 560.664 182.934 561.047 182.934 561.5V566H181.753V561.487C181.753 561.127 181.701 560.839 181.595 560.624C181.489 560.403 181.334 560.245 181.131 560.147C180.928 560.046 180.679 559.995 180.382 559.995C180.09 559.995 179.824 560.056 179.583 560.179C179.346 560.302 179.14 560.471 178.967 560.687C178.798 560.903 178.664 561.15 178.567 561.43C178.474 561.705 178.427 561.997 178.427 562.306ZM187.593 559.132V560.033H183.88V559.132H187.593ZM185.137 557.462H186.311V564.299C186.311 564.532 186.347 564.707 186.419 564.826C186.491 564.944 186.584 565.022 186.698 565.061C186.812 565.099 186.935 565.118 187.066 565.118C187.164 565.118 187.265 565.109 187.371 565.092C187.481 565.071 187.564 565.054 187.619 565.042L187.625 566C187.532 566.03 187.409 566.057 187.257 566.083C187.109 566.112 186.929 566.127 186.717 566.127C186.43 566.127 186.165 566.07 185.924 565.956C185.683 565.841 185.49 565.651 185.346 565.384C185.207 565.113 185.137 564.75 185.137 564.292V557.462ZM191.821 566.127C191.343 566.127 190.909 566.047 190.52 565.886C190.134 565.721 189.802 565.49 189.523 565.194C189.248 564.898 189.036 564.546 188.888 564.14C188.74 563.734 188.666 563.29 188.666 562.807V562.541C188.666 561.982 188.749 561.485 188.914 561.049C189.079 560.609 189.303 560.236 189.586 559.932C189.87 559.627 190.192 559.396 190.551 559.24C190.911 559.083 191.283 559.005 191.668 559.005C192.159 559.005 192.583 559.09 192.938 559.259C193.298 559.428 193.592 559.665 193.82 559.97C194.049 560.27 194.218 560.626 194.328 561.036C194.438 561.442 194.493 561.887 194.493 562.369V562.896H189.364V561.938H193.319V561.849C193.302 561.544 193.238 561.248 193.128 560.96C193.023 560.672 192.853 560.435 192.621 560.249C192.388 560.063 192.07 559.97 191.668 559.97C191.402 559.97 191.156 560.027 190.932 560.141C190.708 560.251 190.515 560.416 190.354 560.636C190.194 560.856 190.069 561.125 189.98 561.442C189.891 561.76 189.847 562.126 189.847 562.541V562.807C189.847 563.133 189.891 563.44 189.98 563.728C190.073 564.011 190.206 564.261 190.38 564.477C190.558 564.692 190.771 564.862 191.021 564.984C191.275 565.107 191.563 565.168 191.884 565.168C192.299 565.168 192.65 565.084 192.938 564.915C193.226 564.745 193.478 564.519 193.693 564.235L194.404 564.8C194.256 565.025 194.068 565.238 193.839 565.441C193.611 565.645 193.329 565.81 192.995 565.937C192.665 566.063 192.274 566.127 191.821 566.127ZM197.039 560.211V566H195.864V559.132H197.007L197.039 560.211ZM199.184 559.094L199.178 560.186C199.08 560.164 198.987 560.152 198.898 560.147C198.814 560.139 198.716 560.135 198.606 560.135C198.336 560.135 198.097 560.177 197.889 560.262C197.682 560.346 197.506 560.465 197.362 560.617C197.218 560.77 197.104 560.951 197.02 561.163C196.939 561.37 196.886 561.599 196.861 561.849L196.531 562.039C196.531 561.624 196.571 561.235 196.651 560.871C196.736 560.507 196.865 560.186 197.039 559.906C197.212 559.623 197.432 559.403 197.699 559.246C197.97 559.085 198.291 559.005 198.664 559.005C198.748 559.005 198.846 559.015 198.956 559.037C199.066 559.054 199.142 559.073 199.184 559.094ZM207.544 564.826V561.29C207.544 561.019 207.489 560.784 207.379 560.585C207.273 560.382 207.112 560.226 206.896 560.116C206.681 560.006 206.414 559.951 206.097 559.951C205.8 559.951 205.54 560.001 205.316 560.103C205.096 560.205 204.922 560.338 204.795 560.503C204.673 560.668 204.611 560.846 204.611 561.036H203.437C203.437 560.791 203.5 560.547 203.627 560.306C203.754 560.065 203.936 559.847 204.173 559.652C204.415 559.453 204.702 559.297 205.037 559.183C205.375 559.064 205.752 559.005 206.167 559.005C206.666 559.005 207.106 559.09 207.487 559.259C207.872 559.428 208.172 559.684 208.388 560.027C208.608 560.365 208.718 560.791 208.718 561.303V564.502C208.718 564.73 208.737 564.974 208.775 565.232C208.818 565.49 208.879 565.712 208.959 565.898V566H207.734C207.675 565.865 207.629 565.685 207.595 565.46C207.561 565.232 207.544 565.02 207.544 564.826ZM207.747 561.836L207.76 562.661H206.573C206.238 562.661 205.94 562.689 205.678 562.744C205.415 562.794 205.195 562.873 205.018 562.979C204.84 563.084 204.704 563.218 204.611 563.378C204.518 563.535 204.472 563.719 204.472 563.931C204.472 564.146 204.52 564.343 204.618 564.521C204.715 564.699 204.861 564.84 205.056 564.946C205.255 565.048 205.498 565.099 205.786 565.099C206.145 565.099 206.463 565.022 206.738 564.87C207.013 564.718 207.231 564.532 207.392 564.312C207.557 564.091 207.646 563.878 207.658 563.67L208.16 564.235C208.13 564.413 208.05 564.61 207.918 564.826C207.787 565.042 207.612 565.249 207.392 565.448C207.176 565.642 206.918 565.805 206.617 565.937C206.321 566.063 205.987 566.127 205.614 566.127C205.149 566.127 204.74 566.036 204.389 565.854C204.042 565.672 203.771 565.429 203.577 565.124C203.386 564.815 203.291 564.47 203.291 564.089C203.291 563.721 203.363 563.397 203.507 563.118C203.651 562.835 203.858 562.6 204.129 562.414C204.4 562.223 204.726 562.079 205.106 561.982C205.487 561.885 205.913 561.836 206.382 561.836H207.747ZM213.784 556.25H214.964V564.667L214.863 566H213.784V556.25ZM219.604 562.509V562.642C219.604 563.141 219.545 563.605 219.427 564.032C219.308 564.455 219.135 564.824 218.906 565.137C218.678 565.45 218.398 565.693 218.068 565.867C217.738 566.04 217.36 566.127 216.932 566.127C216.496 566.127 216.113 566.053 215.783 565.905C215.457 565.752 215.182 565.535 214.958 565.251C214.734 564.967 214.554 564.625 214.418 564.223C214.287 563.821 214.196 563.368 214.146 562.864V562.28C214.196 561.772 214.287 561.318 214.418 560.916C214.554 560.514 214.734 560.171 214.958 559.887C215.182 559.599 215.457 559.382 215.783 559.233C216.109 559.081 216.488 559.005 216.919 559.005C217.351 559.005 217.734 559.09 218.068 559.259C218.403 559.424 218.682 559.661 218.906 559.97C219.135 560.279 219.308 560.649 219.427 561.081C219.545 561.508 219.604 561.984 219.604 562.509ZM218.424 562.642V562.509C218.424 562.166 218.392 561.844 218.329 561.544C218.265 561.239 218.164 560.973 218.024 560.744C217.884 560.511 217.7 560.329 217.472 560.198C217.243 560.063 216.962 559.995 216.627 559.995C216.331 559.995 216.073 560.046 215.853 560.147C215.637 560.249 215.453 560.387 215.301 560.56C215.148 560.729 215.024 560.924 214.926 561.144C214.833 561.36 214.763 561.584 214.717 561.817V563.347C214.785 563.643 214.895 563.929 215.047 564.204C215.203 564.474 215.411 564.697 215.669 564.87C215.931 565.044 216.255 565.13 216.64 565.13C216.958 565.13 217.228 565.067 217.453 564.94C217.681 564.809 217.865 564.629 218.005 564.4C218.149 564.172 218.255 563.907 218.322 563.607C218.39 563.306 218.424 562.985 218.424 562.642ZM222.264 560.211V566H221.09V559.132H222.232L222.264 560.211ZM224.41 559.094L224.403 560.186C224.306 560.164 224.213 560.152 224.124 560.147C224.039 560.139 223.942 560.135 223.832 560.135C223.561 560.135 223.322 560.177 223.115 560.262C222.907 560.346 222.732 560.465 222.588 560.617C222.444 560.77 222.33 560.951 222.245 561.163C222.165 561.37 222.112 561.599 222.086 561.849L221.756 562.039C221.756 561.624 221.797 561.235 221.877 560.871C221.962 560.507 222.091 560.186 222.264 559.906C222.438 559.623 222.658 559.403 222.924 559.246C223.195 559.085 223.517 559.005 223.889 559.005C223.974 559.005 224.071 559.015 224.181 559.037C224.291 559.054 224.367 559.073 224.41 559.094ZM229.291 564.826V561.29C229.291 561.019 229.236 560.784 229.126 560.585C229.02 560.382 228.859 560.226 228.644 560.116C228.428 560.006 228.161 559.951 227.844 559.951C227.548 559.951 227.287 560.001 227.063 560.103C226.843 560.205 226.669 560.338 226.542 560.503C226.42 560.668 226.358 560.846 226.358 561.036H225.184C225.184 560.791 225.248 560.547 225.375 560.306C225.501 560.065 225.683 559.847 225.92 559.652C226.162 559.453 226.449 559.297 226.784 559.183C227.122 559.064 227.499 559.005 227.914 559.005C228.413 559.005 228.853 559.09 229.234 559.259C229.619 559.428 229.919 559.684 230.135 560.027C230.355 560.365 230.465 560.791 230.465 561.303V564.502C230.465 564.73 230.484 564.974 230.522 565.232C230.565 565.49 230.626 565.712 230.707 565.898V566H229.481C229.422 565.865 229.376 565.685 229.342 565.46C229.308 565.232 229.291 565.02 229.291 564.826ZM229.494 561.836L229.507 562.661H228.32C227.986 562.661 227.687 562.689 227.425 562.744C227.162 562.794 226.942 562.873 226.765 562.979C226.587 563.084 226.451 563.218 226.358 563.378C226.265 563.535 226.219 563.719 226.219 563.931C226.219 564.146 226.267 564.343 226.365 564.521C226.462 564.699 226.608 564.84 226.803 564.946C227.002 565.048 227.245 565.099 227.533 565.099C227.892 565.099 228.21 565.022 228.485 564.87C228.76 564.718 228.978 564.532 229.139 564.312C229.304 564.091 229.393 563.878 229.405 563.67L229.907 564.235C229.877 564.413 229.797 564.61 229.666 564.826C229.534 565.042 229.359 565.249 229.139 565.448C228.923 565.642 228.665 565.805 228.364 565.937C228.068 566.063 227.734 566.127 227.361 566.127C226.896 566.127 226.487 566.036 226.136 565.854C225.789 565.672 225.518 565.429 225.324 565.124C225.133 564.815 225.038 564.47 225.038 564.089C225.038 563.721 225.11 563.397 225.254 563.118C225.398 562.835 225.605 562.6 225.876 562.414C226.147 562.223 226.473 562.079 226.854 561.982C227.234 561.885 227.66 561.836 228.129 561.836H229.494ZM233.487 560.598V566H232.312V559.132H233.423L233.487 560.598ZM233.208 562.306L232.719 562.287C232.723 561.817 232.793 561.383 232.928 560.985C233.064 560.583 233.254 560.234 233.5 559.938C233.745 559.642 234.037 559.413 234.375 559.252C234.718 559.087 235.097 559.005 235.512 559.005C235.85 559.005 236.155 559.051 236.426 559.145C236.697 559.233 236.927 559.377 237.118 559.576C237.312 559.775 237.46 560.033 237.562 560.351C237.664 560.664 237.714 561.047 237.714 561.5V566H236.534V561.487C236.534 561.127 236.481 560.839 236.375 560.624C236.269 560.403 236.115 560.245 235.912 560.147C235.708 560.046 235.459 559.995 235.163 559.995C234.871 559.995 234.604 560.056 234.363 560.179C234.126 560.302 233.921 560.471 233.747 560.687C233.578 560.903 233.444 561.15 233.347 561.43C233.254 561.705 233.208 561.997 233.208 562.306ZM243.827 564.667V556.25H245.008V566H243.929L243.827 564.667ZM239.206 562.642V562.509C239.206 561.984 239.27 561.508 239.396 561.081C239.528 560.649 239.712 560.279 239.949 559.97C240.19 559.661 240.476 559.424 240.806 559.259C241.14 559.09 241.512 559.005 241.923 559.005C242.354 559.005 242.731 559.081 243.053 559.233C243.379 559.382 243.654 559.599 243.878 559.887C244.106 560.171 244.286 560.514 244.417 560.916C244.549 561.318 244.64 561.772 244.69 562.28V562.864C244.644 563.368 244.553 563.821 244.417 564.223C244.286 564.625 244.106 564.967 243.878 565.251C243.654 565.535 243.379 565.752 243.053 565.905C242.727 566.053 242.346 566.127 241.91 566.127C241.508 566.127 241.14 566.04 240.806 565.867C240.476 565.693 240.19 565.45 239.949 565.137C239.712 564.824 239.528 564.455 239.396 564.032C239.27 563.605 239.206 563.141 239.206 562.642ZM240.387 562.509V562.642C240.387 562.985 240.421 563.306 240.488 563.607C240.56 563.907 240.67 564.172 240.818 564.4C240.966 564.629 241.155 564.809 241.383 564.94C241.612 565.067 241.885 565.13 242.202 565.13C242.591 565.13 242.911 565.048 243.161 564.883C243.415 564.718 243.618 564.5 243.77 564.229C243.922 563.958 244.041 563.664 244.125 563.347V561.817C244.075 561.584 244.001 561.36 243.903 561.144C243.81 560.924 243.688 560.729 243.535 560.56C243.387 560.387 243.203 560.249 242.983 560.147C242.767 560.046 242.511 559.995 242.215 559.995C241.893 559.995 241.616 560.063 241.383 560.198C241.155 560.329 240.966 560.511 240.818 560.744C240.67 560.973 240.56 561.239 240.488 561.544C240.421 561.844 240.387 562.166 240.387 562.509ZM251.235 560.598V566H250.061V559.132H251.171L251.235 560.598ZM250.956 562.306L250.467 562.287C250.471 561.817 250.541 561.383 250.676 560.985C250.812 560.583 251.002 560.234 251.248 559.938C251.493 559.642 251.785 559.413 252.124 559.252C252.466 559.087 252.845 559.005 253.26 559.005C253.598 559.005 253.903 559.051 254.174 559.145C254.445 559.233 254.675 559.377 254.866 559.576C255.06 559.775 255.208 560.033 255.31 560.351C255.412 560.664 255.462 561.047 255.462 561.5V566H254.282V561.487C254.282 561.127 254.229 560.839 254.123 560.624C254.017 560.403 253.863 560.245 253.66 560.147C253.457 560.046 253.207 559.995 252.911 559.995C252.619 559.995 252.352 560.056 252.111 560.179C251.874 560.302 251.669 560.471 251.495 560.687C251.326 560.903 251.193 561.15 251.095 561.43C251.002 561.705 250.956 561.997 250.956 562.306ZM260.096 566.127C259.618 566.127 259.184 566.047 258.795 565.886C258.41 565.721 258.078 565.49 257.798 565.194C257.523 564.898 257.312 564.546 257.164 564.14C257.015 563.734 256.941 563.29 256.941 562.807V562.541C256.941 561.982 257.024 561.485 257.189 561.049C257.354 560.609 257.578 560.236 257.862 559.932C258.145 559.627 258.467 559.396 258.827 559.24C259.186 559.083 259.559 559.005 259.944 559.005C260.435 559.005 260.858 559.09 261.213 559.259C261.573 559.428 261.867 559.665 262.096 559.97C262.324 560.27 262.493 560.626 262.604 561.036C262.714 561.442 262.769 561.887 262.769 562.369V562.896H257.64V561.938H261.594V561.849C261.577 561.544 261.514 561.248 261.404 560.96C261.298 560.672 261.129 560.435 260.896 560.249C260.663 560.063 260.346 559.97 259.944 559.97C259.677 559.97 259.432 560.027 259.208 560.141C258.983 560.251 258.791 560.416 258.63 560.636C258.469 560.856 258.344 561.125 258.255 561.442C258.167 561.76 258.122 562.126 258.122 562.541V562.807C258.122 563.133 258.167 563.44 258.255 563.728C258.348 564.011 258.482 564.261 258.655 564.477C258.833 564.692 259.047 564.862 259.296 564.984C259.55 565.107 259.838 565.168 260.16 565.168C260.574 565.168 260.926 565.084 261.213 564.915C261.501 564.745 261.753 564.519 261.969 564.235L262.68 564.8C262.532 565.025 262.343 565.238 262.115 565.441C261.886 565.645 261.605 565.81 261.271 565.937C260.94 566.063 260.549 566.127 260.096 566.127ZM265.879 564.781L267.644 559.132H268.418L268.266 560.255L266.469 566H265.714L265.879 564.781ZM264.692 559.132L266.196 564.845L266.304 566H265.511L263.518 559.132H264.692ZM270.106 564.8L271.541 559.132H272.709L270.716 566H269.929L270.106 564.8ZM268.589 559.132L270.316 564.686L270.513 566H269.764L267.917 560.243L267.764 559.132H268.589ZM279.99 566.127C279.512 566.127 279.078 566.047 278.688 565.886C278.303 565.721 277.971 565.49 277.692 565.194C277.417 564.898 277.205 564.546 277.057 564.14C276.909 563.734 276.835 563.29 276.835 562.807V562.541C276.835 561.982 276.917 561.485 277.083 561.049C277.248 560.609 277.472 560.236 277.755 559.932C278.039 559.627 278.361 559.396 278.72 559.24C279.08 559.083 279.452 559.005 279.837 559.005C280.328 559.005 280.751 559.09 281.107 559.259C281.467 559.428 281.761 559.665 281.989 559.97C282.218 560.27 282.387 560.626 282.497 561.036C282.607 561.442 282.662 561.887 282.662 562.369V562.896H277.533V561.938H281.488V561.849C281.471 561.544 281.407 561.248 281.297 560.96C281.192 560.672 281.022 560.435 280.79 560.249C280.557 560.063 280.239 559.97 279.837 559.97C279.571 559.97 279.325 560.027 279.101 560.141C278.877 560.251 278.684 560.416 278.523 560.636C278.363 560.856 278.238 561.125 278.149 561.442C278.06 561.76 278.016 562.126 278.016 562.541V562.807C278.016 563.133 278.06 563.44 278.149 563.728C278.242 564.011 278.375 564.261 278.549 564.477C278.727 564.692 278.94 564.862 279.19 564.984C279.444 565.107 279.732 565.168 280.053 565.168C280.468 565.168 280.819 565.084 281.107 564.915C281.395 564.745 281.646 564.519 281.862 564.235L282.573 564.8C282.425 565.025 282.237 565.238 282.008 565.441C281.78 565.645 281.498 565.81 281.164 565.937C280.834 566.063 280.443 566.127 279.99 566.127ZM284.827 559.132L286.331 561.633L287.854 559.132H289.232L286.985 562.521L289.302 566H287.943L286.356 563.423L284.77 566H283.405L285.715 562.521L283.475 559.132H284.827ZM291.657 560.452V568.641H290.476V559.132H291.555L291.657 560.452ZM296.284 562.509V562.642C296.284 563.141 296.225 563.605 296.106 564.032C295.988 564.455 295.814 564.824 295.586 565.137C295.362 565.45 295.084 565.693 294.754 565.867C294.424 566.04 294.046 566.127 293.618 566.127C293.182 566.127 292.797 566.055 292.463 565.911C292.129 565.767 291.845 565.558 291.612 565.283C291.38 565.008 291.193 564.678 291.054 564.292C290.918 563.907 290.825 563.474 290.774 562.991V562.28C290.825 561.772 290.92 561.318 291.06 560.916C291.2 560.514 291.384 560.171 291.612 559.887C291.845 559.599 292.126 559.382 292.457 559.233C292.787 559.081 293.167 559.005 293.599 559.005C294.031 559.005 294.414 559.09 294.748 559.259C295.082 559.424 295.364 559.661 295.592 559.97C295.821 560.279 295.992 560.649 296.106 561.081C296.225 561.508 296.284 561.984 296.284 562.509ZM295.104 562.642V562.509C295.104 562.166 295.068 561.844 294.996 561.544C294.924 561.239 294.812 560.973 294.659 560.744C294.511 560.511 294.321 560.329 294.088 560.198C293.855 560.063 293.578 559.995 293.256 559.995C292.96 559.995 292.702 560.046 292.482 560.147C292.266 560.249 292.082 560.387 291.93 560.56C291.777 560.729 291.653 560.924 291.555 561.144C291.462 561.36 291.392 561.584 291.346 561.817V563.461C291.43 563.757 291.549 564.036 291.701 564.299C291.854 564.557 292.057 564.766 292.311 564.927C292.564 565.084 292.884 565.162 293.269 565.162C293.586 565.162 293.859 565.097 294.088 564.965C294.321 564.83 294.511 564.646 294.659 564.413C294.812 564.18 294.924 563.914 294.996 563.613C295.068 563.309 295.104 562.985 295.104 562.642ZM300.632 566.127C300.154 566.127 299.72 566.047 299.331 565.886C298.946 565.721 298.614 565.49 298.334 565.194C298.059 564.898 297.848 564.546 297.7 564.14C297.552 563.734 297.478 563.29 297.478 562.807V562.541C297.478 561.982 297.56 561.485 297.725 561.049C297.89 560.609 298.114 560.236 298.398 559.932C298.681 559.627 299.003 559.396 299.363 559.24C299.722 559.083 300.095 559.005 300.48 559.005C300.971 559.005 301.394 559.09 301.75 559.259C302.109 559.428 302.403 559.665 302.632 559.97C302.86 560.27 303.03 560.626 303.14 561.036C303.25 561.442 303.305 561.887 303.305 562.369V562.896H298.176V561.938H302.13V561.849C302.113 561.544 302.05 561.248 301.94 560.96C301.834 560.672 301.665 560.435 301.432 560.249C301.199 560.063 300.882 559.97 300.48 559.97C300.213 559.97 299.968 560.027 299.744 560.141C299.519 560.251 299.327 560.416 299.166 560.636C299.005 560.856 298.88 561.125 298.792 561.442C298.703 561.76 298.658 562.126 298.658 562.541V562.807C298.658 563.133 298.703 563.44 298.792 563.728C298.885 564.011 299.018 564.261 299.191 564.477C299.369 564.692 299.583 564.862 299.833 564.984C300.086 565.107 300.374 565.168 300.696 565.168C301.111 565.168 301.462 565.084 301.75 564.915C302.037 564.745 302.289 564.519 302.505 564.235L303.216 564.8C303.068 565.025 302.879 565.238 302.651 565.441C302.422 565.645 302.141 565.81 301.807 565.937C301.477 566.063 301.085 566.127 300.632 566.127ZM305.85 560.211V566H304.676V559.132H305.818L305.85 560.211ZM307.996 559.094L307.989 560.186C307.892 560.164 307.799 560.152 307.71 560.147C307.625 560.139 307.528 560.135 307.418 560.135C307.147 560.135 306.908 560.177 306.701 560.262C306.493 560.346 306.318 560.465 306.174 560.617C306.03 560.77 305.916 560.951 305.831 561.163C305.751 561.37 305.698 561.599 305.672 561.849L305.342 562.039C305.342 561.624 305.382 561.235 305.463 560.871C305.548 560.507 305.677 560.186 305.85 559.906C306.024 559.623 306.244 559.403 306.51 559.246C306.781 559.085 307.103 559.005 307.475 559.005C307.56 559.005 307.657 559.015 307.767 559.037C307.877 559.054 307.953 559.073 307.996 559.094ZM310.357 559.132V566H309.176V559.132H310.357ZM309.087 557.31C309.087 557.12 309.145 556.959 309.259 556.828C309.377 556.696 309.551 556.631 309.779 556.631C310.004 556.631 310.175 556.696 310.293 556.828C310.416 556.959 310.478 557.12 310.478 557.31C310.478 557.492 310.416 557.649 310.293 557.78C310.175 557.907 310.004 557.97 309.779 557.97C309.551 557.97 309.377 557.907 309.259 557.78C309.145 557.649 309.087 557.492 309.087 557.31ZM315.092 566.127C314.614 566.127 314.18 566.047 313.791 565.886C313.406 565.721 313.074 565.49 312.794 565.194C312.519 564.898 312.308 564.546 312.16 564.14C312.012 563.734 311.938 563.29 311.938 562.807V562.541C311.938 561.982 312.02 561.485 312.185 561.049C312.35 560.609 312.574 560.236 312.858 559.932C313.141 559.627 313.463 559.396 313.823 559.24C314.182 559.083 314.555 559.005 314.94 559.005C315.431 559.005 315.854 559.09 316.209 559.259C316.569 559.428 316.863 559.665 317.092 559.97C317.32 560.27 317.49 560.626 317.6 561.036C317.71 561.442 317.765 561.887 317.765 562.369V562.896H312.636V561.938H316.59V561.849C316.573 561.544 316.51 561.248 316.4 560.96C316.294 560.672 316.125 560.435 315.892 560.249C315.659 560.063 315.342 559.97 314.94 559.97C314.673 559.97 314.428 560.027 314.204 560.141C313.979 560.251 313.787 560.416 313.626 560.636C313.465 560.856 313.34 561.125 313.251 561.442C313.163 561.76 313.118 562.126 313.118 562.541V562.807C313.118 563.133 313.163 563.44 313.251 563.728C313.345 564.011 313.478 564.261 313.651 564.477C313.829 564.692 314.043 564.862 314.292 564.984C314.546 565.107 314.834 565.168 315.156 565.168C315.57 565.168 315.922 565.084 316.209 564.915C316.497 564.745 316.749 564.519 316.965 564.235L317.676 564.8C317.528 565.025 317.339 565.238 317.111 565.441C316.882 565.645 316.601 565.81 316.267 565.937C315.937 566.063 315.545 566.127 315.092 566.127ZM320.31 560.598V566H319.136V559.132H320.247L320.31 560.598ZM320.031 562.306L319.542 562.287C319.546 561.817 319.616 561.383 319.751 560.985C319.887 560.583 320.077 560.234 320.323 559.938C320.568 559.642 320.86 559.413 321.199 559.252C321.542 559.087 321.92 559.005 322.335 559.005C322.674 559.005 322.978 559.051 323.249 559.145C323.52 559.233 323.75 559.377 323.941 559.576C324.136 559.775 324.284 560.033 324.385 560.351C324.487 560.664 324.538 561.047 324.538 561.5V566H323.357V561.487C323.357 561.127 323.304 560.839 323.198 560.624C323.092 560.403 322.938 560.245 322.735 560.147C322.532 560.046 322.282 559.995 321.986 559.995C321.694 559.995 321.427 560.056 321.186 560.179C320.949 560.302 320.744 560.471 320.57 560.687C320.401 560.903 320.268 561.15 320.17 561.43C320.077 561.705 320.031 561.997 320.031 562.306ZM329.07 565.162C329.349 565.162 329.607 565.105 329.844 564.991C330.081 564.876 330.276 564.72 330.428 564.521C330.581 564.318 330.667 564.087 330.688 563.829H331.806C331.785 564.235 331.647 564.614 331.393 564.965C331.143 565.312 330.815 565.594 330.409 565.81C330.003 566.021 329.556 566.127 329.07 566.127C328.554 566.127 328.103 566.036 327.718 565.854C327.337 565.672 327.02 565.422 326.766 565.105C326.516 564.788 326.328 564.424 326.201 564.013C326.078 563.598 326.017 563.16 326.017 562.699V562.433C326.017 561.971 326.078 561.535 326.201 561.125C326.328 560.71 326.516 560.344 326.766 560.027C327.02 559.709 327.337 559.46 327.718 559.278C328.103 559.096 328.554 559.005 329.07 559.005C329.607 559.005 330.077 559.115 330.479 559.335C330.881 559.551 331.196 559.847 331.425 560.224C331.658 560.596 331.785 561.019 331.806 561.493H330.688C330.667 561.21 330.587 560.954 330.447 560.725C330.312 560.497 330.126 560.315 329.889 560.179C329.656 560.04 329.383 559.97 329.07 559.97C328.71 559.97 328.408 560.042 328.162 560.186C327.921 560.325 327.728 560.516 327.584 560.757C327.445 560.994 327.343 561.258 327.28 561.55C327.221 561.838 327.191 562.132 327.191 562.433V562.699C327.191 563 327.221 563.296 327.28 563.588C327.339 563.88 327.438 564.144 327.578 564.381C327.722 564.618 327.915 564.809 328.156 564.953C328.401 565.092 328.706 565.162 329.07 565.162ZM335.976 566.127C335.498 566.127 335.064 566.047 334.675 565.886C334.29 565.721 333.958 565.49 333.678 565.194C333.403 564.898 333.192 564.546 333.043 564.14C332.895 563.734 332.821 563.29 332.821 562.807V562.541C332.821 561.982 332.904 561.485 333.069 561.049C333.234 560.609 333.458 560.236 333.742 559.932C334.025 559.627 334.347 559.396 334.707 559.24C335.066 559.083 335.439 559.005 335.824 559.005C336.315 559.005 336.738 559.09 337.093 559.259C337.453 559.428 337.747 559.665 337.976 559.97C338.204 560.27 338.373 560.626 338.483 561.036C338.593 561.442 338.648 561.887 338.648 562.369V562.896H333.52V561.938H337.474V561.849C337.457 561.544 337.394 561.248 337.284 560.96C337.178 560.672 337.009 560.435 336.776 560.249C336.543 560.063 336.226 559.97 335.824 559.97C335.557 559.97 335.312 560.027 335.087 560.141C334.863 560.251 334.671 560.416 334.51 560.636C334.349 560.856 334.224 561.125 334.135 561.442C334.046 561.76 334.002 562.126 334.002 562.541V562.807C334.002 563.133 334.046 563.44 334.135 563.728C334.228 564.011 334.362 564.261 334.535 564.477C334.713 564.692 334.927 564.862 335.176 564.984C335.43 565.107 335.718 565.168 336.04 565.168C336.454 565.168 336.806 565.084 337.093 564.915C337.381 564.745 337.633 564.519 337.849 564.235L338.56 564.8C338.411 565.025 338.223 565.238 337.995 565.441C337.766 565.645 337.485 565.81 337.15 565.937C336.82 566.063 336.429 566.127 335.976 566.127Z" fill="#716969"/>
<rect x="60" y="629" width="295" height="74" rx="9" fill="#001AFF"/>
<rect x="197" y="750" width="11" height="10" rx="5" fill="#DDDDDD"/>
<rect x="177" y="750" width="12" height="10" rx="5" fill="#001AFF"/>
<rect x="215" y="750" width="11" height="10" rx="5" fill="#DDDDDD"/>
<rect x="233" y="750" width="12" height="10" rx="5" fill="#DDDDDD"/>
<path d="M184.676 664.609H186.082C186.009 665.283 185.816 665.886 185.503 666.418C185.191 666.95 184.749 667.373 184.178 667.685C183.606 667.993 182.894 668.146 182.039 668.146C181.414 668.146 180.845 668.029 180.333 667.795C179.825 667.561 179.388 667.229 179.021 666.799C178.655 666.364 178.372 665.844 178.172 665.239C177.977 664.628 177.879 663.95 177.879 663.203V662.141C177.879 661.394 177.977 660.717 178.172 660.112C178.372 659.501 178.658 658.979 179.029 658.544C179.405 658.11 179.856 657.775 180.384 657.541C180.911 657.307 181.504 657.189 182.164 657.189C182.969 657.189 183.65 657.341 184.207 657.644C184.764 657.946 185.196 658.366 185.503 658.903C185.816 659.436 186.009 660.053 186.082 660.756H184.676C184.607 660.258 184.48 659.831 184.295 659.475C184.109 659.113 183.846 658.835 183.504 658.64C183.162 658.444 182.715 658.347 182.164 658.347C181.69 658.347 181.272 658.437 180.911 658.618C180.555 658.798 180.254 659.055 180.01 659.387C179.771 659.719 179.59 660.117 179.468 660.581C179.346 661.044 179.285 661.56 179.285 662.126V663.203C179.285 663.725 179.339 664.216 179.446 664.675C179.559 665.134 179.727 665.537 179.952 665.883C180.176 666.23 180.462 666.503 180.809 666.704C181.155 666.899 181.565 666.997 182.039 666.997C182.64 666.997 183.118 666.901 183.475 666.711C183.831 666.521 184.1 666.247 184.28 665.891C184.466 665.534 184.598 665.107 184.676 664.609ZM187.444 664.125V663.957C187.444 663.386 187.527 662.856 187.693 662.368C187.859 661.875 188.099 661.447 188.411 661.086C188.724 660.72 189.102 660.437 189.546 660.236C189.991 660.031 190.489 659.929 191.041 659.929C191.597 659.929 192.098 660.031 192.542 660.236C192.991 660.437 193.372 660.72 193.685 661.086C194.002 661.447 194.244 661.875 194.41 662.368C194.576 662.856 194.659 663.386 194.659 663.957V664.125C194.659 664.697 194.576 665.227 194.41 665.715C194.244 666.203 194.002 666.63 193.685 666.997C193.372 667.358 192.994 667.641 192.549 667.846C192.11 668.046 191.612 668.146 191.055 668.146C190.499 668.146 189.998 668.046 189.554 667.846C189.109 667.641 188.729 667.358 188.411 666.997C188.099 666.63 187.859 666.203 187.693 665.715C187.527 665.227 187.444 664.697 187.444 664.125ZM188.799 663.957V664.125C188.799 664.521 188.846 664.895 188.938 665.246C189.031 665.593 189.17 665.9 189.356 666.169C189.546 666.438 189.783 666.65 190.066 666.806C190.35 666.958 190.679 667.033 191.055 667.033C191.426 667.033 191.751 666.958 192.029 666.806C192.312 666.65 192.547 666.438 192.732 666.169C192.918 665.9 193.057 665.593 193.15 665.246C193.248 664.895 193.296 664.521 193.296 664.125V663.957C193.296 663.566 193.248 663.198 193.15 662.851C193.057 662.5 192.916 662.189 192.725 661.921C192.54 661.647 192.305 661.433 192.022 661.276C191.744 661.12 191.417 661.042 191.041 661.042C190.669 661.042 190.342 661.12 190.059 661.276C189.781 661.433 189.546 661.647 189.356 661.921C189.17 662.189 189.031 662.5 188.938 662.851C188.846 663.198 188.799 663.566 188.799 663.957ZM197.713 661.767V668H196.358V660.075H197.64L197.713 661.767ZM197.391 663.737L196.827 663.715C196.832 663.173 196.912 662.673 197.068 662.214C197.225 661.75 197.444 661.347 197.728 661.005C198.011 660.664 198.348 660.4 198.738 660.214C199.134 660.024 199.571 659.929 200.049 659.929C200.44 659.929 200.792 659.982 201.104 660.09C201.417 660.192 201.683 660.358 201.902 660.588C202.127 660.817 202.298 661.115 202.415 661.481C202.532 661.843 202.591 662.285 202.591 662.807V668H201.229V662.792C201.229 662.377 201.167 662.045 201.045 661.796C200.923 661.542 200.745 661.359 200.511 661.247C200.276 661.13 199.988 661.071 199.646 661.071C199.31 661.071 199.002 661.142 198.724 661.284C198.45 661.425 198.213 661.621 198.013 661.87C197.818 662.119 197.664 662.404 197.552 662.727C197.444 663.044 197.391 663.381 197.391 663.737ZM207.967 660.075V661.115H203.682V660.075H207.967ZM205.132 658.149H206.487V666.037C206.487 666.306 206.529 666.508 206.612 666.645C206.695 666.782 206.802 666.872 206.934 666.916C207.066 666.96 207.208 666.982 207.359 666.982C207.471 666.982 207.588 666.972 207.71 666.953C207.837 666.928 207.933 666.909 207.996 666.894L208.003 668C207.896 668.034 207.754 668.066 207.579 668.095C207.408 668.129 207.2 668.146 206.956 668.146C206.624 668.146 206.319 668.081 206.041 667.949C205.762 667.817 205.54 667.597 205.374 667.29C205.213 666.977 205.132 666.557 205.132 666.03V658.149ZM211.028 660.075V668H209.666V660.075H211.028ZM209.563 657.973C209.563 657.753 209.629 657.568 209.761 657.417C209.898 657.265 210.098 657.189 210.362 657.189C210.621 657.189 210.818 657.265 210.955 657.417C211.097 657.568 211.167 657.753 211.167 657.973C211.167 658.183 211.097 658.364 210.955 658.515C210.818 658.662 210.621 658.735 210.362 658.735C210.098 658.735 209.898 658.662 209.761 658.515C209.629 658.364 209.563 658.183 209.563 657.973ZM214.559 661.767V668H213.204V660.075H214.485L214.559 661.767ZM214.236 663.737L213.672 663.715C213.677 663.173 213.758 662.673 213.914 662.214C214.07 661.75 214.29 661.347 214.573 661.005C214.856 660.664 215.193 660.4 215.584 660.214C215.979 660.024 216.417 659.929 216.895 659.929C217.286 659.929 217.637 659.982 217.95 660.09C218.262 660.192 218.528 660.358 218.748 660.588C218.973 660.817 219.144 661.115 219.261 661.481C219.378 661.843 219.437 662.285 219.437 662.807V668H218.074V662.792C218.074 662.377 218.013 662.045 217.891 661.796C217.769 661.542 217.591 661.359 217.356 661.247C217.122 661.13 216.834 661.071 216.492 661.071C216.155 661.071 215.848 661.142 215.569 661.284C215.296 661.425 215.059 661.621 214.859 661.87C214.664 662.119 214.51 662.404 214.397 662.727C214.29 663.044 214.236 663.381 214.236 663.737ZM226.343 666.169V660.075H227.706V668H226.409L226.343 666.169ZM226.6 664.499L227.164 664.484C227.164 665.012 227.107 665.5 226.995 665.949C226.888 666.394 226.712 666.779 226.468 667.106C226.224 667.434 225.904 667.69 225.508 667.875C225.113 668.056 224.632 668.146 224.065 668.146C223.68 668.146 223.326 668.09 223.003 667.978C222.686 667.866 222.413 667.692 222.183 667.458C221.954 667.224 221.775 666.918 221.648 666.542C221.526 666.167 221.465 665.715 221.465 665.188V660.075H222.82V665.202C222.82 665.559 222.859 665.854 222.938 666.088C223.021 666.318 223.13 666.501 223.267 666.638C223.409 666.77 223.565 666.862 223.736 666.916C223.912 666.97 224.092 666.997 224.278 666.997C224.854 666.997 225.311 666.887 225.647 666.667C225.984 666.442 226.226 666.142 226.373 665.766C226.524 665.385 226.6 664.963 226.6 664.499ZM233.06 668.146C232.508 668.146 232.007 668.054 231.558 667.868C231.114 667.678 230.73 667.412 230.408 667.07C230.091 666.728 229.847 666.323 229.676 665.854C229.505 665.385 229.419 664.873 229.419 664.316V664.008C229.419 663.364 229.515 662.79 229.705 662.287C229.896 661.779 230.154 661.35 230.481 660.998C230.809 660.646 231.18 660.38 231.595 660.2C232.01 660.019 232.439 659.929 232.884 659.929C233.45 659.929 233.938 660.026 234.349 660.222C234.764 660.417 235.103 660.69 235.367 661.042C235.63 661.389 235.826 661.799 235.953 662.272C236.08 662.741 236.143 663.254 236.143 663.811V664.418H230.225V663.312H234.788V663.21C234.769 662.858 234.695 662.517 234.568 662.185C234.446 661.853 234.251 661.579 233.982 661.364C233.714 661.149 233.348 661.042 232.884 661.042C232.576 661.042 232.293 661.108 232.034 661.24C231.775 661.367 231.553 661.557 231.368 661.811C231.182 662.065 231.038 662.375 230.936 662.741C230.833 663.107 230.782 663.53 230.782 664.008V664.316C230.782 664.692 230.833 665.046 230.936 665.378C231.043 665.705 231.197 665.993 231.397 666.242C231.602 666.491 231.849 666.687 232.137 666.828C232.43 666.97 232.762 667.041 233.133 667.041C233.611 667.041 234.017 666.943 234.349 666.748C234.681 666.552 234.971 666.291 235.22 665.964L236.041 666.616C235.87 666.875 235.652 667.121 235.389 667.355C235.125 667.59 234.8 667.78 234.415 667.927C234.034 668.073 233.582 668.146 233.06 668.146Z" fill="white"/>
<g clip-path="url(#clip0_203_59)">
<path d="M331.336 168.318H329.636V110.477C329.636 106.081 328.939 101.727 327.585 97.6659C326.231 93.6043 324.246 89.9138 321.743 86.8052C319.241 83.6966 316.27 81.2307 313 79.5483C309.731 77.8659 306.226 77 302.687 77H204.039C196.891 77 190.037 80.527 184.983 86.8051C179.929 93.0832 177.09 101.598 177.09 110.477V427.798C177.09 436.677 179.929 445.192 184.983 451.47C190.037 457.748 196.891 461.275 204.039 461.275H302.687C309.835 461.275 316.689 457.748 321.743 451.47C326.797 445.192 329.636 436.677 329.636 427.798V209.49H331.336L331.336 168.318Z" fill="#E6E6E6"/>
<path d="M323.9 110.71V427.565C323.9 434.195 321.78 440.555 318.006 445.243C314.231 449.932 309.112 452.566 303.774 452.566H204.652C199.315 452.566 194.195 449.932 190.421 445.243C186.647 440.555 184.526 434.195 184.526 427.565V110.71C184.526 104.08 186.647 97.7206 190.421 93.032C194.195 88.3434 199.315 85.7093 204.652 85.7091H216.677C216.086 87.5128 215.861 89.4692 216.022 91.4063C216.182 93.3433 216.724 95.2016 217.598 96.8178C218.473 98.4339 219.654 99.7584 221.037 100.675C222.42 101.591 223.963 102.071 225.531 102.072H282.046C283.613 102.071 285.157 101.591 286.54 100.675C287.923 99.7583 289.104 98.4339 289.978 96.8178C290.853 95.2016 291.394 93.3433 291.555 91.4062C291.715 89.4692 291.49 87.5128 290.899 85.7091H303.774C309.112 85.7093 314.231 88.3434 318.006 93.032C321.78 97.7206 323.9 104.08 323.9 110.71Z" fill="white"/>
<path d="M63.086 392.942C62.3153 392.942 61.5705 392.597 60.9889 391.969L56.262 386.847C55.626 386.155 55.2363 385.179 55.1782 384.132C55.1201 383.085 55.3983 382.051 55.9519 381.258L90.3222 332.305C90.3904 332.205 90.4635 332.111 90.5411 332.022C91.1173 331.35 91.8742 330.968 92.6646 330.95C93.455 330.933 94.2225 331.281 94.8178 331.927L99.5481 337.048C99.8635 337.39 100.122 337.805 100.308 338.271C100.494 338.737 100.604 339.244 100.632 339.763L100.632 339.764C100.661 340.283 100.607 340.804 100.473 341.297C100.34 341.79 100.129 342.245 99.8534 342.637L65.488 391.589C65.1885 392.014 64.8192 392.355 64.4049 392.588C63.9906 392.822 63.5408 392.942 63.0859 392.942L63.086 392.942Z" fill="#001AFF"/>
<path d="M126.229 342.015C125.898 342.014 125.569 341.951 125.252 341.829C124.853 341.671 124.483 341.417 124.163 341.081C123.843 340.745 123.58 340.334 123.388 339.871L120.514 332.943C120.188 332.16 120.081 331.264 120.213 330.397C120.344 329.53 120.706 328.743 121.24 328.161C121.435 327.943 121.652 327.757 121.885 327.609L168.361 297.844C169.112 297.365 169.986 297.275 170.791 297.594C171.596 297.913 172.266 298.615 172.655 299.547L175.529 306.475C175.914 307.409 175.986 308.494 175.729 309.494C175.472 310.494 174.907 311.326 174.157 311.81L127.683 341.574C127.233 341.863 126.735 342.014 126.229 342.015Z" fill="#001AFF"/>
<path d="M125.392 343.694C124.799 343.691 124.219 343.485 123.714 343.098C123.21 342.712 122.801 342.161 122.532 341.505L119.719 334.54C119.378 333.699 119.29 332.733 119.473 331.818C119.485 331.748 119.504 331.672 119.522 331.598L119.539 331.528C119.589 331.346 119.638 331.087 119.695 330.786L119.727 330.612C119.935 329.492 120.194 328.096 120.714 327.515C120.779 327.439 120.852 327.376 120.932 327.327L141.336 311.962C141.713 311.72 142.125 311.574 142.548 311.533C142.971 311.492 143.397 311.555 143.8 311.72C144.601 312.053 145.264 312.764 145.644 313.701L150.797 326.893C151.173 327.832 151.235 328.918 150.969 329.913C150.702 330.908 150.129 331.732 149.374 332.203L126.779 343.285C126.349 343.555 125.874 343.695 125.392 343.694Z" fill="#2F2E41"/>
<path d="M110.112 307.133C122.676 307.133 132.86 294.481 132.86 278.874C132.86 263.267 122.676 250.615 110.112 250.615C97.5485 250.615 87.3637 263.267 87.3637 278.874C87.3637 294.481 97.5485 307.133 110.112 307.133Z" fill="#001AFF"/>
<path d="M104.403 461.747H98.129C97.2839 461.745 96.4736 461.328 95.8759 460.585C95.2783 459.843 94.9421 458.836 94.9412 457.787V391.78C94.9421 390.73 95.2783 389.723 95.8759 388.981C96.4736 388.238 97.2839 387.821 98.129 387.82H104.403C104.798 387.818 105.19 387.911 105.557 388.092C106.133 388.367 106.631 388.845 106.991 389.468C107.351 390.091 107.556 390.83 107.582 391.596C107.589 391.657 107.592 391.718 107.591 391.78V457.787C107.59 458.836 107.254 459.843 106.656 460.585C106.058 461.328 105.248 461.745 104.403 461.747Z" fill="#001AFF"/>
<path d="M139.372 421.28C139.342 421.218 139.309 421.158 139.274 421.1C139.188 420.848 139.08 420.609 138.951 420.388L128.257 401.802L119.445 386.494H104.416L105.478 388.337L107.37 391.627L113.231 401.807L125.791 423.629L114.149 452.681C113.673 453.863 114.485 455.564 115.951 456.472L121.566 459.946C122.124 460.3 122.739 460.491 123.364 460.506C124.155 460.506 124.814 460.141 125.09 459.45L139.563 423.334C139.677 423 139.719 422.635 139.686 422.275C139.652 421.915 139.544 421.572 139.372 421.28Z" fill="#001AFF"/>
<path d="M88.2215 360.944C87.3893 360.939 86.5914 360.531 85.9977 359.807L77.4853 349.666C76.9868 349.059 76.6643 348.264 76.5681 347.405C76.5447 347.227 76.5327 347.048 76.5321 346.867C76.5305 346.663 76.5429 346.459 76.5692 346.258C76.6647 345.425 76.9745 344.653 77.4522 344.057L95.5544 324.618C96.0449 323.989 97.2891 324.12 98.3866 324.234L98.5523 324.252C98.7545 324.279 98.9577 324.293 99.1611 324.295C99.2362 324.305 99.3234 324.3 99.4038 324.305C100.165 324.371 100.883 324.772 101.428 325.437L105.895 330.908C106.496 331.646 106.837 332.65 106.843 333.7C106.849 334.75 106.52 335.76 105.927 336.508L90.5273 359.734C90.229 360.119 89.8707 360.425 89.4744 360.633C89.078 360.841 88.6518 360.947 88.2215 360.944Z" fill="#2F2E41"/>
<path d="M109.209 290.404L109.185 289.348C110.767 289.293 112.161 289.17 113.209 288.219C113.506 287.934 113.75 287.573 113.925 287.16C114.099 286.748 114.2 286.293 114.221 285.828C114.24 285.543 114.205 285.258 114.12 284.993C114.035 284.728 113.902 284.49 113.731 284.3C113.036 283.57 111.917 283.806 111.101 284.271L110.398 284.671L111.746 272.427L112.589 272.57L111.441 282.986C112.55 282.581 113.576 282.755 114.28 283.493C114.55 283.786 114.762 284.152 114.899 284.564C115.036 284.975 115.095 285.421 115.071 285.865C115.046 286.49 114.911 287.101 114.676 287.655C114.441 288.209 114.112 288.693 113.71 289.072C112.364 290.294 110.615 290.355 109.209 290.404Z" fill="#2F2E41"/>
<path d="M121.332 273.468H116.754V274.524H121.332V273.468Z" fill="#2F2E41"/>
<path d="M106.88 273.468H102.302V274.524H106.88V273.468Z" fill="#2F2E41"/>
<path d="M130.76 402.071H90.3803C88.831 402.071 87.6175 398.98 87.6175 395.034V345.574C87.6187 339.513 89.1733 333.611 92.0561 328.722C94.9389 323.833 99.0001 320.212 103.651 318.382C103.589 318.035 103.558 317.681 103.557 317.325C103.558 315.995 103.984 314.72 104.741 313.78C105.498 312.839 106.524 312.31 107.595 312.309H113.546C114.616 312.31 115.643 312.839 116.4 313.78C117.157 314.72 117.582 315.995 117.584 317.325C117.583 317.681 117.551 318.036 117.489 318.384C119.736 319.264 121.86 320.57 123.784 322.257C124.18 322.601 124.571 322.967 124.944 323.346C128.248 326.636 130.753 331.001 132.18 335.954C132.415 336.759 132.623 337.593 132.798 338.432L132.798 338.433C133.28 340.766 133.523 343.165 133.523 345.574V395.034C133.523 398.881 132.351 401.95 130.849 402.057C130.82 402.067 130.79 402.072 130.76 402.071Z" fill="#2F2E41"/>
<path d="M108.232 420.023H92.0806C91.3481 420.022 90.6458 419.66 90.1279 419.017C89.6099 418.373 89.3186 417.501 89.3177 416.591V400.751C89.3186 399.841 89.6099 398.968 90.1279 398.325C90.6458 397.682 91.3481 397.32 92.0806 397.319H108.232C108.965 397.32 109.667 397.682 110.185 398.325C110.703 398.968 110.994 399.841 110.995 400.751V416.591C110.994 417.501 110.703 418.373 110.185 419.017C109.667 419.66 108.965 420.022 108.232 420.023Z" fill="#2F2E41"/>
<path d="M118.188 420.382C117.623 420.381 117.073 420.167 116.609 419.767C116.146 419.368 115.792 418.801 115.595 418.145L111.154 403.296C110.899 402.443 110.928 401.499 111.233 400.672C111.538 399.845 112.095 399.201 112.781 398.883L127.922 391.895C128.609 391.579 129.368 391.615 130.034 391.994C130.7 392.373 131.218 393.065 131.474 393.917L135.915 408.766C136.169 409.619 136.141 410.563 135.836 411.39C135.531 412.217 134.974 412.86 134.288 413.178L119.147 420.167C118.84 420.309 118.515 420.381 118.188 420.382Z" fill="#2F2E41"/>
<path d="M99.4171 265.508C103.633 262.482 108.746 264.804 113.1 266.073C117.753 267.43 122.672 267.723 127.058 264.983C130.708 262.702 133.606 258.204 133.954 253.052C134.278 248.235 132.094 243.103 128.401 241.296C124.638 239.455 119.848 241.864 118.475 246.66L119.641 246.471C115.131 239.116 109.571 231.526 101.814 230.094C98.3332 229.451 94.6186 230.036 91.6446 232.505C88.8571 234.819 87.0617 238.392 86.0032 242.283C84.775 246.798 84.4537 251.633 84.2314 256.361C84.1836 257.379 85.4589 257.376 85.5066 256.361C85.8556 248.936 86.4219 239.98 91.3089 234.792C93.8456 232.1 97.233 231.162 100.503 231.487C103.978 231.833 107.199 233.622 109.991 236.153C113.338 239.186 116.045 243.202 118.54 247.271C118.606 247.4 118.7 247.504 118.812 247.569C118.924 247.634 119.048 247.658 119.171 247.638C119.293 247.618 119.409 247.555 119.503 247.456C119.598 247.358 119.668 247.228 119.705 247.081C120.807 243.231 124.672 241.435 127.681 242.652C131.083 244.029 132.964 248.821 132.678 253.052C132.352 257.897 129.367 261.971 125.916 263.911C121.758 266.247 117.203 265.676 112.901 264.386C108.331 263.016 103.17 260.985 98.7735 264.141C98.6337 264.25 98.5335 264.423 98.4943 264.623C98.4551 264.823 98.4798 265.033 98.5633 265.211C98.6468 265.388 98.7825 265.518 98.9418 265.574C99.1011 265.629 99.2715 265.606 99.4171 265.508Z" fill="#2F2E41"/>
<path d="M209.936 115.097C208.15 115.097 206.381 115.534 204.731 116.383C203.081 117.232 201.581 118.476 200.318 120.045C199.055 121.614 198.053 123.477 197.37 125.527C196.686 127.577 196.334 129.774 196.334 131.993C196.334 134.212 196.686 136.409 197.37 138.459C198.053 140.509 199.055 142.371 200.318 143.94C201.581 145.509 203.081 146.754 204.731 147.603C206.381 148.452 208.15 148.889 209.936 148.889H209.936C213.543 148.889 217.003 147.109 219.554 143.94C222.105 140.772 223.538 136.474 223.538 131.993C223.538 127.512 222.105 123.214 219.554 120.045C217.003 116.877 213.543 115.097 209.936 115.097Z" fill="#F2F2F2"/>
<path d="M308.692 146.249H237.283C236.381 146.249 235.516 145.804 234.879 145.012C234.241 144.22 233.883 143.146 233.883 142.025C233.883 140.905 234.241 139.831 234.879 139.038C235.516 138.246 236.381 137.801 237.283 137.801H308.692C309.594 137.801 310.458 138.246 311.096 139.038C311.734 139.831 312.092 140.905 312.092 142.025C312.092 143.146 311.734 144.22 311.096 145.012C310.458 145.804 309.594 146.249 308.692 146.249Z" fill="#F2F2F2"/>
<path d="M259.811 128.297H237.283C236.381 128.297 235.516 127.852 234.879 127.06C234.241 126.268 233.883 125.193 233.883 124.073C233.883 122.953 234.241 121.878 234.879 121.086C235.516 120.294 236.381 119.849 237.283 119.849H259.811C260.713 119.849 261.578 120.294 262.215 121.086C262.853 121.878 263.211 122.953 263.211 124.073C263.211 125.193 262.853 126.268 262.215 127.06C261.578 127.852 260.713 128.297 259.811 128.297Z" fill="#F2F2F2"/>
<path d="M209.936 185.85C208.15 185.85 206.381 186.287 204.731 187.136C203.081 187.985 201.581 189.23 200.318 190.799C199.055 192.368 198.053 194.23 197.37 196.28C196.686 198.33 196.334 200.528 196.334 202.746C196.334 204.965 196.686 207.162 197.37 209.212C198.053 211.262 199.055 213.125 200.318 214.694C201.581 216.263 203.081 217.507 204.731 218.357C206.381 219.206 208.15 219.643 209.936 219.643H209.936C213.543 219.643 217.003 217.863 219.554 214.694C222.105 211.525 223.538 207.228 223.538 202.746C223.538 198.265 222.105 193.968 219.554 190.799C217.003 187.63 213.543 185.85 209.936 185.85Z" fill="#F2F2F2"/>
<path d="M308.692 217.003H237.283C236.381 217.003 235.516 216.558 234.879 215.766C234.241 214.973 233.883 213.899 233.883 212.779C233.883 211.658 234.241 210.584 234.879 209.792C235.516 209 236.381 208.555 237.283 208.555H308.692C309.594 208.555 310.458 209 311.096 209.792C311.734 210.584 312.092 211.658 312.092 212.779C312.092 213.899 311.734 214.973 311.096 215.766C310.458 216.558 309.594 217.003 308.692 217.003Z" fill="#F2F2F2"/>
<path d="M259.811 199.05H237.283C236.381 199.05 235.516 198.605 234.879 197.813C234.241 197.021 233.883 195.947 233.883 194.826C233.883 193.706 234.241 192.632 234.879 191.839C235.516 191.047 236.381 190.602 237.283 190.602H259.811C260.713 190.602 261.578 191.047 262.215 191.839C262.853 192.632 263.211 193.706 263.211 194.826C263.211 195.947 262.853 197.021 262.215 197.813C261.578 198.605 260.713 199.05 259.811 199.05Z" fill="#F2F2F2"/>
<path d="M209.936 327.357C206.329 327.357 202.869 329.137 200.318 332.306C197.767 335.475 196.334 339.772 196.334 344.253C196.334 348.735 197.767 353.032 200.318 356.201C202.869 359.37 206.329 361.15 209.936 361.15H209.936C213.543 361.15 217.003 359.37 219.554 356.201C222.105 353.032 223.538 348.735 223.538 344.253C223.538 339.772 222.105 335.475 219.554 332.306C217.003 329.137 213.543 327.357 209.936 327.357Z" fill="#F2F2F2"/>
<path d="M308.692 358.51H237.283C236.381 358.51 235.516 358.065 234.879 357.273C234.241 356.48 233.883 355.406 233.883 354.286C233.883 353.165 234.241 352.091 234.879 351.299C235.516 350.507 236.381 350.062 237.283 350.062H308.692C309.594 350.062 310.458 350.507 311.096 351.299C311.734 352.091 312.092 353.165 312.092 354.286C312.092 355.406 311.734 356.48 311.096 357.273C310.458 358.065 309.594 358.51 308.692 358.51Z" fill="#F2F2F2"/>
<path d="M259.811 340.557H237.283C236.381 340.557 235.516 340.112 234.879 339.32C234.241 338.528 233.883 337.454 233.883 336.333C233.883 335.213 234.241 334.139 234.879 333.346C235.516 332.554 236.381 332.109 237.283 332.109H259.811C260.713 332.109 261.578 332.554 262.215 333.346C262.853 334.139 263.211 335.213 263.211 336.333C263.211 337.454 262.853 338.528 262.215 339.32C261.578 340.112 260.713 340.557 259.811 340.557Z" fill="#F2F2F2"/>
<path d="M209.936 398.111C208.15 398.111 206.381 398.548 204.731 399.397C203.081 400.246 201.581 401.49 200.318 403.059C199.055 404.628 198.053 406.491 197.37 408.541C196.686 410.591 196.334 412.788 196.334 415.007C196.334 417.226 196.686 419.423 197.37 421.473C198.053 423.523 199.055 425.385 200.318 426.954C201.581 428.523 203.081 429.768 204.731 430.617C206.381 431.466 208.15 431.903 209.936 431.903H209.936C213.543 431.903 217.003 430.123 219.554 426.954C222.105 423.786 223.538 419.488 223.538 415.007C223.538 410.526 222.105 406.228 219.554 403.059C217.003 399.891 213.543 398.111 209.936 398.111Z" fill="#F2F2F2"/>
<path d="M308.692 429.263H237.283C236.381 429.263 235.516 428.818 234.879 428.026C234.241 427.234 233.883 426.16 233.883 425.039C233.883 423.919 234.241 422.845 234.879 422.052C235.516 421.26 236.381 420.815 237.283 420.815H308.692C309.594 420.815 310.458 421.26 311.096 422.052C311.734 422.845 312.092 423.919 312.092 425.039C312.092 426.16 311.734 427.234 311.096 428.026C310.458 428.818 309.594 429.263 308.692 429.263Z" fill="#F2F2F2"/>
<path d="M259.811 411.311H237.283C236.381 411.311 235.516 410.866 234.879 410.074C234.241 409.282 233.883 408.207 233.883 407.087C233.883 405.967 234.241 404.892 234.879 404.1C235.516 403.308 236.381 402.863 237.283 402.863H259.811C260.713 402.863 261.578 403.308 262.215 404.1C262.853 404.892 263.211 405.967 263.211 407.087C263.211 408.207 262.853 409.282 262.215 410.074C261.578 410.866 260.713 411.311 259.811 411.311Z" fill="#F2F2F2"/>
<path d="M336.248 314.157H172.178C170.319 314.154 168.536 313.236 167.222 311.602C165.907 309.969 165.167 307.755 165.165 305.445V239.971C165.167 237.662 165.907 235.447 167.222 233.814C168.536 232.18 170.319 231.262 172.178 231.259H336.248C338.108 231.262 339.89 232.18 341.205 233.814C342.52 235.447 343.259 237.662 343.262 239.971V305.445C343.259 307.755 342.52 309.969 341.205 311.602C339.89 313.236 338.108 314.154 336.248 314.157Z" fill="white"/>
<path d="M209.936 255.812C206.329 255.812 202.869 257.592 200.318 260.76C197.767 263.929 196.334 268.227 196.334 272.708C196.334 277.189 197.767 281.487 200.318 284.655C202.869 287.824 206.329 289.604 209.936 289.604H209.936C213.543 289.604 217.003 287.824 219.554 284.656C222.105 281.487 223.538 277.189 223.538 272.708C223.538 268.227 222.105 263.929 219.554 260.76C217.003 257.592 213.543 255.812 209.936 255.812Z" fill="#001AFF"/>
<path d="M308.692 286.964H237.283C236.381 286.964 235.516 286.519 234.879 285.727C234.241 284.935 233.883 283.861 233.883 282.74C233.883 281.62 234.241 280.546 234.879 279.753C235.516 278.961 236.381 278.516 237.283 278.516H308.692C309.594 278.516 310.458 278.961 311.096 279.753C311.734 280.546 312.092 281.62 312.092 282.74C312.092 283.861 311.734 284.935 311.096 285.727C310.458 286.519 309.594 286.964 308.692 286.964Z" fill="#CCCCCC"/>
<path d="M259.811 269.012H237.283C236.381 269.012 235.516 268.567 234.879 267.775C234.241 266.983 233.883 265.908 233.883 264.788C233.883 263.668 234.241 262.593 234.879 261.801C235.516 261.009 236.381 260.564 237.283 260.564H259.811C260.713 260.564 261.578 261.009 262.215 261.801C262.853 262.593 263.211 263.668 263.211 264.788C263.211 265.908 262.853 266.983 262.215 267.775C261.578 268.567 260.713 269.012 259.811 269.012Z" fill="#CCCCCC"/>
<path d="M336.248 314.157H172.178C170.319 314.154 168.536 313.236 167.222 311.602C165.907 309.969 165.167 307.755 165.165 305.445V239.971C165.167 237.662 165.907 235.447 167.222 233.814C168.536 232.18 170.319 231.262 172.178 231.259H336.248C338.108 231.262 339.89 232.18 341.205 233.814C342.52 235.447 343.259 237.662 343.262 239.971V305.445C343.259 307.755 342.52 309.969 341.205 311.602C339.89 313.236 338.108 314.154 336.248 314.157ZM172.178 231.787C170.432 231.79 168.757 232.653 167.522 234.187C166.287 235.721 165.592 237.801 165.59 239.971V305.445C165.592 307.615 166.287 309.695 167.522 311.229C168.757 312.763 170.432 313.626 172.178 313.629H336.248C337.995 313.626 339.67 312.763 340.905 311.229C342.14 309.695 342.835 307.615 342.836 305.445V239.971C342.835 237.801 342.14 235.721 340.905 234.187C339.67 232.653 337.995 231.79 336.248 231.787H172.178Z" fill="#3F3D56"/>
<path d="M208.645 279.725C208.287 279.726 207.939 279.582 207.652 279.315L207.635 279.299L203.894 275.744C203.545 275.411 203.316 274.919 203.259 274.376C203.201 273.833 203.319 273.285 203.587 272.85C203.856 272.416 204.251 272.132 204.688 272.06C205.125 271.988 205.567 272.134 205.917 272.467L208.34 274.775L214.065 265.496C214.197 265.281 214.363 265.101 214.552 264.965C214.741 264.829 214.949 264.741 215.166 264.706C215.382 264.67 215.602 264.688 215.813 264.758C216.023 264.828 216.221 264.949 216.394 265.114L216.395 265.115L216.359 265.176L216.396 265.115C216.745 265.448 216.974 265.94 217.031 266.483C217.089 267.025 216.971 267.574 216.703 268.009L209.969 278.917C209.813 279.169 209.613 279.372 209.384 279.512C209.154 279.651 208.902 279.724 208.647 279.723L208.645 279.725Z" fill="white"/>
<path d="M413.575 462H0.425082C0.312351 462 0.204237 461.944 0.124525 461.845C0.0448123 461.746 3.05176e-05 461.612 3.05176e-05 461.472C3.05176e-05 461.332 0.0448123 461.198 0.124525 461.099C0.204237 461 0.312351 460.944 0.425082 460.944H413.575C413.688 460.944 413.796 461 413.876 461.099C413.955 461.198 414 461.332 414 461.472C414 461.612 413.955 461.746 413.876 461.845C413.796 461.944 413.688 462 413.575 462Z" fill="#CCCCCC"/>
<path d="M210.185 144.943C209.563 144.949 208.947 144.818 208.377 144.561C207.807 144.303 207.295 143.924 206.876 143.447C206.378 142.849 206.004 142.15 205.779 141.395C205.553 140.64 205.481 139.844 205.566 139.059C205.685 137.562 206.289 136.152 207.279 135.058C207.755 134.524 208.331 134.096 208.972 133.802C209.613 133.507 210.305 133.351 211.006 133.344C211.657 133.341 212.302 133.48 212.898 133.753C213.495 134.026 214.029 134.426 214.466 134.928C214.963 135.51 215.338 136.193 215.567 136.933C215.796 137.673 215.876 138.455 215.799 139.228C215.707 140.816 215.047 142.311 213.95 143.42C212.928 144.408 211.581 144.953 210.185 144.943ZM211.006 135.277C209.183 135.277 207.609 137.013 207.421 139.228C207.359 139.747 207.4 140.273 207.543 140.774C207.685 141.276 207.925 141.741 208.249 142.141C208.493 142.421 208.793 142.643 209.127 142.793C209.461 142.942 209.821 143.016 210.185 143.01C211.889 143.01 213.713 141.788 213.945 139.058C213.998 138.552 213.95 138.04 213.804 137.553C213.657 137.067 213.415 136.618 213.093 136.233C212.829 135.931 212.507 135.689 212.147 135.524C211.788 135.36 211.399 135.275 211.006 135.277Z" fill="#3F3D56"/>
<path d="M210.246 150.743C208.805 150.767 207.377 150.473 206.054 149.88C204.732 149.288 203.546 148.41 202.575 147.305C201.604 146.2 200.871 144.893 200.423 143.472C199.976 142.05 199.825 140.546 199.98 139.059C200.285 135.938 201.683 133.042 203.907 130.92C206.132 128.797 209.03 127.596 212.051 127.544C215.402 127.544 218.16 128.662 220.026 130.778C221.795 132.784 222.624 135.607 222.359 138.729C222.108 141.686 220.9 143.226 219.93 143.997C219.502 144.359 219.008 144.627 218.477 144.785C217.946 144.943 217.389 144.988 216.841 144.916C215.309 144.634 213.614 143.189 213.881 140.043L214.374 134.229C214.397 133.974 214.516 133.74 214.705 133.576C214.894 133.412 215.138 133.333 215.383 133.355C215.628 133.378 215.855 133.5 216.013 133.696C216.172 133.891 216.249 134.144 216.229 134.398L215.735 140.213C215.603 141.777 216.138 142.823 217.166 143.013C217.759 143.06 218.345 142.862 218.798 142.462C219.47 141.927 220.313 140.816 220.504 138.559C220.726 135.947 220.086 133.708 218.653 132.083C217.149 130.379 214.866 129.478 212.051 129.478C209.495 129.528 207.045 130.547 205.164 132.343C203.282 134.139 202.098 136.588 201.835 139.228C201.702 140.448 201.822 141.683 202.186 142.85C202.551 144.018 203.151 145.092 203.948 145.999C204.744 146.906 205.718 147.626 206.804 148.111C207.89 148.596 209.064 148.834 210.246 148.809C211.704 148.891 213.16 148.617 214.498 148.009C214.725 147.911 214.981 147.91 215.209 148.007C215.437 148.105 215.618 148.291 215.713 148.527C215.809 148.763 215.81 149.028 215.718 149.265C215.625 149.502 215.446 149.691 215.219 149.791C213.653 150.499 211.952 150.824 210.246 150.743Z" fill="#3F3D56"/>
<path d="M211.172 163.202C206.589 163.202 202.109 161.791 198.298 159.147C194.488 156.504 191.518 152.746 189.764 148.35C188.01 143.954 187.551 139.117 188.445 134.45C189.339 129.783 191.546 125.496 194.787 122.132C198.027 118.767 202.156 116.476 206.651 115.547C211.146 114.619 215.805 115.096 220.039 116.917C224.273 118.737 227.892 121.821 230.438 125.777C232.984 129.734 234.343 134.385 234.343 139.143C234.336 145.522 231.893 151.637 227.549 156.147C223.205 160.657 217.315 163.194 211.172 163.202ZM211.172 116.154C206.792 116.154 202.512 117.503 198.87 120.029C195.229 122.555 192.391 126.145 190.715 130.346C189.039 134.547 188.601 139.169 189.455 143.628C190.31 148.088 192.418 152.184 195.515 155.399C198.612 158.614 202.557 160.804 206.852 161.691C211.147 162.578 215.599 162.122 219.645 160.382C223.691 158.642 227.149 155.696 229.582 151.915C232.015 148.135 233.313 143.69 233.313 139.143C233.307 133.048 230.972 127.205 226.821 122.895C222.67 118.586 217.042 116.161 211.172 116.154Z" fill="#CCCCCC"/>
<path d="M92.3503 163.202L201.072 163.246C201.209 163.246 201.34 163.19 201.436 163.089C201.533 162.989 201.587 162.853 201.587 162.711C201.587 162.57 201.533 162.434 201.436 162.333C201.34 162.233 201.209 162.177 201.072 162.177L92.3503 162.132C92.2138 162.132 92.0828 162.189 91.9862 162.289C91.8896 162.389 91.8354 162.525 91.8354 162.667C91.8354 162.809 91.8896 162.945 91.9862 163.045C92.0828 163.145 92.2138 163.202 92.3503 163.202Z" fill="#CCCCCC"/>
<path d="M91.209 170.686C95.1904 170.686 98.4179 167.335 98.4179 163.202C98.4179 159.068 95.1904 155.717 91.209 155.717C87.2276 155.717 84 159.068 84 163.202C84 167.335 87.2276 170.686 91.209 170.686Z" fill="#001AFF"/>
<path d="M364.237 226.446L255.515 226.49C255.379 226.49 255.248 226.434 255.151 226.333C255.055 226.233 255 226.097 255 225.955C255 225.813 255.055 225.677 255.151 225.577C255.248 225.477 255.379 225.421 255.515 225.421L364.237 225.376C364.374 225.376 364.505 225.433 364.602 225.533C364.698 225.633 364.752 225.769 364.752 225.911C364.752 226.053 364.698 226.189 364.602 226.289C364.505 226.389 364.374 226.446 364.237 226.446Z" fill="#CCCCCC"/>
<path d="M365.379 233.93C369.36 233.93 372.588 230.579 372.588 226.446C372.588 222.312 369.36 218.961 365.379 218.961C361.397 218.961 358.17 222.312 358.17 226.446C358.17 230.579 361.397 233.93 365.379 233.93Z" fill="#001AFF"/>
<path d="M257.172 226.49C252.589 226.49 248.109 225.079 244.298 222.435C240.488 219.792 237.518 216.034 235.764 211.638C234.01 207.242 233.551 202.405 234.445 197.738C235.339 193.071 237.546 188.785 240.787 185.42C244.027 182.055 248.156 179.764 252.651 178.836C257.146 177.907 261.805 178.384 266.039 180.205C270.273 182.026 273.892 185.109 276.438 189.066C278.984 193.022 280.343 197.673 280.343 202.432C280.336 208.81 277.893 214.925 273.549 219.435C269.205 223.946 263.315 226.483 257.172 226.49ZM257.172 179.443C252.792 179.443 248.512 180.791 244.87 183.317C241.229 185.843 238.391 189.433 236.715 193.634C235.039 197.835 234.601 202.457 235.455 206.917C236.31 211.376 238.418 215.472 241.515 218.687C244.612 221.902 248.557 224.092 252.852 224.979C257.147 225.866 261.599 225.411 265.645 223.671C269.691 221.931 273.149 218.984 275.582 215.204C278.015 211.423 279.313 206.978 279.313 202.432C279.307 196.337 276.972 190.493 272.821 186.184C268.67 181.874 263.042 179.45 257.172 179.443Z" fill="#CCCCCC"/>
<path d="M249.703 216.565C249.47 216.564 249.241 216.503 249.037 216.387C248.833 216.271 248.66 216.104 248.533 215.901C248.407 215.697 248.332 215.465 248.314 215.224C248.296 214.983 248.336 214.741 248.431 214.52L250.042 210.788C247.822 208.741 246.408 205.914 246.071 202.851C245.734 199.788 246.498 196.703 248.217 194.189C249.936 191.675 252.488 189.908 255.384 189.227C258.28 188.546 261.316 188.999 263.911 190.499C266.505 191.999 268.474 194.441 269.441 197.356C270.409 200.271 270.305 203.454 269.151 206.295C267.997 209.136 265.874 211.434 263.188 212.75C260.503 214.065 257.444 214.305 254.599 213.423L250.487 216.313C250.256 216.477 249.983 216.565 249.703 216.565ZM258.017 190.761C255.875 190.759 253.786 191.45 252.038 192.737C250.291 194.023 248.973 195.843 248.267 197.942C247.56 200.042 247.5 202.317 248.095 204.454C248.69 206.59 249.91 208.482 251.586 209.866L252.094 210.286L250.361 214.302L254.339 211.506L254.732 211.643C256.151 212.138 257.656 212.306 259.144 212.137C260.632 211.968 262.067 211.465 263.349 210.662C264.631 209.86 265.73 208.778 266.569 207.491C267.409 206.204 267.968 204.743 268.21 203.209C268.451 201.675 268.368 200.105 267.967 198.608C267.566 197.11 266.856 195.721 265.886 194.537C264.917 193.353 263.711 192.402 262.352 191.75C260.993 191.098 259.514 190.76 258.017 190.761Z" fill="#3F3D56"/>
<path d="M258.017 202.643C258.942 202.643 259.692 201.864 259.692 200.904C259.692 199.944 258.942 199.165 258.017 199.165C257.092 199.165 256.342 199.944 256.342 200.904C256.342 201.864 257.092 202.643 258.017 202.643Z" fill="#3F3D56"/>
<path d="M253.272 202.643C254.196 202.643 254.946 201.864 254.946 200.904C254.946 199.944 254.196 199.165 253.272 199.165C252.347 199.165 251.597 199.944 251.597 200.904C251.597 201.864 252.347 202.643 253.272 202.643Z" fill="#3F3D56"/>
<path d="M262.762 202.643C263.687 202.643 264.437 201.864 264.437 200.904C264.437 199.944 263.687 199.165 262.762 199.165C261.837 199.165 261.087 199.944 261.087 200.904C261.087 201.864 261.837 202.643 262.762 202.643Z" fill="#3F3D56"/>
</g>
<defs>
<clipPath id="clip0_203_59">
<rect width="414" height="385" fill="white" transform="translate(0 77)"/>
</clipPath>
</defs>
</svg>
