<svg width="414" height="896" viewBox="0 0 414 896" fill="none" xmlns="http://www.w3.org/2000/svg">
<g clip-path="url(#clip0_4_241)">
<rect width="414" height="896" fill="white"/>
<path d="M172.842 515.454H167.779V518.882H173.721V521H165.143V508.203H173.703V510.339H167.779V513.389H172.842V515.454ZM178.432 517.897L180.198 511.49H182.853L179.645 521H177.219L174.011 511.49H176.665L178.432 517.897ZM183.441 516.157C183.441 515.214 183.623 514.373 183.986 513.635C184.35 512.896 184.871 512.325 185.551 511.921C186.236 511.517 187.03 511.314 187.933 511.314C189.216 511.314 190.262 511.707 191.07 512.492C191.885 513.277 192.339 514.344 192.433 515.691L192.45 516.342C192.45 517.801 192.043 518.973 191.229 519.857C190.414 520.736 189.321 521.176 187.95 521.176C186.579 521.176 185.483 520.736 184.663 519.857C183.849 518.979 183.441 517.783 183.441 516.271V516.157ZM185.981 516.342C185.981 517.244 186.151 517.936 186.491 518.416C186.831 518.891 187.317 519.128 187.95 519.128C188.565 519.128 189.046 518.894 189.392 518.425C189.737 517.95 189.91 517.194 189.91 516.157C189.91 515.272 189.737 514.587 189.392 514.101C189.046 513.614 188.56 513.371 187.933 513.371C187.312 513.371 186.831 513.614 186.491 514.101C186.151 514.581 185.981 515.328 185.981 516.342ZM196.695 521H194.146V507.5H196.695V521ZM204.491 520.033C203.864 520.795 202.997 521.176 201.89 521.176C200.87 521.176 200.091 520.883 199.552 520.297C199.019 519.711 198.746 518.853 198.734 517.722V511.49H201.274V517.634C201.274 518.624 201.726 519.119 202.628 519.119C203.489 519.119 204.081 518.82 204.403 518.223V511.49H206.952V521H204.562L204.491 520.033ZM211.909 509.152V511.49H213.535V513.354H211.909V518.1C211.909 518.451 211.977 518.703 212.111 518.855C212.246 519.008 212.504 519.084 212.885 519.084C213.166 519.084 213.415 519.063 213.632 519.022V520.947C213.134 521.1 212.621 521.176 212.094 521.176C210.312 521.176 209.404 520.276 209.369 518.478V513.354H207.98V511.49H209.369V509.152H211.909ZM217.631 521H215.082V511.49H217.631V521ZM214.933 509.029C214.933 508.648 215.059 508.335 215.311 508.089C215.568 507.843 215.917 507.72 216.356 507.72C216.79 507.72 217.136 507.843 217.394 508.089C217.651 508.335 217.78 508.648 217.78 509.029C217.78 509.416 217.648 509.732 217.385 509.979C217.127 510.225 216.784 510.348 216.356 510.348C215.929 510.348 215.583 510.225 215.319 509.979C215.062 509.732 214.933 509.416 214.933 509.029ZM219.336 516.157C219.336 515.214 219.518 514.373 219.881 513.635C220.244 512.896 220.766 512.325 221.445 511.921C222.131 511.517 222.925 511.314 223.827 511.314C225.11 511.314 226.156 511.707 226.965 512.492C227.779 513.277 228.233 514.344 228.327 515.691L228.345 516.342C228.345 517.801 227.938 518.973 227.123 519.857C226.309 520.736 225.216 521.176 223.845 521.176C222.474 521.176 221.378 520.736 220.558 519.857C219.743 518.979 219.336 517.783 219.336 516.271V516.157ZM221.876 516.342C221.876 517.244 222.046 517.936 222.386 518.416C222.726 518.891 223.212 519.128 223.845 519.128C224.46 519.128 224.94 518.894 225.286 518.425C225.632 517.95 225.805 517.194 225.805 516.157C225.805 515.272 225.632 514.587 225.286 514.101C224.94 513.614 224.454 513.371 223.827 513.371C223.206 513.371 222.726 513.614 222.386 514.101C222.046 514.581 221.876 515.328 221.876 516.342ZM232.247 511.49L232.326 512.589C233.006 511.739 233.917 511.314 235.06 511.314C236.067 511.314 236.817 511.61 237.31 512.202C237.802 512.794 238.054 513.679 238.065 514.856V521H235.525V514.918C235.525 514.379 235.408 513.989 235.174 513.749C234.939 513.503 234.55 513.38 234.005 513.38C233.29 513.38 232.754 513.685 232.396 514.294V521H229.856V511.49H232.247Z" fill="black"/>
<path d="M97.4893 558.761H94.5186V567H93.3062V558.761H90.3418V557.758H97.4893V558.761ZM99.8506 560.963C100.371 560.324 101.048 560.005 101.882 560.005C103.333 560.005 104.065 560.824 104.078 562.461V567H102.904V562.455C102.9 561.96 102.785 561.594 102.561 561.357C102.341 561.12 101.996 561.001 101.526 561.001C101.146 561.001 100.811 561.103 100.523 561.306C100.236 561.509 100.011 561.776 99.8506 562.106V567H98.6763V557.25H99.8506V560.963ZM107.112 567H105.938V560.132H107.112V567ZM105.843 558.31C105.843 558.12 105.9 557.959 106.014 557.828C106.133 557.696 106.306 557.631 106.535 557.631C106.763 557.631 106.937 557.696 107.055 557.828C107.174 557.959 107.233 558.12 107.233 558.31C107.233 558.5 107.174 558.659 107.055 558.786C106.937 558.913 106.763 558.977 106.535 558.977C106.306 558.977 106.133 558.913 106.014 558.786C105.9 558.659 105.843 558.5 105.843 558.31ZM112.997 565.178C112.997 564.861 112.876 564.615 112.635 564.442C112.398 564.264 111.981 564.112 111.384 563.985C110.792 563.858 110.32 563.706 109.969 563.528C109.622 563.35 109.364 563.139 109.194 562.893C109.029 562.648 108.947 562.356 108.947 562.017C108.947 561.454 109.184 560.978 109.658 560.589C110.136 560.2 110.745 560.005 111.486 560.005C112.264 560.005 112.895 560.206 113.377 560.608C113.864 561.01 114.107 561.524 114.107 562.15H112.927C112.927 561.829 112.789 561.552 112.514 561.319C112.243 561.086 111.901 560.97 111.486 560.97C111.058 560.97 110.724 561.063 110.483 561.249C110.242 561.435 110.121 561.679 110.121 561.979C110.121 562.263 110.233 562.476 110.458 562.62C110.682 562.764 111.086 562.902 111.67 563.033C112.258 563.164 112.734 563.32 113.098 563.502C113.462 563.684 113.731 563.904 113.904 564.163C114.082 564.417 114.171 564.728 114.171 565.096C114.171 565.709 113.925 566.202 113.435 566.575C112.944 566.943 112.307 567.127 111.524 567.127C110.974 567.127 110.487 567.03 110.064 566.835C109.641 566.64 109.309 566.369 109.067 566.022C108.83 565.671 108.712 565.292 108.712 564.886H109.886C109.907 565.28 110.064 565.593 110.356 565.826C110.652 566.054 111.042 566.168 111.524 566.168C111.968 566.168 112.324 566.08 112.59 565.902C112.861 565.72 112.997 565.479 112.997 565.178ZM120.201 567H119.027V560.132H120.201V567ZM118.932 558.31C118.932 558.12 118.989 557.959 119.103 557.828C119.222 557.696 119.395 557.631 119.624 557.631C119.852 557.631 120.026 557.696 120.144 557.828C120.263 557.959 120.322 558.12 120.322 558.31C120.322 558.5 120.263 558.659 120.144 558.786C120.026 558.913 119.852 558.977 119.624 558.977C119.395 558.977 119.222 558.913 119.103 558.786C118.989 558.659 118.932 558.5 118.932 558.31ZM126.085 565.178C126.085 564.861 125.965 564.615 125.724 564.442C125.487 564.264 125.07 564.112 124.473 563.985C123.881 563.858 123.409 563.706 123.058 563.528C122.711 563.35 122.452 563.139 122.283 562.893C122.118 562.648 122.036 562.356 122.036 562.017C122.036 561.454 122.273 560.978 122.747 560.589C123.225 560.2 123.834 560.005 124.575 560.005C125.353 560.005 125.984 560.206 126.466 560.608C126.953 561.01 127.196 561.524 127.196 562.15H126.016C126.016 561.829 125.878 561.552 125.603 561.319C125.332 561.086 124.989 560.97 124.575 560.97C124.147 560.97 123.813 561.063 123.572 561.249C123.331 561.435 123.21 561.679 123.21 561.979C123.21 562.263 123.322 562.476 123.546 562.62C123.771 562.764 124.175 562.902 124.759 563.033C125.347 563.164 125.823 563.32 126.187 563.502C126.551 563.684 126.82 563.904 126.993 564.163C127.171 564.417 127.26 564.728 127.26 565.096C127.26 565.709 127.014 566.202 126.523 566.575C126.033 566.943 125.396 567.127 124.613 567.127C124.063 567.127 123.576 567.03 123.153 566.835C122.73 566.64 122.397 566.369 122.156 566.022C121.919 565.671 121.801 565.292 121.801 564.886H122.975C122.996 565.28 123.153 565.593 123.445 565.826C123.741 566.054 124.13 566.168 124.613 566.168C125.057 566.168 125.413 566.08 125.679 565.902C125.95 565.72 126.085 565.479 126.085 565.178ZM136.254 567C136.187 566.865 136.132 566.623 136.089 566.276C135.543 566.843 134.892 567.127 134.134 567.127C133.457 567.127 132.901 566.937 132.465 566.556C132.033 566.171 131.817 565.684 131.817 565.096C131.817 564.381 132.088 563.826 132.63 563.433C133.176 563.035 133.942 562.836 134.928 562.836H136.07V562.296C136.07 561.886 135.948 561.56 135.702 561.319C135.457 561.073 135.095 560.951 134.617 560.951C134.198 560.951 133.847 561.056 133.563 561.268C133.279 561.48 133.138 561.736 133.138 562.036H131.957C131.957 561.693 132.078 561.363 132.319 561.046C132.564 560.724 132.894 560.47 133.309 560.284C133.728 560.098 134.187 560.005 134.687 560.005C135.478 560.005 136.098 560.204 136.546 560.602C136.995 560.995 137.228 561.539 137.245 562.233V565.394C137.245 566.025 137.325 566.526 137.486 566.898V567H136.254ZM134.306 566.105C134.674 566.105 135.023 566.01 135.353 565.819C135.683 565.629 135.922 565.381 136.07 565.077V563.667H135.15C133.711 563.667 132.992 564.089 132.992 564.931C132.992 565.299 133.114 565.587 133.36 565.794C133.605 566.001 133.921 566.105 134.306 566.105ZM140.361 567H139.187V557.25H140.361V567ZM143.522 567H142.348V557.25H143.522V567ZM152.873 567C152.805 566.865 152.75 566.623 152.708 566.276C152.162 566.843 151.51 567.127 150.752 567.127C150.075 567.127 149.519 566.937 149.083 566.556C148.651 566.171 148.436 565.684 148.436 565.096C148.436 564.381 148.706 563.826 149.248 563.433C149.794 563.035 150.56 562.836 151.546 562.836H152.688V562.296C152.688 561.886 152.566 561.56 152.32 561.319C152.075 561.073 151.713 560.951 151.235 560.951C150.816 560.951 150.465 561.056 150.181 561.268C149.898 561.48 149.756 561.736 149.756 562.036H148.575C148.575 561.693 148.696 561.363 148.937 561.046C149.182 560.724 149.513 560.47 149.927 560.284C150.346 560.098 150.805 560.005 151.305 560.005C152.096 560.005 152.716 560.204 153.165 560.602C153.613 560.995 153.846 561.539 153.863 562.233V565.394C153.863 566.025 153.943 566.526 154.104 566.898V567H152.873ZM150.924 566.105C151.292 566.105 151.641 566.01 151.971 565.819C152.301 565.629 152.54 565.381 152.688 565.077V563.667H151.768C150.329 563.667 149.61 564.089 149.61 564.931C149.61 565.299 149.733 565.587 149.978 565.794C150.223 566.001 150.539 566.105 150.924 566.105ZM161.518 563.642C161.518 564.692 161.277 565.536 160.794 566.175C160.312 566.81 159.665 567.127 158.852 567.127C157.985 567.127 157.314 566.82 156.84 566.207L156.783 567H155.704V557.25H156.878V560.887C157.352 560.299 158.006 560.005 158.839 560.005C159.673 560.005 160.327 560.32 160.801 560.951C161.279 561.581 161.518 562.444 161.518 563.541V563.642ZM160.344 563.509C160.344 562.709 160.189 562.091 159.88 561.655C159.571 561.219 159.127 561.001 158.547 561.001C157.773 561.001 157.216 561.361 156.878 562.081V565.051C157.238 565.771 157.798 566.13 158.56 566.13C159.123 566.13 159.561 565.912 159.874 565.477C160.187 565.041 160.344 564.385 160.344 563.509ZM162.692 563.502C162.692 562.83 162.824 562.224 163.086 561.687C163.353 561.15 163.721 560.735 164.19 560.443C164.664 560.151 165.204 560.005 165.809 560.005C166.744 560.005 167.5 560.329 168.075 560.976C168.655 561.624 168.945 562.485 168.945 563.56V563.642C168.945 564.311 168.816 564.912 168.558 565.445C168.304 565.974 167.938 566.386 167.459 566.683C166.986 566.979 166.44 567.127 165.822 567.127C164.891 567.127 164.135 566.803 163.556 566.156C162.98 565.508 162.692 564.651 162.692 563.585V563.502ZM163.873 563.642C163.873 564.404 164.049 565.015 164.4 565.477C164.755 565.938 165.229 566.168 165.822 566.168C166.418 566.168 166.892 565.936 167.244 565.47C167.595 565 167.771 564.345 167.771 563.502C167.771 562.749 167.591 562.14 167.231 561.674C166.875 561.205 166.402 560.97 165.809 560.97C165.229 560.97 164.762 561.2 164.406 561.662C164.051 562.123 163.873 562.783 163.873 563.642ZM174.658 566.321C174.201 566.858 173.53 567.127 172.646 567.127C171.913 567.127 171.355 566.915 170.97 566.492C170.589 566.065 170.396 565.434 170.392 564.601V560.132H171.566V564.569C171.566 565.61 171.99 566.13 172.836 566.13C173.733 566.13 174.33 565.796 174.626 565.127V560.132H175.8V567H174.683L174.658 566.321ZM179.184 558.469V560.132H180.466V561.04H179.184V565.299C179.184 565.574 179.241 565.781 179.355 565.921C179.469 566.056 179.664 566.124 179.939 566.124C180.074 566.124 180.261 566.099 180.498 566.048V567C180.189 567.085 179.888 567.127 179.596 567.127C179.071 567.127 178.676 566.968 178.409 566.651C178.143 566.333 178.009 565.883 178.009 565.299V561.04H176.759V560.132H178.009V558.469H179.184ZM186.661 558.469V560.132H187.943V561.04H186.661V565.299C186.661 565.574 186.718 565.781 186.833 565.921C186.947 566.056 187.141 566.124 187.417 566.124C187.552 566.124 187.738 566.099 187.975 566.048V567C187.666 567.085 187.366 567.127 187.074 567.127C186.549 567.127 186.153 566.968 185.887 566.651C185.62 566.333 185.487 565.883 185.487 565.299V561.04H184.236V560.132H185.487V558.469H186.661ZM190.495 560.963C191.016 560.324 191.693 560.005 192.526 560.005C193.978 560.005 194.71 560.824 194.723 562.461V567H193.548V562.455C193.544 561.96 193.43 561.594 193.206 561.357C192.986 561.12 192.641 561.001 192.171 561.001C191.79 561.001 191.456 561.103 191.168 561.306C190.88 561.509 190.656 561.776 190.495 562.106V567H189.321V557.25H190.495V560.963ZM199.331 567.127C198.4 567.127 197.643 566.822 197.059 566.213C196.475 565.599 196.183 564.78 196.183 563.756V563.541C196.183 562.859 196.312 562.252 196.57 561.719C196.832 561.181 197.196 560.762 197.662 560.462C198.131 560.157 198.639 560.005 199.185 560.005C200.078 560.005 200.772 560.299 201.267 560.887C201.762 561.475 202.01 562.318 202.01 563.414V563.902H197.357C197.374 564.579 197.571 565.127 197.947 565.546C198.328 565.961 198.811 566.168 199.395 566.168C199.809 566.168 200.16 566.084 200.448 565.915C200.736 565.745 200.988 565.521 201.204 565.242L201.921 565.8C201.345 566.685 200.482 567.127 199.331 567.127ZM199.185 560.97C198.711 560.97 198.313 561.143 197.992 561.49C197.67 561.833 197.471 562.315 197.395 562.938H200.835V562.849C200.802 562.252 200.641 561.791 200.353 561.465C200.065 561.135 199.676 560.97 199.185 560.97ZM209.449 567.127C208.518 567.127 207.761 566.822 207.177 566.213C206.593 565.599 206.301 564.78 206.301 563.756V563.541C206.301 562.859 206.43 562.252 206.688 561.719C206.95 561.181 207.314 560.762 207.78 560.462C208.25 560.157 208.757 560.005 209.303 560.005C210.196 560.005 210.89 560.299 211.385 560.887C211.88 561.475 212.128 562.318 212.128 563.414V563.902H207.475C207.492 564.579 207.689 565.127 208.065 565.546C208.446 565.961 208.929 566.168 209.513 566.168C209.927 566.168 210.279 566.084 210.566 565.915C210.854 565.745 211.106 565.521 211.322 565.242L212.039 565.8C211.464 566.685 210.6 567.127 209.449 567.127ZM209.303 560.97C208.829 560.97 208.431 561.143 208.11 561.49C207.788 561.833 207.589 562.315 207.513 562.938H210.954V562.849C210.92 562.252 210.759 561.791 210.471 561.465C210.183 561.135 209.794 560.97 209.303 560.97ZM215.67 565.407L217.371 560.132H218.571L216.108 567H215.213L212.725 560.132H213.924L215.67 565.407ZM219.288 563.502C219.288 562.83 219.419 562.224 219.682 561.687C219.948 561.15 220.316 560.735 220.786 560.443C221.26 560.151 221.8 560.005 222.405 560.005C223.34 560.005 224.095 560.329 224.671 560.976C225.251 561.624 225.541 562.485 225.541 563.56V563.642C225.541 564.311 225.411 564.912 225.153 565.445C224.899 565.974 224.533 566.386 224.055 566.683C223.581 566.979 223.035 567.127 222.417 567.127C221.486 567.127 220.731 566.803 220.151 566.156C219.576 565.508 219.288 564.651 219.288 563.585V563.502ZM220.469 563.642C220.469 564.404 220.644 565.015 220.996 565.477C221.351 565.938 221.825 566.168 222.417 566.168C223.014 566.168 223.488 565.936 223.839 565.47C224.191 565 224.366 564.345 224.366 563.502C224.366 562.749 224.186 562.14 223.827 561.674C223.471 561.205 222.997 560.97 222.405 560.97C221.825 560.97 221.357 561.2 221.002 561.662C220.646 562.123 220.469 562.783 220.469 563.642ZM228.289 567H227.115V557.25H228.289V567ZM234.415 566.321C233.958 566.858 233.287 567.127 232.402 567.127C231.67 567.127 231.112 566.915 230.727 566.492C230.346 566.065 230.153 565.434 230.149 564.601V560.132H231.323V564.569C231.323 565.61 231.746 566.13 232.593 566.13C233.49 566.13 234.087 565.796 234.383 565.127V560.132H235.557V567H234.44L234.415 566.321ZM238.94 558.469V560.132H240.223V561.04H238.94V565.299C238.94 565.574 238.998 565.781 239.112 565.921C239.226 566.056 239.421 566.124 239.696 566.124C239.831 566.124 240.017 566.099 240.254 566.048V567C239.945 567.085 239.645 567.127 239.353 567.127C238.828 567.127 238.433 566.968 238.166 566.651C237.899 566.333 237.766 565.883 237.766 565.299V561.04H236.516V560.132H237.766V558.469H238.94ZM242.876 567H241.702V560.132H242.876V567ZM241.606 558.31C241.606 558.12 241.664 557.959 241.778 557.828C241.896 557.696 242.07 557.631 242.298 557.631C242.527 557.631 242.7 557.696 242.819 557.828C242.937 557.959 242.997 558.12 242.997 558.31C242.997 558.5 242.937 558.659 242.819 558.786C242.7 558.913 242.527 558.977 242.298 558.977C242.07 558.977 241.896 558.913 241.778 558.786C241.664 558.659 241.606 558.5 241.606 558.31ZM244.45 563.502C244.45 562.83 244.581 562.224 244.844 561.687C245.11 561.15 245.479 560.735 245.948 560.443C246.422 560.151 246.962 560.005 247.567 560.005C248.502 560.005 249.257 560.329 249.833 560.976C250.413 561.624 250.703 562.485 250.703 563.56V563.642C250.703 564.311 250.574 564.912 250.315 565.445C250.062 565.974 249.695 566.386 249.217 566.683C248.743 566.979 248.197 567.127 247.58 567.127C246.649 567.127 245.893 566.803 245.313 566.156C244.738 565.508 244.45 564.651 244.45 563.585V563.502ZM245.631 563.642C245.631 564.404 245.806 565.015 246.158 565.477C246.513 565.938 246.987 566.168 247.58 566.168C248.176 566.168 248.65 565.936 249.001 565.47C249.353 565 249.528 564.345 249.528 563.502C249.528 562.749 249.348 562.14 248.989 561.674C248.633 561.205 248.159 560.97 247.567 560.97C246.987 560.97 246.52 561.2 246.164 561.662C245.809 562.123 245.631 562.783 245.631 563.642ZM253.286 560.132L253.324 560.995C253.849 560.335 254.535 560.005 255.381 560.005C256.832 560.005 257.564 560.824 257.577 562.461V567H256.403V562.455C256.399 561.96 256.284 561.594 256.06 561.357C255.84 561.12 255.495 561.001 255.025 561.001C254.645 561.001 254.31 561.103 254.022 561.306C253.735 561.509 253.51 561.776 253.35 562.106V567H252.175V560.132H253.286ZM262.262 563.502C262.262 562.83 262.393 562.224 262.655 561.687C262.922 561.15 263.29 560.735 263.76 560.443C264.234 560.151 264.773 560.005 265.378 560.005C266.314 560.005 267.069 560.329 267.645 560.976C268.224 561.624 268.514 562.485 268.514 563.56V563.642C268.514 564.311 268.385 564.912 268.127 565.445C267.873 565.974 267.507 566.386 267.029 566.683C266.555 566.979 266.009 567.127 265.391 567.127C264.46 567.127 263.705 566.803 263.125 566.156C262.549 565.508 262.262 564.651 262.262 563.585V563.502ZM263.442 563.642C263.442 564.404 263.618 565.015 263.969 565.477C264.325 565.938 264.799 566.168 265.391 566.168C265.988 566.168 266.462 565.936 266.813 565.47C267.164 565 267.34 564.345 267.34 563.502C267.34 562.749 267.16 562.14 266.8 561.674C266.445 561.205 265.971 560.97 265.378 560.97C264.799 560.97 264.331 561.2 263.976 561.662C263.62 562.123 263.442 562.783 263.442 563.642ZM270.564 567V561.04H269.479V560.132H270.564V559.427C270.564 558.691 270.761 558.122 271.155 557.72C271.548 557.318 272.105 557.117 272.824 557.117C273.095 557.117 273.364 557.153 273.63 557.225L273.567 558.177C273.368 558.139 273.156 558.12 272.932 558.12C272.551 558.12 272.257 558.232 272.05 558.456C271.842 558.676 271.739 558.993 271.739 559.408V560.132H273.205V561.04H271.739V567H270.564ZM283.812 565.381L285.132 560.132H286.307L284.307 567H283.355L281.686 561.795L280.061 567H279.108L277.115 560.132H278.283L279.635 565.273L281.235 560.132H282.181L283.812 565.381ZM288.681 560.963C289.201 560.324 289.878 560.005 290.712 560.005C292.163 560.005 292.896 560.824 292.908 562.461V567H291.734V562.455C291.73 561.96 291.615 561.594 291.391 561.357C291.171 561.12 290.826 561.001 290.356 561.001C289.976 561.001 289.641 561.103 289.354 561.306C289.066 561.509 288.841 561.776 288.681 562.106V567H287.506V557.25H288.681V560.963ZM298.907 567C298.839 566.865 298.784 566.623 298.742 566.276C298.196 566.843 297.544 567.127 296.787 567.127C296.11 567.127 295.553 566.937 295.117 566.556C294.686 566.171 294.47 565.684 294.47 565.096C294.47 564.381 294.741 563.826 295.282 563.433C295.828 563.035 296.594 562.836 297.58 562.836H298.723V562.296C298.723 561.886 298.6 561.56 298.354 561.319C298.109 561.073 297.747 560.951 297.269 560.951C296.85 560.951 296.499 561.056 296.215 561.268C295.932 561.48 295.79 561.736 295.79 562.036H294.609C294.609 561.693 294.73 561.363 294.971 561.046C295.217 560.724 295.547 560.47 295.961 560.284C296.38 560.098 296.84 560.005 297.339 560.005C298.13 560.005 298.75 560.204 299.199 560.602C299.647 560.995 299.88 561.539 299.897 562.233V565.394C299.897 566.025 299.977 566.526 300.138 566.898V567H298.907ZM296.958 566.105C297.326 566.105 297.675 566.01 298.005 565.819C298.335 565.629 298.575 565.381 298.723 565.077V563.667H297.802C296.363 563.667 295.644 564.089 295.644 564.931C295.644 565.299 295.767 565.587 296.012 565.794C296.258 566.001 296.573 566.105 296.958 566.105ZM303.331 558.469V560.132H304.613V561.04H303.331V565.299C303.331 565.574 303.388 565.781 303.502 565.921C303.617 566.056 303.811 566.124 304.086 566.124C304.222 566.124 304.408 566.099 304.645 566.048V567C304.336 567.085 304.036 567.127 303.744 567.127C303.219 567.127 302.823 566.968 302.557 566.651C302.29 566.333 302.157 565.883 302.157 565.299V561.04H300.906V560.132H302.157V558.469H303.331ZM311.462 565.28L313.062 560.132H314.319L311.558 568.06C311.13 569.203 310.451 569.774 309.52 569.774L309.298 569.755L308.86 569.672V568.72L309.177 568.746C309.575 568.746 309.884 568.665 310.104 568.504C310.328 568.344 310.512 568.049 310.656 567.622L310.917 566.924L308.466 560.132H309.749L311.462 565.28ZM314.96 563.502C314.96 562.83 315.091 562.224 315.354 561.687C315.62 561.15 315.988 560.735 316.458 560.443C316.932 560.151 317.472 560.005 318.077 560.005C319.012 560.005 319.767 560.329 320.343 560.976C320.923 561.624 321.212 562.485 321.212 563.56V563.642C321.212 564.311 321.083 564.912 320.825 565.445C320.571 565.974 320.205 566.386 319.727 566.683C319.253 566.979 318.707 567.127 318.089 567.127C317.158 567.127 316.403 566.803 315.823 566.156C315.248 565.508 314.96 564.651 314.96 563.585V563.502ZM316.141 563.642C316.141 564.404 316.316 565.015 316.667 565.477C317.023 565.938 317.497 566.168 318.089 566.168C318.686 566.168 319.16 565.936 319.511 565.47C319.862 565 320.038 564.345 320.038 563.502C320.038 562.749 319.858 562.14 319.499 561.674C319.143 561.205 318.669 560.97 318.077 560.97C317.497 560.97 317.029 561.2 316.674 561.662C316.318 562.123 316.141 562.783 316.141 563.642ZM326.925 566.321C326.468 566.858 325.798 567.127 324.913 567.127C324.181 567.127 323.622 566.915 323.237 566.492C322.856 566.065 322.664 565.434 322.66 564.601V560.132H323.834V564.569C323.834 565.61 324.257 566.13 325.104 566.13C326.001 566.13 326.597 565.796 326.894 565.127V560.132H328.068V567H326.951L326.925 566.321ZM192.469 578.509C192.469 577.455 192.719 576.609 193.218 575.97C193.718 575.326 194.371 575.005 195.18 575.005C195.984 575.005 196.621 575.28 197.09 575.83V572.25H198.265V582H197.186L197.128 581.264C196.659 581.839 196.005 582.127 195.167 582.127C194.371 582.127 193.722 581.801 193.218 581.149C192.719 580.498 192.469 579.647 192.469 578.598V578.509ZM193.644 578.642C193.644 579.421 193.804 580.03 194.126 580.47C194.448 580.91 194.892 581.13 195.459 581.13C196.204 581.13 196.748 580.796 197.09 580.127V576.973C196.739 576.325 196.2 576.001 195.472 576.001C194.896 576.001 194.448 576.224 194.126 576.668C193.804 577.112 193.644 577.77 193.644 578.642ZM202.943 582.127C202.012 582.127 201.254 581.822 200.67 581.213C200.086 580.599 199.794 579.78 199.794 578.756V578.541C199.794 577.859 199.924 577.252 200.182 576.719C200.444 576.181 200.808 575.762 201.273 575.462C201.743 575.157 202.251 575.005 202.797 575.005C203.69 575.005 204.384 575.299 204.879 575.887C205.374 576.475 205.622 577.318 205.622 578.414V578.902H200.969C200.986 579.579 201.182 580.127 201.559 580.546C201.94 580.961 202.422 581.168 203.006 581.168C203.421 581.168 203.772 581.084 204.06 580.915C204.348 580.745 204.6 580.521 204.815 580.242L205.533 580.8C204.957 581.685 204.094 582.127 202.943 582.127ZM202.797 575.97C202.323 575.97 201.925 576.143 201.604 576.49C201.282 576.833 201.083 577.315 201.007 577.938H204.447V577.849C204.413 577.252 204.253 576.791 203.965 576.465C203.677 576.135 203.288 575.97 202.797 575.97ZM210.985 580.178C210.985 579.861 210.865 579.615 210.624 579.442C210.387 579.264 209.97 579.112 209.373 578.985C208.781 578.858 208.309 578.706 207.958 578.528C207.611 578.35 207.352 578.139 207.183 577.893C207.018 577.648 206.936 577.356 206.936 577.017C206.936 576.454 207.173 575.978 207.646 575.589C208.125 575.2 208.734 575.005 209.475 575.005C210.253 575.005 210.884 575.206 211.366 575.608C211.853 576.01 212.096 576.524 212.096 577.15H210.916C210.916 576.829 210.778 576.552 210.503 576.319C210.232 576.086 209.889 575.97 209.475 575.97C209.047 575.97 208.713 576.063 208.472 576.249C208.23 576.435 208.11 576.679 208.11 576.979C208.11 577.263 208.222 577.476 208.446 577.62C208.671 577.764 209.075 577.902 209.659 578.033C210.247 578.164 210.723 578.32 211.087 578.502C211.451 578.684 211.72 578.904 211.893 579.163C212.071 579.417 212.16 579.728 212.16 580.096C212.16 580.709 211.914 581.202 211.423 581.575C210.932 581.943 210.296 582.127 209.513 582.127C208.963 582.127 208.476 582.03 208.053 581.835C207.63 581.64 207.297 581.369 207.056 581.022C206.819 580.671 206.701 580.292 206.701 579.886H207.875C207.896 580.28 208.053 580.593 208.345 580.826C208.641 581.054 209.03 581.168 209.513 581.168C209.957 581.168 210.312 581.08 210.579 580.902C210.85 580.72 210.985 580.479 210.985 580.178ZM214.965 582H213.791V575.132H214.965V582ZM213.696 573.31C213.696 573.12 213.753 572.959 213.867 572.828C213.986 572.696 214.159 572.631 214.388 572.631C214.616 572.631 214.79 572.696 214.908 572.828C215.027 572.959 215.086 573.12 215.086 573.31C215.086 573.5 215.027 573.659 214.908 573.786C214.79 573.913 214.616 573.977 214.388 573.977C214.159 573.977 213.986 573.913 213.867 573.786C213.753 573.659 213.696 573.5 213.696 573.31ZM220.17 576.186C219.993 576.156 219.8 576.141 219.593 576.141C218.823 576.141 218.3 576.469 218.025 577.125V582H216.851V575.132H217.993L218.012 575.925C218.397 575.312 218.943 575.005 219.65 575.005C219.878 575.005 220.052 575.035 220.17 575.094V576.186ZM223.979 582.127C223.048 582.127 222.291 581.822 221.707 581.213C221.123 580.599 220.831 579.78 220.831 578.756V578.541C220.831 577.859 220.96 577.252 221.218 576.719C221.48 576.181 221.844 575.762 222.31 575.462C222.779 575.157 223.287 575.005 223.833 575.005C224.726 575.005 225.42 575.299 225.915 575.887C226.41 576.475 226.658 577.318 226.658 578.414V578.902H222.005C222.022 579.579 222.219 580.127 222.595 580.546C222.976 580.961 223.458 581.168 224.042 581.168C224.457 581.168 224.808 581.084 225.096 580.915C225.384 580.745 225.636 580.521 225.852 580.242L226.569 580.8C225.993 581.685 225.13 582.127 223.979 582.127ZM223.833 575.97C223.359 575.97 222.961 576.143 222.64 576.49C222.318 576.833 222.119 577.315 222.043 577.938H225.483V577.849C225.45 577.252 225.289 576.791 225.001 576.465C224.713 576.135 224.324 575.97 223.833 575.97Z" fill="#716969"/>
<rect x="60" y="629" width="295" height="74" rx="9" fill="#001AFF"/>
<rect x="197" y="750" width="11" height="10" rx="5" fill="#DDDDDD"/>
<rect x="177" y="750" width="12" height="10" rx="5" fill="#001AFF"/>
<rect x="215" y="750" width="11" height="10" rx="5" fill="#DDDDDD"/>
<rect x="233" y="750" width="12" height="10" rx="5" fill="#DDDDDD"/>
<path d="M186.082 664.616C185.95 665.744 185.533 666.616 184.83 667.231C184.131 667.841 183.201 668.146 182.039 668.146C180.779 668.146 179.769 667.695 179.007 666.792C178.25 665.888 177.872 664.68 177.872 663.166V662.141C177.872 661.149 178.047 660.278 178.399 659.526C178.755 658.774 179.258 658.198 179.908 657.797C180.557 657.392 181.309 657.189 182.164 657.189C183.296 657.189 184.205 657.507 184.888 658.142C185.572 658.771 185.97 659.646 186.082 660.764H184.668C184.546 659.914 184.28 659.299 183.87 658.918C183.465 658.537 182.896 658.347 182.164 658.347C181.265 658.347 180.56 658.679 180.047 659.343C179.539 660.007 179.285 660.952 179.285 662.177V663.21C179.285 664.367 179.527 665.288 180.01 665.971C180.494 666.655 181.17 666.997 182.039 666.997C182.82 666.997 183.418 666.821 183.833 666.469C184.253 666.113 184.532 665.495 184.668 664.616H186.082ZM187.437 663.964C187.437 663.188 187.588 662.49 187.891 661.87C188.199 661.25 188.624 660.771 189.166 660.434C189.712 660.097 190.335 659.929 191.033 659.929C192.112 659.929 192.984 660.302 193.648 661.049C194.317 661.796 194.651 662.79 194.651 664.03V664.125C194.651 664.897 194.502 665.59 194.205 666.206C193.912 666.816 193.489 667.292 192.938 667.634C192.391 667.976 191.761 668.146 191.048 668.146C189.974 668.146 189.102 667.773 188.433 667.026C187.769 666.279 187.437 665.29 187.437 664.06V663.964ZM188.799 664.125C188.799 665.004 189.002 665.71 189.407 666.242C189.817 666.774 190.364 667.041 191.048 667.041C191.736 667.041 192.283 666.772 192.688 666.235C193.094 665.693 193.296 664.936 193.296 663.964C193.296 663.095 193.089 662.392 192.674 661.855C192.264 661.313 191.717 661.042 191.033 661.042C190.364 661.042 189.825 661.308 189.415 661.84C189.004 662.373 188.799 663.134 188.799 664.125ZM197.632 660.075L197.676 661.071C198.282 660.31 199.073 659.929 200.049 659.929C201.724 659.929 202.569 660.874 202.583 662.763V668H201.229V662.756C201.224 662.185 201.092 661.762 200.833 661.489C200.579 661.215 200.181 661.079 199.639 661.079C199.2 661.079 198.814 661.196 198.482 661.43C198.15 661.665 197.891 661.972 197.706 662.353V668H196.351V660.075H197.632ZM206.465 658.156V660.075H207.945V661.123H206.465V666.037C206.465 666.354 206.531 666.594 206.663 666.755C206.795 666.911 207.02 666.989 207.337 666.989C207.493 666.989 207.708 666.96 207.981 666.901V668C207.625 668.098 207.278 668.146 206.941 668.146C206.336 668.146 205.879 667.963 205.572 667.597C205.264 667.231 205.11 666.711 205.11 666.037V661.123H203.667V660.075H205.11V658.156H206.465ZM211.006 668H209.651V660.075H211.006V668ZM209.542 657.973C209.542 657.753 209.607 657.568 209.739 657.417C209.876 657.265 210.076 657.189 210.34 657.189C210.604 657.189 210.804 657.265 210.94 657.417C211.077 657.568 211.146 657.753 211.146 657.973C211.146 658.193 211.077 658.376 210.94 658.522C210.804 658.669 210.604 658.742 210.34 658.742C210.076 658.742 209.876 658.669 209.739 658.522C209.607 658.376 209.542 658.193 209.542 657.973ZM214.463 660.075L214.507 661.071C215.113 660.31 215.904 659.929 216.88 659.929C218.555 659.929 219.4 660.874 219.415 662.763V668H218.06V662.756C218.055 662.185 217.923 661.762 217.664 661.489C217.41 661.215 217.012 661.079 216.47 661.079C216.031 661.079 215.645 661.196 215.313 661.43C214.981 661.665 214.722 661.972 214.537 662.353V668H213.182V660.075H214.463ZM226.351 667.216C225.823 667.836 225.049 668.146 224.029 668.146C223.184 668.146 222.54 667.902 222.095 667.414C221.656 666.921 221.434 666.193 221.429 665.231V660.075H222.784V665.195C222.784 666.396 223.272 666.997 224.249 666.997C225.284 666.997 225.972 666.611 226.314 665.839V660.075H227.669V668H226.38L226.351 667.216ZM233.023 668.146C231.949 668.146 231.075 667.795 230.401 667.092C229.727 666.384 229.39 665.439 229.39 664.257V664.008C229.39 663.222 229.539 662.521 229.837 661.906C230.14 661.286 230.56 660.803 231.097 660.456C231.639 660.104 232.225 659.929 232.854 659.929C233.885 659.929 234.686 660.268 235.257 660.947C235.828 661.625 236.114 662.597 236.114 663.862V664.426H230.745C230.765 665.207 230.992 665.839 231.426 666.323C231.866 666.801 232.422 667.041 233.096 667.041C233.575 667.041 233.98 666.943 234.312 666.748C234.644 666.552 234.935 666.293 235.184 665.971L236.011 666.616C235.347 667.636 234.351 668.146 233.023 668.146ZM232.854 661.042C232.308 661.042 231.849 661.242 231.478 661.643C231.106 662.038 230.877 662.595 230.789 663.312H234.759V663.21C234.72 662.521 234.534 661.989 234.202 661.613C233.87 661.232 233.421 661.042 232.854 661.042Z" fill="white"/>
<g clip-path="url(#clip1_4_241)">
<path d="M173.309 122.55H-18.9179V257.495H173.309V122.55Z" fill="#F2F2F2"/>
<path d="M167.813 139.475H-13.4212V249.512H167.813V139.475Z" fill="white"/>
<path d="M173.227 122.43H-19V131.382H173.227V122.43Z" fill="#001AFF"/>
<path d="M-1.44081 128.666C-0.604868 128.666 0.072794 127.923 0.072794 127.007C0.072794 126.091 -0.604868 125.348 -1.44081 125.348C-2.27675 125.348 -2.95441 126.091 -2.95441 127.007C-2.95441 127.923 -2.27675 128.666 -1.44081 128.666Z" fill="white"/>
<path d="M49.615 150.893H3.04639V238.095H49.615V150.893Z" fill="#F2F2F2"/>
<path d="M96.4607 150.893H57.6536V174.896H96.4607V150.893Z" fill="#001AFF"/>
<path d="M96.4607 181.58H57.6536V207.407H96.4607V181.58Z" fill="#F2F2F2"/>
<path d="M96.4607 214.091H57.6536V238.095H96.4607V214.091Z" fill="#F2F2F2"/>
<path d="M151.345 150.893H104.776V188.895H151.345V150.893Z" fill="#F2F2F2"/>
<path d="M151.345 200.093H104.776V238.095H151.345V200.093Z" fill="#F2F2F2"/>
<path d="M414 122.55H221.773V257.495H414V122.55Z" fill="#F2F2F2"/>
<path d="M408.503 139.475H227.269V249.512H408.503V139.475Z" fill="white"/>
<path d="M413.918 122.43H221.691V131.382H413.918V122.43Z" fill="#001AFF"/>
<path d="M227.759 128.666C228.595 128.666 229.273 127.923 229.273 127.007C229.273 126.091 228.595 125.348 227.759 125.348C226.923 125.348 226.246 126.091 226.246 127.007C226.246 127.923 226.923 128.666 227.759 128.666Z" fill="white"/>
<path d="M233.505 128.666C234.34 128.666 235.018 127.923 235.018 127.007C235.018 126.091 234.34 125.348 233.505 125.348C232.669 125.348 231.991 126.091 231.991 127.007C231.991 127.923 232.669 128.666 233.505 128.666Z" fill="white"/>
<path d="M239.25 128.666C240.086 128.666 240.763 127.923 240.763 127.007C240.763 126.091 240.086 125.348 239.25 125.348C238.414 125.348 237.736 126.091 237.736 127.007C237.736 127.923 238.414 128.666 239.25 128.666Z" fill="white"/>
<path d="M391.994 150.893H345.425V238.095H391.994V150.893Z" fill="#F2F2F2"/>
<path d="M337.709 150.891H243.779V174.894H337.709V150.891Z" fill="#001AFF"/>
<path d="M337.709 181.579H243.779V207.405H337.709V181.579Z" fill="#F2F2F2"/>
<path d="M337.709 214.09H243.779V238.093H337.709V214.09Z" fill="#F2F2F2"/>
<path d="M196.411 18H195.337V82.3478H196.411V18Z" fill="#CCCCCC"/>
<path d="M303.862 122.393H302.788V82.937H88.9599V122.393H87.8854V81.7592H303.862V122.393Z" fill="#CCCCCC"/>
<path d="M203.78 197.89L202.971 193.456C202.971 193.456 191.071 189.022 189.74 197.89H203.78Z" fill="#E6E6E6"/>
<path d="M180.942 442.036L173.14 442.035L169.429 409.052L180.943 409.052L180.942 442.036Z" fill="#FFB8B8"/>
<path d="M182.931 450.325L157.776 450.324V449.975C157.776 447.129 158.808 444.399 160.644 442.387C162.48 440.374 164.971 439.243 167.567 439.243H167.568L182.932 439.244L182.931 450.325Z" fill="#2F2E41"/>
<path d="M207.762 442.036L215.564 442.035L219.275 409.052L207.761 409.052L207.762 442.036Z" fill="#FFB8B8"/>
<path d="M205.772 439.244L221.136 439.243H221.137C223.734 439.243 226.224 440.374 228.06 442.387C229.896 444.399 230.928 447.129 230.928 449.975V450.324L205.773 450.325L205.772 439.244Z" fill="#2F2E41"/>
<path d="M215.107 216.513L224.006 215.626L229.669 244.891L228.86 271.495L219.961 306.968L207.825 298.987L214.297 262.627L215.107 216.513Z" fill="#2F2E41"/>
<path d="M220.739 303.864L218.747 322.487L221.174 365.941V430.695L205.802 429.791L202.566 362.393L193.667 331.355L187.194 366.827L183.149 433.338L167.373 431.952V366.594L166.968 318.94L172.632 300.317L220.739 303.864Z" fill="#2F2E41"/>
<path d="M187.599 198.777C187.599 198.777 193.262 189.909 203.78 196.117L208.634 203.211L224.006 215.626L220.77 257.306L224.815 309.628L167.373 308.741L177.082 256.42V200.551L187.599 198.777Z" fill="#2F2E41"/>
<path opacity="0.25" d="M218.747 230.346L223.386 291.143L217.533 258.193L218.747 230.346Z" fill="black"/>
<path d="M176.551 320.934C177.111 320.201 177.518 319.342 177.742 318.418C177.966 317.494 178.003 316.527 177.85 315.586C177.696 314.645 177.357 313.752 176.854 312.97C176.352 312.188 175.7 311.536 174.943 311.061L176.672 296.235L168.709 292.886L166.535 313.86C165.891 315.307 165.753 316.962 166.147 318.513C166.542 320.063 167.442 321.402 168.677 322.273C169.911 323.145 171.395 323.491 172.846 323.244C174.297 322.997 175.616 322.175 176.551 320.934Z" fill="#FFB8B8"/>
<path d="M166.564 306.081H179.509V299.873H166.564V306.081Z" fill="#E6E6E6"/>
<path d="M185.577 208.089L177.082 200.551C177.082 200.551 171.014 200.107 170.205 209.862C169.396 219.617 168.412 261.297 168.412 261.297L165.351 302.977L182.34 303.864L185.577 258.752V208.089Z" fill="#2F2E41"/>
<path d="M210.858 179.268C215.162 170.638 212.268 159.818 204.395 155.1C196.522 150.383 186.651 153.554 182.347 162.184C178.044 170.814 180.937 181.634 188.81 186.351C196.683 191.069 206.554 187.897 210.858 179.268Z" fill="#FFB8B8"/>
<path d="M195.389 186.435C199.364 187.481 203.551 186.87 207.138 184.722C210.725 182.573 213.456 179.04 214.8 174.808C216.143 170.577 216.005 165.949 214.41 161.823C212.815 157.698 209.879 154.369 206.171 152.484C203.315 151.087 200.192 150.472 197.072 150.694C192.213 150.974 187.49 152.942 182.627 152.797L181.922 154.039L179.265 153.333L178.696 155.645L177.996 155.618C176.742 158.172 178.759 161.828 181.405 161.797C182.452 161.785 183.442 161.306 184.466 161.066C185.49 160.825 186.696 160.885 187.403 161.733C188.32 162.835 187.921 164.554 187.729 166.031C187.538 167.508 188.016 169.498 189.376 169.546C190.071 169.571 190.732 169.025 191.415 169.168C192.211 169.336 192.613 170.388 192.497 171.267C192.3 172.129 191.978 172.951 191.545 173.702C189.573 178.017 191.238 183.887 195.095 186.215" fill="#2F2E41"/>
<path d="M298.221 451H93.5269C93.3844 451 93.2477 450.938 93.147 450.828C93.0462 450.717 92.9896 450.567 92.9896 450.411C92.9896 450.255 93.0462 450.105 93.147 449.995C93.2477 449.884 93.3844 449.822 93.5269 449.822H298.221C298.364 449.822 298.5 449.884 298.601 449.995C298.702 450.105 298.759 450.255 298.759 450.411C298.759 450.567 298.702 450.717 298.601 450.828C298.5 450.938 298.364 451 298.221 451Z" fill="#CCCCCC"/>
</g>
</g>
<defs>
<clipPath id="clip0_4_241">
<rect width="414" height="896" fill="white"/>
</clipPath>
<clipPath id="clip1_4_241">
<rect width="433" height="433" fill="white" transform="translate(-19 18)"/>
</clipPath>
</defs>
</svg>
