<svg width="375" height="812" viewBox="0 0 375 812" fill="none" xmlns="http://www.w3.org/2000/svg">
<rect width="375" height="812" fill="white"/>
<path d="M179.851 735H178.586V726.824C178.586 726.291 178.682 725.842 178.873 725.478C179.069 725.108 179.349 724.83 179.714 724.644C180.078 724.452 180.511 724.356 181.013 724.356C181.159 724.356 181.304 724.366 181.45 724.384C181.601 724.402 181.746 724.429 181.888 724.466L181.819 725.498C181.724 725.475 181.614 725.459 181.491 725.45C181.373 725.441 181.254 725.437 181.136 725.437C180.867 725.437 180.634 725.491 180.438 725.601C180.247 725.705 180.101 725.86 180.001 726.065C179.901 726.271 179.851 726.523 179.851 726.824V735ZM181.423 727.604V728.574H177.417V727.604H181.423ZM184.096 728.766V735H182.831V727.604H184.062L184.096 728.766ZM186.406 727.562L186.399 728.738C186.295 728.715 186.194 728.702 186.099 728.697C186.007 728.688 185.903 728.684 185.784 728.684C185.493 728.684 185.235 728.729 185.012 728.82C184.788 728.911 184.599 729.039 184.444 729.203C184.289 729.367 184.166 729.563 184.075 729.791C183.989 730.014 183.932 730.26 183.904 730.529L183.549 730.734C183.549 730.288 183.592 729.868 183.679 729.477C183.77 729.085 183.909 728.738 184.096 728.438C184.283 728.132 184.52 727.895 184.807 727.727C185.098 727.553 185.445 727.467 185.846 727.467C185.937 727.467 186.042 727.478 186.16 727.501C186.279 727.519 186.361 727.54 186.406 727.562ZM187.104 731.384V731.227C187.104 730.693 187.181 730.199 187.336 729.743C187.491 729.283 187.714 728.884 188.006 728.547C188.298 728.205 188.651 727.941 189.065 727.754C189.48 727.562 189.945 727.467 190.46 727.467C190.979 727.467 191.447 727.562 191.861 727.754C192.281 727.941 192.636 728.205 192.928 728.547C193.224 728.884 193.45 729.283 193.604 729.743C193.759 730.199 193.837 730.693 193.837 731.227V731.384C193.837 731.917 193.759 732.411 193.604 732.867C193.45 733.323 193.224 733.722 192.928 734.063C192.636 734.401 192.283 734.665 191.868 734.856C191.458 735.043 190.993 735.137 190.474 735.137C189.954 735.137 189.487 735.043 189.072 734.856C188.658 734.665 188.302 734.401 188.006 734.063C187.714 733.722 187.491 733.323 187.336 732.867C187.181 732.411 187.104 731.917 187.104 731.384ZM188.368 731.227V731.384C188.368 731.753 188.411 732.102 188.498 732.43C188.585 732.753 188.715 733.04 188.888 733.291C189.065 733.542 189.286 733.74 189.551 733.886C189.815 734.027 190.123 734.098 190.474 734.098C190.82 734.098 191.123 734.027 191.383 733.886C191.647 733.74 191.866 733.542 192.039 733.291C192.212 733.04 192.342 732.753 192.429 732.43C192.52 732.102 192.565 731.753 192.565 731.384V731.227C192.565 730.862 192.52 730.518 192.429 730.194C192.342 729.866 192.21 729.577 192.032 729.326C191.859 729.071 191.64 728.87 191.376 728.725C191.116 728.579 190.811 728.506 190.46 728.506C190.114 728.506 189.808 728.579 189.544 728.725C189.284 728.87 189.065 729.071 188.888 729.326C188.715 729.577 188.585 729.866 188.498 730.194C188.411 730.518 188.368 730.862 188.368 731.227ZM196.681 729.073V735H195.409V727.604H196.612L196.681 729.073ZM196.421 731.021L195.833 731.001C195.838 730.495 195.904 730.028 196.031 729.6C196.159 729.167 196.348 728.791 196.599 728.472C196.849 728.153 197.161 727.907 197.535 727.733C197.909 727.556 198.342 727.467 198.834 727.467C199.18 727.467 199.499 727.517 199.791 727.617C200.083 727.713 200.336 727.866 200.55 728.075C200.764 728.285 200.93 728.554 201.049 728.882C201.167 729.21 201.227 729.606 201.227 730.071V735H199.962V730.133C199.962 729.745 199.896 729.436 199.764 729.203C199.636 728.971 199.454 728.802 199.217 728.697C198.98 728.588 198.702 728.533 198.383 728.533C198.009 728.533 197.697 728.599 197.446 728.731C197.196 728.864 196.995 729.046 196.845 729.278C196.694 729.511 196.585 729.777 196.517 730.078C196.453 730.374 196.421 730.689 196.421 731.021ZM201.213 730.324L200.365 730.584C200.37 730.178 200.436 729.789 200.563 729.415C200.696 729.041 200.885 728.709 201.131 728.417C201.382 728.125 201.689 727.895 202.054 727.727C202.418 727.553 202.835 727.467 203.305 727.467C203.701 727.467 204.052 727.519 204.357 727.624C204.667 727.729 204.927 727.891 205.137 728.109C205.351 728.324 205.513 728.599 205.622 728.937C205.731 729.274 205.786 729.675 205.786 730.14V735H204.515V730.126C204.515 729.711 204.449 729.39 204.316 729.162C204.189 728.93 204.007 728.768 203.77 728.677C203.537 728.581 203.259 728.533 202.936 728.533C202.658 728.533 202.411 728.581 202.197 728.677C201.983 728.772 201.803 728.905 201.657 729.073C201.511 729.237 201.4 729.426 201.322 729.641C201.249 729.855 201.213 730.083 201.213 730.324Z" fill="#555151"/>
<path d="M183.021 750.203H184.665L188.857 760.636L193.041 750.203H194.693L189.49 763H188.207L183.021 750.203ZM182.485 750.203H183.936L184.173 758.008V763H182.485V750.203ZM193.771 750.203H195.221V763H193.533V758.008L193.771 750.203ZM201.9 763.176C201.238 763.176 200.638 763.064 200.099 762.842C199.565 762.613 199.105 762.294 198.719 761.884C198.338 761.474 198.045 760.987 197.84 760.425C197.635 759.862 197.532 759.247 197.532 758.579V758.21C197.532 757.437 197.646 756.748 197.875 756.145C198.104 755.535 198.414 755.02 198.807 754.598C199.199 754.176 199.645 753.856 200.143 753.64C200.641 753.423 201.156 753.314 201.689 753.314C202.369 753.314 202.955 753.432 203.447 753.666C203.945 753.9 204.353 754.229 204.669 754.65C204.985 755.066 205.22 755.559 205.372 756.127C205.524 756.689 205.601 757.305 205.601 757.973V758.702H198.499V757.375H203.975V757.252C203.951 756.83 203.863 756.42 203.711 756.021C203.564 755.623 203.33 755.295 203.008 755.037C202.686 754.779 202.246 754.65 201.689 754.65C201.32 754.65 200.98 754.729 200.67 754.888C200.359 755.04 200.093 755.269 199.87 755.573C199.647 755.878 199.475 756.25 199.352 756.689C199.229 757.129 199.167 757.636 199.167 758.21V758.579C199.167 759.03 199.229 759.455 199.352 759.854C199.48 760.246 199.665 760.592 199.905 760.891C200.151 761.189 200.447 761.424 200.793 761.594C201.145 761.764 201.543 761.849 201.988 761.849C202.562 761.849 203.049 761.731 203.447 761.497C203.846 761.263 204.194 760.949 204.493 760.557L205.478 761.339C205.272 761.649 205.012 761.945 204.695 762.227C204.379 762.508 203.989 762.736 203.526 762.912C203.069 763.088 202.527 763.176 201.9 763.176ZM211.48 753.49V754.738H206.339V753.49H211.48ZM208.079 751.179H209.705V760.645C209.705 760.967 209.755 761.21 209.854 761.374C209.954 761.538 210.083 761.646 210.241 761.699C210.399 761.752 210.569 761.778 210.751 761.778C210.886 761.778 211.026 761.767 211.173 761.743C211.325 761.714 211.439 761.69 211.516 761.673L211.524 763C211.396 763.041 211.226 763.079 211.015 763.114C210.81 763.155 210.561 763.176 210.268 763.176C209.869 763.176 209.503 763.097 209.169 762.938C208.835 762.78 208.568 762.517 208.369 762.147C208.176 761.772 208.079 761.269 208.079 760.636V751.179ZM218.995 761.374V756.479C218.995 756.104 218.919 755.778 218.767 755.503C218.62 755.222 218.397 755.005 218.099 754.853C217.8 754.7 217.431 754.624 216.991 754.624C216.581 754.624 216.221 754.694 215.91 754.835C215.605 754.976 215.365 755.16 215.189 755.389C215.02 755.617 214.935 755.863 214.935 756.127H213.309C213.309 755.787 213.396 755.45 213.572 755.116C213.748 754.782 214 754.48 214.328 754.211C214.662 753.936 215.061 753.719 215.523 753.561C215.992 753.396 216.514 753.314 217.088 753.314C217.779 753.314 218.389 753.432 218.916 753.666C219.449 753.9 219.865 754.255 220.164 754.729C220.469 755.198 220.621 755.787 220.621 756.496V760.926C220.621 761.242 220.647 761.579 220.7 761.937C220.759 762.294 220.844 762.602 220.955 762.859V763H219.259C219.177 762.812 219.112 762.563 219.065 762.253C219.019 761.937 218.995 761.644 218.995 761.374ZM219.276 757.234L219.294 758.377H217.65C217.188 758.377 216.774 758.415 216.411 758.491C216.048 758.562 215.743 758.67 215.497 758.816C215.251 758.963 215.063 759.147 214.935 759.37C214.806 759.587 214.741 759.842 214.741 760.135C214.741 760.434 214.809 760.706 214.943 760.952C215.078 761.198 215.28 761.395 215.55 761.541C215.825 761.682 216.162 761.752 216.561 761.752C217.059 761.752 217.498 761.646 217.879 761.436C218.26 761.225 218.562 760.967 218.784 760.662C219.013 760.357 219.136 760.062 219.153 759.774L219.848 760.557C219.807 760.803 219.695 761.075 219.514 761.374C219.332 761.673 219.089 761.96 218.784 762.235C218.485 762.505 218.128 762.73 217.712 762.912C217.302 763.088 216.839 763.176 216.323 763.176C215.679 763.176 215.113 763.05 214.627 762.798C214.146 762.546 213.771 762.209 213.502 761.787C213.238 761.359 213.106 760.882 213.106 760.354C213.106 759.845 213.206 759.396 213.405 759.01C213.604 758.617 213.892 758.292 214.267 758.034C214.642 757.771 215.093 757.571 215.62 757.437C216.147 757.302 216.736 757.234 217.387 757.234H219.276Z" fill="#1877F2"/>
<g clip-path="url(#clip0_1_2)">
<path d="M211 376C211 362.745 200.255 352 187 352C173.745 352 163 362.745 163 376C163 387.979 171.776 397.908 183.25 399.708V382.938H177.156V376H183.25V370.713C183.25 364.698 186.833 361.375 192.315 361.375C194.94 361.375 197.688 361.844 197.688 361.844V367.75H194.661C191.68 367.75 190.75 369.6 190.75 371.5V376H197.406L196.342 382.938H190.75V399.708C202.224 397.908 211 387.979 211 376Z" fill="#1877F2"/>
<path d="M196.342 382.938L197.406 376H190.75V371.5C190.75 369.602 191.68 367.75 194.661 367.75H197.688V361.844C197.688 361.844 194.941 361.375 192.315 361.375C186.833 361.375 183.25 364.698 183.25 370.713V376H177.156V382.938H183.25V399.708C185.735 400.097 188.265 400.097 190.75 399.708V382.938H196.342Z" fill="white"/>
</g>
<path d="M176.14 758.334C175.682 758.072 175.153 757.962 174.628 758.019C174.104 758.076 173.611 758.298 173.22 758.652C172.829 759.007 172.56 759.476 172.452 759.992C172.344 760.509 172.402 761.047 172.618 761.528C171.773 762.157 170.748 762.498 169.694 762.499C169.319 762.496 168.946 762.451 168.581 762.364C168.279 763.026 167.817 763.604 167.238 764.046C168.388 764.484 169.634 764.606 170.847 764.402C172.06 764.197 173.196 763.672 174.138 762.881C174.725 763.062 175.357 763.022 175.915 762.767C176.474 762.512 176.919 762.061 177.166 761.499C177.413 760.938 177.445 760.305 177.255 759.721C177.066 759.137 176.668 758.644 176.138 758.334H176.14Z" fill="#1877F2"/>
<path d="M172.125 750.937C171.997 750.38 171.681 749.884 171.23 749.531C170.78 749.179 170.222 748.991 169.651 749C169.079 749.009 168.527 749.214 168.088 749.58C167.649 749.946 167.349 750.452 167.237 751.013C167.126 751.574 167.21 752.156 167.476 752.662C167.742 753.169 168.173 753.568 168.698 753.795C169.223 754.022 169.81 754.062 170.361 753.908C170.912 753.755 171.393 753.417 171.725 752.951C172.37 753.243 172.946 753.669 173.416 754.199C173.885 754.73 174.237 755.353 174.448 756.029C174.596 756.011 174.745 756.001 174.894 755.999C175.477 755.999 176.055 756.113 176.594 756.333C176.387 755.121 175.865 753.985 175.081 753.038C174.297 752.091 173.277 751.367 172.125 750.937Z" fill="#1877F2"/>
<path d="M166.663 759.249C166.464 758.904 166.184 758.611 165.848 758.396C165.512 758.182 165.129 758.051 164.731 758.015C164.709 757.844 164.697 757.672 164.694 757.499C164.697 756.239 165.179 755.027 166.042 754.108C165.618 753.511 165.347 752.819 165.254 752.092C164.454 752.748 163.809 753.573 163.367 754.508C162.924 755.443 162.694 756.464 162.694 757.499C162.698 757.89 162.735 758.28 162.804 758.665C162.458 758.985 162.209 759.395 162.087 759.85C161.964 760.305 161.972 760.785 162.11 761.235C162.248 761.685 162.511 762.088 162.867 762.395C163.224 762.703 163.66 762.903 164.126 762.974C164.592 763.044 165.068 762.982 165.5 762.794C165.931 762.605 166.301 762.299 166.566 761.91C166.831 761.52 166.981 761.064 166.998 760.593C167.016 760.123 166.899 759.657 166.663 759.249Z" fill="#1877F2"/>
<defs>
<clipPath id="clip0_1_2">
<rect width="48" height="48" fill="white" transform="translate(163 352)"/>
</clipPath>
</defs>
</svg>
